<svg version="1" xmlns="http://www.w3.org/2000/svg" width="3873.333" height="3873.333" viewBox="0 0 2905.000000 2905.000000"><path d="M805 1c-3 .4-7.7 1-10.5 1.4-14.9 1.9-37.5 8.2-53.2 14.7-66.6 27.6-117.3 86.5-133.9 155.3-3 12.5-3 12.7-4 19.3-.3 2.6-.8 5.7-1 6.8-1.6 8.5-2.2 35.2-1.1 48 2 22.4 6.6 42.6 14.3 62.9 4.3 11.1 14 30.6 19.4 38.7 2.2 3.3 4 6.3 4 6.5 0 .3 3.5 5.1 7.8 10.7 8.1 10.7 28.2 31.6 36.7 38.3 2.7 2.1 5.5 4.3 6.2 4.9.7.5 1.8 1.5 2.5 2.1 4.5 3.7 23.6 15.4 32.6 20 18.4 9.4 41.2 17.4 57.2 20 1.9.3 3.8.8 4.1.9.3.2 2.8.7 5.5 1.1 2.7.3 5.8.8 6.9 1 8 1.6 31.6 2.2 47.5 1.1 68.2-4.4 134.1-43.2 172.2-101.3 7.5-11.4 15.8-26.1 15.8-27.8 0-.7.4-1.6.9-2.2 3.4-3.6 16.1-42.3 17.6-53.9.1-1.1.7-5.6 1.3-10 2.9-20.8 3.1-39.2.7-59.5-7.9-66-45.3-126.1-101-162.6-23.7-15.4-45.8-25-73-31.4-10.6-2.5-14.8-3.3-24.5-4.6-5.4-.8-45.8-1.1-51-.4zM410.9 499.4c0 .6-.2 1.8-.3 2.6-.3 1.3-1 8.3-2.1 21-.2 1.9-.6 5.9-.9 8.8-.3 2.8-.8 7.6-1.1 10.5-.3 2.8-.7 7.2-1 9.7-.2 2.5-.7 6.7-.9 9.5-1.1 10.5-1.7 16.2-2.1 20.5-.6 5.9-1.3 13.2-2 20-.3 3-.7 7.1-1 9-.2 1.9-.6 6.2-1 9.5-1.2 13.2-1.4 15.2-2.1 21-.3 3.3-.7 7.8-.9 10-.6 7.3-1.7 18-2 19.6-.2.9-.6 5.3-1 9.8-.3 4.4-.8 8.9-.9 9.8-.2 1-.7 4.9-1 8.8-.4 3.8-.9 8.8-1.1 11-.5 4.5-.8 6.7-3 28.5-2.6 25.8-3.4 34.2-4 39-.2 1.9-.7 6.4-1 10-.4 3.6-.9 7.8-1.1 9.5-.2 1.6-.6 5.9-.9 9.5-.3 3.6-.8 8.1-1 10-1.1 8.3-1.9 15.9-3 28.1-.3 3.1-.7 6.5-.9 7.6-.3 1.1-.7 5.6-1.1 9.9-.4 4.3-.9 8.6-1 9.4-.2.8-.6 4.9-1 9s-.9 8.4-1.1 9.4c-.2 1-.6 5.1-.9 9-.3 3.9-.8 8.2-1 9.6-.2 1.4-.6 5.4-1 9-.4 3.6-.8 7.6-1 9-.4 2.8-.8 6.2-3 26.5-.3 2.7-.8 6.6-1 8.5-.2 1.9-.7 6-1 9-.3 3-.8 6.6-1 8-.2 1.4-.7 5.4-1 9-.4 3.6-.8 7.6-1 9-.2 1.4-.7 5-1 8-.3 3-.8 6.6-1 8-.2 1.4-.7 5.4-1 9-.4 3.6-.9 7.2-1 8-.1.8-.6 4.4-1 8-.3 3.6-.8 7.6-1 9-.2 1.4-.7 5-1 8-.3 3-.8 6.8-1.1 8.4-.3 1.7-3.8 8.2-7.8 14.5-6.7 10.6-14.9 24.3-19.9 33.1-1.1 1.9-3.9 6.9-6.2 11-2.3 4.1-5.6 10-7.2 13-1.7 3-4.1 7.3-5.3 9.5-3.1 5.5-26.3 51.8-29 58-1.2 2.7-3.3 7.2-4.6 9.8-1.3 2.7-2.4 5.5-2.4 6.3 0 .8-.4 1.4-1 1.4-.5 0-1 .7-1 1.5s-.9 3.1-1.9 5.2c-4.3 8.3-28.1 67.6-30.7 76.3-.2.8-4.2 12.7-8.9 26.5-11.5 34.2-17.4 54.8-27 93.5-3.1 12.1-10.1 44.8-12.4 57.8-1.7 9.2-3.3 17.8-3.6 19.2-.3 1.4-.7 3.8-.9 5.5-.3 1.6-1.6 10.2-3 19s-2.7 18-3 20.5c-1 8.7-1.8 14.5-2.1 17-.2 1.4-.7 5.2-1 8.5-.4 3.3-.8 7.6-1 9.5-.2 1.9-.7 6.9-1 11-.3 4.1-.8 8.9-1 10.5-.2 1.7-.7 7.5-1 13-.4 5.5-.8 12.5-1 15.5-2.5 39.4-2.5 107.2 0 143 .3 3.6.7 10.1 1 14.5.7 10.4 2.1 25.8 3 34 .3 2.2.7 6 .9 8.5 1.3 11.6 1.9 16.6 2.1 18.2.2.9.7 4.8 1 8.5.4 3.7.9 7 1 7.3.2.3.7 3.3 1 6.5.4 3.3.9 6.2 1 6.5.2.3.6 2.9 1 5.9.4 3 .9 6.3 1.1 7.5.5 2.6 1.5 8.7 3.4 20.5.6 3.6 1.3 6.7 1.4 7 .2.3.7 2.4 1 4.6.3 2.2.8 5.1 1.1 6.5.3 1.4.7 3.4.9 4.5.2 1.1 2.3 10.5 4.6 21 2.3 10.4 4.3 19.9 4.6 21 .8 4 11.3 43.3 14.1 53.1l2.9 10-1.7 11.5c-.9 6.3-2.7 17.7-3.9 25.4-1.2 7.7-2.4 15.6-2.6 17.5-.3 1.9-.7 4.6-.9 6-.4 2.5-3 18.7-3.9 24.5-.2 1.6-.9 5.9-1.5 9.5-.5 3.6-1.3 8.5-1.6 11-.3 2.5-.8 5.6-1 7-.3 1.4-.7 4-1 5.7-.5 3.6-1.1 7.2-1.9 11.8-.3 1.6-.8 4.8-1 7-.3 2.2-.8 4.9-1 6.1-.2 1.2-.7 4.5-1.1 7.5-.4 3-.8 5.6-1 5.9-.2.3-.6 3-1 6-.6 5.5-1 7.8-1.9 13.5-.3 1.6-1 5.9-1.5 9.5-2 12.9-2.3 14.3-2.7 16.3-.2 1.2-.6 3.9-.9 6.2-.4 2.2-.9 5.3-1.1 7-.3 1.6-.7 4.1-.9 5.5-.8 5.7-8.1 52.1-8.9 56.5-.2 1.1-.7 4-1 6.5-.7 4.7-1 6.7-2.6 16-.5 3-1.2 7.5-1.5 10-.3 2.5-1.2 8.1-2 12.5-1.3 7.6-1.8 10.9-3 19.2-.3 2.1-.8 4.9-1 6.3-.3 1.4-.7 3.8-.9 5.5-.3 1.6-1.4 8.8-2.6 16-3.3 20.5-4.9 30.7-5.4 34.5-.3 1.9-.7 4.4-1 5.5-.2 1.1-.7 4.2-1 7-.4 2.7-.9 5.7-1.1 6.5-.2.8-.6 3.1-.9 5-.3 1.9-1.4 9.1-2.5 16-1.2 6.9-2.3 14.3-2.6 16.5-.4 2.2-1.3 8-2.2 13-1.8 11-1.9 11.7-2.7 18-.4 2.7-.9 6.3-1.3 8-.3 1.6-.7 3.9-.9 5-.2 1.8-1.8 11.9-3 19-.3 1.6-.7 4.1-.9 5.5-.2 1.4-.7 4.5-1.1 7-.4 2.5-.8 5.2-.9 6-.2 1.4-1.8 10.9-2 12-.1.3-.5 3-.9 6-.5 3-1 6.4-1.3 7.5-.4 2-.7 4.1-1.8 11.8-.3 2.3-.8 4.9-1 5.7-.2.8-.6 3.7-.9 6.3-.3 2.7-.8 5.2-1 5.5-.2.4-.7 3.4-1.1 6.7-.3 3.2-.8 6.2-1 6.5-.2.3-.6 2.6-.9 5-.4 2.5-.9 5.6-1.1 7-.2 1.4-.7 4.5-1 7-.3 2.5-.8 5.2-1 6-.2.8-.6 3.3-1 5.5-.6 4.6-.8 5.5-3 18.5-.8 5.2-1.7 11-2 12.8-.2 1.8-.6 4.5-.9 6-.3 1.5-.8 4-1 5.7-1.6 9.7-2.6 16.5-3.1 20-.4 2.2-.8 4.7-1 5.5-.2.8-1.1 6.2-2 12-.8 5.8-1.7 11.6-2 13-.3 1.4-.8 4.5-1.1 7-.3 2.5-.7 5.2-.9 6-.3.8-.7 3.3-1 5.5-.3 2.2-1.4 8.9-2.5 15-1 6-2.2 13-2.5 15.5-.3 2.5-.8 5.2-1 6-.2.8-.7 3.5-1 6-.3 2.5-.8 5.2-1 6-.2.8-.7 3.4-1 5.7-.3 2.3-.8 5.5-1 7-.2 1.5-.8 5.1-1.4 7.9-.5 2.8-1.2 7.1-1.5 9.5-.3 2.4-.8 5.5-1.1 6.9-.3 1.4-.8 4.5-1.1 7-.3 2.5-.8 5.4-1 6.5-.6 3.1-2.4 13.9-2.4 14.6 0 .7 2.3.6 10-.5 6.9-.9 12.6-1.4 22.5-2.2 5-.3 10.6-.8 12.5-.9 31.6-2.7 126.6-2.7 152-.1 1.9.2 7.8.7 13.2 1 5.3.4 10.5.8 11.5 1 1 .2 5 .7 8.8 1 3.9.4 8.2.9 9.8 1.1l2.7.5.1-12.2c.1-26.8 1.2-75.2 2.4-101.8.3-6.3.7-17.1 1-24 .3-6.9.8-16.8 1.1-22 .3-5.2.7-13.3.9-18 .7-14 1.8-31.8 3-49.5.3-4.4.8-11.4 1-15.5.5-8.3 1.3-20.2 2-29.5.2-3.3.7-9.4 1-13.5.3-4.1.7-10 1-13 .2-3 .7-9.1 1-13.5.3-4.4.8-10.7 1-14 .8-9.1 1.3-16.2 2-25 .4-4.4.8-9.1 1-10.5.2-1.4.7-7.5 1-13.5.4-6.1.9-11.8 1.1-12.8.1-.9.6-5.6.9-10.5.3-4.8.8-10.3 1-12.2.2-1.9.7-6.9 1-11 .3-4.1.8-10 1.1-13 .3-3 .7-7.5.9-10 .9-12.7 1.6-21.8 2-24 .2-1.4.7-6.3 1-11 .4-4.7.8-10.1 1-12 .2-1.9.6-7.1 1-11.5s.8-9.4 1-11c.2-1.7.7-6.6 1-11 .3-4.4.8-9.4 1-11 .2-1.7.7-7.1 1.1-12 .3-5 .7-9.5.8-10 .3-2.3 2-1.4 4 2 4.6 7.9 41.2 59.8 44.9 63.7.6.7 2.5 3.1 4.1 5.3 8.5 11.6 39 49.1 49.2 60.5 1.7 1.9 7.1 8 12 13.5 14.8 16.7 18.9 21 45.9 48 25.3 25.4 40.8 40 59 55.8 1.7 1.4 4.1 3.5 5.5 4.8 13 11.4 43.8 36.4 57 46.4 3.6 2.7 9.2 6.9 12.5 9.5 3.3 2.5 10.7 7.9 16.5 12 5.8 4.1 10.7 7.7 11 8 .7.8 48.9 33 49.4 33 .3 0 3.1 1.7 6.3 3.8 13.2 8.8 47.8 28.9 72.3 42.2 17.1 9.2 65.1 32.6 83 40.5 9.6 4.2 18.9 8.2 20.5 9 17.4 7.9 67.3 26.4 98 36.4 45.4 14.8 105.9 30.8 144.5 38 3 .6 6.5 1.2 7.6 1.5 1.2.2 3.7.7 5.5 1 3.5.6 4.1.7 17.4 3.1 8.9 1.6 12.1 2.1 18 3 2.3.3 5 .7 6.1.9 1.2.2 4.5.7 7.4 1.1 2.9.4 6.2.9 7.4 1.1 1.2.3 3.7.6 5.6.9 1.9.2 7.6.9 12.5 1.5 9.5 1.2 13.8 1.7 22 2.5 2.8.3 6.6.8 8.5 1 6.6.8 16.5 1.7 20.5 2 8 .5 24.1 1.7 27.5 2 20.7 2 116.4 2.8 144 1.2 25.8-1.5 38.7-2.4 57.9-4.3 3.2-.3 8-.7 10.7-.9 2.7-.3 6.5-.7 8.4-.9 1.9-.3 6-.8 9-1.1 3-.4 6.6-.8 8-1 1.4-.2 4.8-.7 7.5-1 4.9-.5 18.5-2.4 21.5-3 .9-.2 4.3-.6 7.5-1 3.3-.4 6.9-.9 8-1.1 1.1-.2 6.1-1.1 11-1.9 5-.9 12.4-2.2 16.5-3 8-1.6 11.5-2.2 16.9-3.1 1.8-.3 4.3-.8 5.5-1.1 3.7-.8 11-2.4 13.6-2.9 2-.4 6.4-1.3 9-1.9.3-.1 3.2-.7 6.5-1.4s13.2-3.1 22-5.3c8.8-2.2 16.7-4.1 17.5-4.3 2.6-.6 31.2-8.5 36-10 2.5-.7 9.9-3 16.5-5 47.3-14.5 104.1-36 148.9-56.4 3.3-1.6 8.4-3.8 11.1-5.1 7-3.1 50.5-24.9 59-29.5 12.6-6.8 14.9-8.1 26.5-14.5 6.3-3.5 12.6-7.1 14-8 1.4-1 4.5-2.9 7-4.2 18.6-10.5 74-46.6 92-59.9 1.9-1.4 9.8-7.3 17.5-13 49-36.3 93.5-74.9 137.9-119.5 15.4-15.5 32-32.9 40.2-42.3 2.2-2.4 4.8-5.4 5.9-6.5 1.1-1.2 5.1-5.7 8.9-10.1 3.8-4.4 8-9.4 9.5-11 14.9-17.2 52-64.6 61.9-79.1.7-1.1 3.6-5.3 6.6-9.5 10-14.1 33.2-49.3 34-51.4.8-2.4 1.5.6 2 9.5.4 5.2.8 10.6 1.1 12 .2 1.4.7 6.3 1.1 11 .4 4.7.8 9.8.9 11.5.2 1.6.6 6.6 1 11 .3 4.4.8 9.6 1 11.5.4 3.7 1.2 12.4 2 22.5.2 3.3.7 8.6 1 11.7.6 7.3 1.3 15.3 2 24.3.3 3.8.8 8.8 1 11 .2 2.2.7 7.1 1 11 .3 3.8.7 9 1 11.5.2 2.5.7 7.9 1 12 .3 4.1.8 9.3 1 11.5.2 2.2.6 7.1 1 11 .3 3.8.8 9.2 1 12 .3 2.7.7 7.9 1 11.5.3 3.6.8 8.9 1 11.7 1.8 19.4 2.3 25.7 3 34.8.3 4.4.8 9.3 1 11 .2 1.6.7 6.6 1 11 .3 4.4.7 10.2 1 13 1.2 13.4 2.5 28.6 3 35.3.4 5.8 1.2 14.2 2 22.2.3 2.5.7 7.6 1 11.5.3 3.8.7 9 1 11.5.2 2.5.7 7.9 1 12 .3 4.1.8 9.7 1 12.5.3 2.7.7 8.1 1 12 .5 6.7.9 11 2 22.8.5 5.7 2.3 27 3.1 35.7.2 3 .6 8.1.9 11.3.3 3.1.7 8.5 1 12 .3 3.4.7 8.7 1 11.7.3 3 .7 8.4 1 12 .3 3.6.8 8.8 1 11.6.3 2.8.7 8 1 11.5.3 3.5.7 9.5 1.1 13.4.3 3.8.8 8.8.9 11 .2 2.2.4 5.2.4 6.7.1 2 .5 2.6 1.9 2.4 3.9-.8 13.1-2 22.7-3.1 3.9-.4 7.9-.9 9-1.1 10.4-1.9 228.9-2.9 248.5-1.1 4.7.4 10.8 1 13.5 1.2 5.8.6 25.9 3.3 29.3 3.9 1.8.4 2.1.1 1.7-1.7-.4-2-1.8-11.8-2.9-20.2-.3-1.7-.9-5.9-1.5-9.5-.5-3.6-1.2-8.1-1.5-10-.3-1.9-1.2-8.2-2-14-.8-5.8-1.8-12.8-2.2-15.5-.3-2.8-.7-5.7-.9-6.5-.5-2.7-1.4-9.4-2-14-.3-2.5-.8-5.6-1-7-.7-4.1-1.3-8-2.5-17-.6-4.7-1.3-9.6-1.6-11-.2-1.4-.6-4.5-.9-7-.3-2.5-.7-5.6-1-7-.3-1.4-.7-4.5-1-7-.3-2.5-.8-6.3-1.2-8.5-.4-2.2-.7-4.7-.8-5.5-.1-1.7-1.8-14.2-2-15-.1-.3-.5-3.4-.9-7-.5-3.6-1-7.2-1.1-8-.5-2.6-1.4-9.3-2-14-.4-2.5-.8-5.6-1-7-.5-3.4-2.5-17.8-3-21.5-1-7.8-1.7-13.2-2.1-15.5-.2-1.4-.6-4.8-.9-7.5-.3-2.8-.7-5.9-.9-7.1-.2-1.2-.7-4.5-1.1-7.5-.3-3-.8-6.8-1.2-8.4-.3-1.7-.7-4.6-.8-6.5-.2-1.9-.6-5.1-.9-7-.3-1.9-1-7.3-1.6-12-.6-4.7-1.3-9.6-1.5-11-.2-1.4-.6-4.8-.9-7.5-.4-2.8-.8-6.1-1.1-7.5-.2-1.4-.7-4.8-1-7.5-.3-2.8-.8-6.5-1.1-8.3-.2-1.7-.6-4.7-.8-6.5-.3-1.7-.8-5.5-1.1-8.2-.3-2.8-1-8.2-1.5-12-.5-3.9-1.2-8.8-1.4-11-.3-2.2-1-7.6-1.6-12-.6-4.4-1.3-10.3-1.5-13-.3-2.8-.7-5.9-1-7-.2-1.1-.7-4.3-1-7-.3-2.8-.8-6.5-1-8.2-.3-1.8-.8-5.7-1.1-8.5-.3-2.9-.7-6.3-.9-7.4-.2-1.2-.6-4.8-1-8-.4-3.3-.9-7-1.1-8.4-.4-2.6-1.7-13-3.9-31.5-.2-1.7-.6-5.3-1-8-1-8.2-1.5-11.8-2-16.5-.3-2.5-.8-6.2-1-8.3-.3-2-.7-5.4-1-7.5-.2-2-.7-5.5-.9-7.7-1.1-8.9-1.5-12.3-2.1-17.5-.4-3-.8-6.6-1-8-.2-1.4-.6-5-1-8s-.8-6.6-1-8c-.2-1.4-.7-5.4-1-9-.4-3.6-.8-7.2-1-8.1-.2-.8-.6-4.9-1-9-.4-4-.8-7.6-1-7.9-.2-.3-.6-3.7-1-7.5-.3-3.9-.8-8.1-1-9.5-.2-1.4-.7-4.8-.9-7.5-.3-2.8-.7-6.6-1-8.5-.3-1.9-.7-5.5-1-8-1.2-10.5-2.7-22.7-3.1-25-.2-1.4-.7-5.3-1-8.8-.4-3.5-.8-7.2-1-8.2-.2-1-.6-4.7-1-8.2-.3-3.5-.8-7-1-7.8-.2-.8-.6-4.6-1-8.3-.3-3.7-.8-7.6-1-8.5-.1-.9-.6-4.8-1-8.5-.3-3.7-.8-7.8-1.1-9-.2-1.2-.6-4.7-.9-7.7-.2-3-.7-7.1-1-9-.7-5-1.4-10.7-2-17-.3-3-.8-6.6-1-8-.2-1.4-.6-5-1-8-.3-3-1-8.9-1.5-13s-1.2-9.8-1.5-12.5c-.3-2.8-.7-6.1-1-7.5-.2-1.4-.7-5.2-1-8.5-.5-5.6-1.2-11.7-2-17.5-.2-1.4-.7-5.2-1-8.5-.4-3.3-.9-7.4-1.1-9-.2-1.7-.6-5.7-1-9-.3-3.3-.7-7.1-1-8.5-.5-3-3.1-24.2-3.9-32-.3-3-.8-6.6-1-8-.2-1.4-.6-5.4-1-9-.3-3.6-.8-7.6-1-9-.2-1.4-.7-5-1-8.1-.3-3.1-.7-6.6-1-7.7-.2-1.1-.6-4.9-1-8.4-.3-3.5-.7-7.4-1-8.8-.2-1.4-.7-5-1-8-.3-3-.8-7.1-1-9-.3-1.9-.7-5.8-1-8.5-.3-2.8-.7-6.6-1-8.5-.6-4.4-1.2-9.9-2-17-.4-3-.8-6.6-1-8-.2-1.4-.6-5-1-8-.3-3-.8-7.1-1-9-.3-1.9-1.2-9.8-2-17.5-.8-7.7-2-17.2-2.5-21-.9-6.9-1.5-11.7-2.5-21.3-.3-2.6-.8-6.7-1.1-9.2-.3-2.4-.7-6.3-.9-8.5-.2-2.2-.6-5.4-.9-7-.3-1.7-.8-5.7-1.1-9-.3-3.3-.8-7.4-1-9-.4-3.3-1.4-10.8-2.1-17-.2-2.2-.6-5.6-.9-7.5-.5-4.1-1.2-10.2-2-18-.3-3-.8-6.6-1-8-.2-1.4-.6-5.4-1-9-.4-3.6-.8-7.6-1-9-.2-1.4-.6-5-1-8-.3-3-1-8.9-1.5-13-1.1-8.8-1.8-15.2-2.5-21.8-.3-2.6-.7-6.1-1-7.7-.2-1.7-.7-5.8-1-9.3-.4-3.5-.8-7.1-1-8-.2-1.5-.6-5.1-2.1-18.2-.8-8.2-1.3-12.4-1.9-17.5-1.2-10.2-1.5-12.3-3-26-.8-7.7-1.7-15.1-2-16.5-.2-1.4-.7-5.6-1-9.3-.4-3.7-.8-7.6-1-8.5-.1-.9-.6-4.9-.9-8.7-.4-3.9-.9-8.1-1.1-9.5-.6-3.9-1.3-10.9-2.1-18.5-.3-3.9-.8-7.9-1-9-.2-1-.6-5.1-1-9-.3-3.8-.8-7.9-1-9-.2-1.1-.7-4.9-1-8.3-.3-3.5-.7-7.1-.9-8-.1-1-.6-5.1-1-9.2s-.9-8.3-1-9.2c-.2-.9-.7-4.8-1-8.5-.4-3.7-.8-7.9-1-9.3-.2-1.4-.6-4.9-.9-7.8-.3-2.8-.9-7.6-1.2-10.5-.3-2.8-.7-6.3-.9-7.7-.2-1.4-.6-5.2-1-8.5-.3-3.3-.8-7.8-1-10-.3-2.2-.7-6-1-8.5-.2-2.5-.7-6.5-1-9-.2-2.5-.7-7-1-10-.3-3-.8-6.9-1-8.5-.2-1.7-.7-5.7-1-9-.3-3.3-.8-7.4-1-9-.2-1.7-.7-5.7-1-9-.3-3.3-.8-7.4-1-9-.2-1.7-.7-5.7-1-9-.5-5.5-1-9.7-2-18-.2-1.7-.7-6.2-1-10-.4-3.9-.8-8.1-1.1-9.5-.2-1.4-.6-5.4-.9-9-.3-3.6-.8-7.6-1-9-.3-1.4-.7-5.5-1-9.2-.3-3.7-.7-7.5-.9-8.5-.2-1-.7-5.2-1.1-9.3-.3-4.1-.9-8.8-1.1-10.5-.3-1.6-.7-5.2-.9-8-.4-4.6-.9-9.4-2-18.5-.2-1.9-.7-6.4-1-10-.4-3.6-.8-7.6-1-9-.2-1.4-.6-5.4-1-9-.4-3.6-.8-7.6-1-9-.2-1.4-.6-5.7-1-9.5-.3-3.9-.8-8.1-1-9.5-.2-1.4-.7-5.9-1-10-.4-4.1-.9-8.2-1-9-.2-.8-.6-5-1-9.3-.3-4.3-.8-8.6-.9-9.5-.2-.9-.7-5.3-1.1-9.7-.4-4.4-.8-8.7-1-9.5-.2-.8-.6-5.3-1-10s-.8-9.2-1-10c-.2-.8-.6-5.3-1-10s-.8-8.7-1-9c-.2-.3-.6-4.1-1-8.5-.3-4.4-.8-9.1-1-10.5-.2-1.4-.6-5.9-1-10s-.8-8.6-1-10c-.2-1.4-.6-5.6-1-9.3-.3-3.7-.7-8.2-1-10-.2-1.8-.7-5.7-1-8.7-.5-5.7-1-10.8-2-19.5-.2-2.8-.7-7.7-1-11-.3-3.3-.8-7.6-1-9.5-.2-1.9-.7-6.4-1-10-.3-3.6-.8-7.6-1-9-.2-1.4-.6-5.4-1-9-.3-3.6-.8-8.1-1-10-.2-1.9-.7-6.4-1-10-.9-8.8-1.4-13.8-2-18-.2-1.9-.7-6.9-1-11-.3-4.1-.8-8.6-1-10-.2-1.4-.7-5.7-1-9.5-.3-3.9-.8-8.1-1-9.5-.2-1.4-.6-5.6-1-9.3-.3-3.7-.8-7.6-1-8.7-.2-1-.6-5.4-1-9.7-.3-4.3-.8-9.2-1-10.8-.3-1.7-.9-7.7-1.5-13.5s-1.3-12.1-1.5-14c-.2-1.9-.6-5.8-.9-8.5-1.4-13.9-1.9-18.2-2.2-20-.2-1.1-.6-5.2-.9-9-.3-3.9-.7-8.1-1-9.5-.2-1.4-.7-5.4-1-9-.8-7.7-1.3-12.7-2.1-19.5-.3-2.8-.7-6.6-.9-8.5-.2-1.9-.6-6-.9-9-1-8.2-1.4-11.8-2.2-19-.3-3.6-.8-7.2-.9-8-.1-.8-.6-4.9-1-9s-.9-8.4-1.1-9.5c-.2-1-.6-4.9-.9-8.5-.3-3.6-.8-7.6-1-9-.3-1.4-.7-5-1-8-1.2-12.1-2.5-24-3-27-.2-1.4-.7-5.2-1-8.5-.3-3.3-.8-6.9-1-8-.2-1.1-.4-3.4-.4-5.1l-.1-3.1-23.2.1c-22.2.1-23.3.2-24.3 2.1-.5 1.1-2.6 4.9-4.6 8.5-6.6 11.8-16 29.3-21.4 40-2.1 4.1-4.7 8.7-5.7 10.2-1.1 1.6-1.6 2.8-1.2 2.8.3 0 .2.6-.4 1.2-1.5 2-22.4 42.6-53.2 103.3-11.2 22-23.4 46.1-27.3 53.5-3.8 7.4-11.2 21.8-16.4 32-5.3 10.2-10.8 20.7-12.3 23.5-1.5 2.7-5.8 10.8-9.5 18-3.7 7.1-9.3 17.7-12.5 23.5-3.1 5.8-7.4 13.6-9.4 17.3-5 9.2-24.6 44-25 44.4-.2.2-8.6-7.9-18.7-17.9-19.4-19.2-30-29.3-43.9-41.8-4.6-4.1-9.1-8.2-10-9-7-6.6-31.4-26.9-62-51.3-15.9-12.8-48.6-36.1-76-54.2-26-17.1-40.5-26.1-66.5-41-9.7-5.5-13.9-7.9-31-17.2-4.4-2.4-20.6-10.6-36-18.2-63.8-31.6-124.4-55.5-193.5-76.4-14.7-4.5-41.9-12.1-47-13.2-.8-.2-6.9-1.7-13.5-3.4-6.6-1.6-13.1-3.2-14.5-3.4-1.4-.3-5.6-1.2-9.5-2.2-22.8-5.3-57.5-11.8-88-16.5-3.8-.6-8.1-1.3-9.5-1.5-1.4-.2-4.7-.6-7.5-1-2.7-.3-5.7-.8-6.5-1-.8-.2-4.6-.7-8.5-1-3.8-.4-7.2-.8-7.5-1-.3-.2-4.3-.6-8.9-1-4.7-.4-9.2-.8-10-1-.9-.2-5.2-.6-9.6-1-4.4-.3-9.6-.8-11.5-1-1.9-.2-7.5-.6-12.5-1-4.9-.4-10.8-.8-13-1-4.2-.4-22-1.3-41.5-2.1-12.4-.5-82-.5-91 0-3 .2-12.3.7-20.7 1.1-8.4.4-16.7.9-18.5 1-1.8.2-8 .7-13.8 1-5.8.4-11.3.9-12.3 1.1-1 .2-5.5.6-10 .9-4.5.3-9.3.8-10.7 1-3.9.6-12 1.5-17.5 2-2.7.2-8.4.9-12.5 1.5s-9.1 1.3-11 1.5c-1.9.2-4.8.6-6.5.9-1.6.3-4.8.8-7 1.1-2.2.2-5.3.7-7 .9-10.2 1.4-52.7 9.2-61.3 11.1-3.4.8-7.7 1.7-9.5 2-2.8.5-7.2 1.5-14.2 3.1-1.1.3-3.1.7-4.5 1-14.4 2.8-58.2 14.5-84.5 22.6-13.4 4.1-59 19.2-63.5 21.1-1.4.5-2.9 1.1-3.5 1.3-1.2.2-31.8 12.1-36 13.9-1.6.7-8.2 3.4-14.5 6-6.3 2.6-13.5 5.7-16 6.7-2.5 1.1-6.1 2.7-8 3.5-3.8 1.7-14.6 6.6-25 11.5-11.5 5.4-48.2 23.8-56.5 28.4-4.4 2.4-8.7 4.7-9.5 5.1-3.2 1.4-39 22-49 28.1-5.8 3.6-11.4 7-12.5 7.6-7.6 4.4-40.7 26.1-52.5 34.6-2.7 1.9-8.8 6.2-13.5 9.5-11.1 7.8-36.9 27.2-50.2 37.7-5.7 4.6-10.7 8.4-11.1 8.5-.4.1-4.6-7.7-9.4-17.5-4.7-9.7-18.2-37.1-29.8-60.7-11.7-23.7-28.8-58.3-38-77-9.2-18.7-26.7-54.1-38.8-78.6l-22-44.6h-29.6c-20.7 0-29.6.3-29.7 1.1zm1043.1 31c3.6.3 11.9.8 18.5 1.1 6.6.3 13.6.8 15.5.9 1.9.2 7.6.7 12.6 1 5 .4 10.5.9 12.2 1.1 1.7.2 6.1.6 9.9 1 3.7.3 8.4.7 10.3 1 1.9.2 6 .7 9 1 3 .4 6.6.8 8 1 1.4.2 5 .6 8 1s6.6.8 8 1c1.4.2 6.1.9 10.5 1.5s10.3 1.5 13 2c2.8.5 6.8 1.2 9 1.5 6.1.9 9.6 1.5 15 2.5 2.8.6 6.4 1.2 8 1.4 8.5 1.2 43.2 8.6 68.5 14.8 9.1 2.2 17.2 4.1 18 4.3 5.1 1.1 40.8 11.3 53 15.1 37.9 11.9 80.7 27.4 112.5 40.9 1.7.7 5.9 2.5 9.5 4 36.4 15.5 89.7 42 119.8 59.7 4.5 2.6 8.4 4.8 8.6 4.8.2 0 5.1 2.9 10.9 6.3 5.7 3.5 11.1 6.7 11.8 7.1.8.3 5.9 3.5 11.4 7.1 5.5 3.5 12.8 8.1 16.3 10.2 3.4 2 6.2 4.1 6.2 4.5 0 .4.4.8.9.8 2 0 42.3 28.1 65.1 45.4 48.8 37 85.9 69.5 131.1 115 16.1 16.2 17.7 18.1 16.7 20-.6 1.2-8.6 15.6-17.8 32.1-9.2 16.5-19.5 35.2-23 41.5-3.5 6.3-7.4 13.5-8.8 16-1.3 2.5-4 7.4-6 11-1.9 3.6-3.8 6.9-4.2 7.5-.4.5-2.4 4.1-4.5 8-2.1 3.8-8.5 15.5-14.3 26-5.8 10.4-11.7 21.2-13.2 24-7.6 13.8-9.8 17.9-16.2 29.3-3.7 6.7-6.8 12.5-6.8 12.7 0 .2-1.9 3.7-4.2 7.7-2.4 4-5.3 9.3-6.6 11.8-1.2 2.5-2.7 5.2-3.2 6-1.1 1.6-7.4 13.1-14.3 26-2.2 4.1-4.3 7.9-4.7 8.5-.4.5-3.1 5.5-6 11s-5.6 10.4-6 11c-.4.5-2.6 4.4-4.8 8.5-2.2 4.1-5.1 9.5-6.4 12-1.4 2.5-4 7.2-5.8 10.5-1.8 3.3-4.4 8-5.8 10.5-1.3 2.5-7 12.8-12.5 23s-10.8 19.8-11.8 21.5c-.9 1.6-3.4 6.1-5.4 10-2.1 3.8-12.6 23.2-23.5 43-10.8 19.8-24.3 44.5-30 55-5.6 10.4-11.5 21.2-13 24-1.5 2.7-4.2 7.7-6 11-7.9 14.7-10.3 19.1-11 20-.4.5-3.3 5.9-6.5 12-3.2 6-6.7 12.6-7.8 14.5-2 3.6-18.4 33.7-24.5 45-1.9 3.6-5 9.1-6.8 12.3-1.9 3.2-3.4 6-3.4 6.2 0 .3-2.5 5.1-5.6 10.7-3.1 5.7-6.8 12.3-8.2 14.8-1.3 2.5-3.9 7.2-5.7 10.5-13.9 25.6-23.3 43-26.3 48.5-3 5.7-9.7 17.9-18.2 33.5-1.5 2.7-4.2 7.7-6 11-1.8 3.3-4.5 8.4-6.1 11.2-4.6 8.5-22.2 40.6-29.7 54.3-1.9 3.6-5.6 10.3-8.2 15-2.6 4.7-6.4 11.6-8.5 15.5-2.1 3.8-6.3 11.5-9.3 17-3 5.5-7.3 13.4-9.5 17.5s-4.3 7.9-4.7 8.5c-.7 1-4.2 7.5-11.5 21-3.9 7.3-5.6 10.4-12.2 22-2.2 3.8-5.8 10.4-8 14.5-7.8 14.4-10.6 19.5-13.9 25.3-1.9 3.2-3.4 6-3.4 6.3 0 .2-1 2.1-2.3 4.2-1.3 2-4.2 7.1-6.4 11.2s-5.2 9.5-6.5 12c-1.4 2.5-4 7.2-5.8 10.5-1.8 3.3-4.1 7.3-5 9-.9 1.6-3.2 5.7-5 9-1.8 3.3-4.1 7.3-5 9-3.9 7.1-8.1 14.6-12.9 23.5-2.8 5.2-5.6 10.2-6.1 11-.5.8-3 5.3-5.6 10-2.6 4.7-5.7 10.3-6.9 12.5-1.2 2.2-3.6 6.5-5.2 9.5-1.7 3-7.4 13.3-12.7 22.9-5.3 9.5-9.6 17.5-9.6 17.7 0 .3-1 2.1-2.3 4.2-1.3 2-4.5 7.7-7.2 12.7-2.6 4.9-5.1 9.4-5.5 10-.4.5-2.5 4.4-4.7 8.5s-5.3 9.7-6.8 12.5c-1.5 2.7-5.1 9.3-8 14.5-2.9 5.2-6.9 12.6-9 16.5-2.1 3.8-9 16.4-15.3 28-6.3 11.5-12.7 23.2-14.2 26-7.2 13.2-21.6 39.5-24 44-1.5 2.7-8.2 15.1-14.9 27.5-6.7 12.4-12.7 23.4-13.3 24.5-1.6 2.7-23.4 42.9-29.3 54-2.6 4.9-6.7 12.4-9 16.5s-4.5 8.2-4.8 9c-2.3 5.1-10.5 19.2-11.2 19.3-.7.2-15-24.8-30.9-53.8-1.8-3.3-11.3-20.4-21.1-38s-19-34.3-20.5-37c-1.5-2.8-6.2-11.3-10.5-19-4.3-7.7-9.2-16.5-10.8-19.5-1.7-3-4.1-7.3-5.4-9.5-1.3-2.2-3.5-6.3-4.9-9-1.4-2.8-3.1-5.9-3.7-7-.7-1.1-3.4-6.1-6.1-11-5-9.2-5.6-10.3-12-21.3-2-3.5-3.6-6.6-3.6-6.9 0-.2-1.7-3.5-3.9-7.1-2.1-3.7-9.2-16.4-15.6-28.2-6.5-11.8-15-27.4-19-34.5-3.9-7.2-8.5-15.5-10.2-18.5-5.8-10.6-20.6-37.5-23.1-42-1.3-2.5-4-7.4-6-11-1.9-3.6-4.2-7.9-5.2-9.5-1-1.7-3.7-6.6-6-11-2.4-4.4-5.2-9.6-6.3-11.5-1.1-1.9-3.3-6-5-9-1.6-3-4-7.3-5.2-9.5-1.2-2.2-3.6-6.5-5.2-9.5-1.7-3-9.6-17.4-17.5-32-8-14.6-16.7-30.6-19.3-35.5-2.6-5-5.1-9.5-5.5-10-.4-.6-2.9-5.1-5.5-10-2.7-5-6.5-12.1-8.7-15.8-2.1-3.8-3.8-7-3.8-7.2 0-.2-1.5-3-3.4-6.2-3.5-6.1-7.9-14.2-15.3-28.3-2.5-4.7-4.9-9-5.3-9.5-.4-.6-2.9-5.1-5.5-10-2.7-5-5.8-10.8-7-13-5-9.1-8.5-15.5-13-24-2.6-5-5.1-9.5-5.5-10-.4-.6-3.3-6-6.5-12-3.2-6.1-7.1-13.2-8.7-15.8-1.5-2.6-2.8-5-2.8-5.2 0-.3-2.2-4.4-4.8-9.2-5-9.1-8.8-16-16.2-29.8-2.4-4.4-8.2-15.2-13-24-4.8-8.8-10.6-19.6-13-24-2.3-4.4-5.5-10.3-7-13-4.4-8.1-9.4-17.3-15-28-2.9-5.5-5.6-10.5-6-11-.4-.6-2.9-5.1-5.5-10-7.9-15-12.7-23.8-14.5-27-1-1.7-4.3-8-7.5-14-7.3-14-12.1-22.8-15.2-28.4-2.4-4.1-2.5-5-2.6-22.5-.1-59.3 2.2-297.5 3.8-387.1.4-24.9.7-38.4 2-104.5.3-12.9.7-34.1 1-47 .3-12.9.7-33 1-44.5.2-11.6.7-29.8 1-40.5.3-10.7.7-28.7 1-40 1.3-46.5 2.3-82.1 3-104 .3-7.4.7-22.3 1-33 .3-10.7.7-25.8 1-33.5.3-7.7.7-20.7 1-28.9.3-8.2.7-15.1.9-15.3 1.2-1.2 69.6-22.9 78.5-24.8 1.1-.3 3-.7 4.1-.9 1.1-.3 2.4-.7 2.8-1 .5-.3 1.9-.7 3.3-1 1.3-.3 4.2-1 6.4-1.6 2.2-.6 5.4-1.3 7-1.6 1.7-.3 3.8-1 4.8-1.5.9-.5 1.7-.7 1.7-.5 0 .3 1.1.1 2.6-.4 1.4-.6 3.9-1.2 5.5-1.5 1.7-.3 7-1.5 11.7-2.6 4.8-1.1 9.8-2.3 11.2-2.5 1.4-.3 5.4-1.2 9-2 3.6-.8 7.6-1.7 9-1.9 1.4-.2 7-1.3 12.5-2.5 5.5-1.1 11.4-2.2 13-2.5 1.7-.2 4.2-.6 5.5-.9 1.4-.3 3.9-.8 5.5-1.1 15-2.5 22.6-3.7 26-4.1 2.2-.3 6.3-.9 9-1.4 2.8-.5 6.8-1.1 9-1.4 2.2-.2 7.6-.9 12-1.5 10.4-1.3 15.1-1.9 26-3 12.5-1.3 28.6-2.8 41-3.7 13.1-.9 18.3-1.2 34.5-1.9 8.5-.4 15.6-.8 15.8-1 .5-.4 89.4.3 96.2.9zM679.7 762.2c.1 2.1 1.3 43.6 1.8 64.8.9 30.6 1.5 56.6 1.9 81l.5 22.5-31-62.4c-24.8-50-30.7-62.7-29.7-63.6 2.4-2.2 26.3-21.1 32.3-25.6 3.3-2.4 6.6-5 7.5-5.6 2.2-1.8 16.3-12.3 16.5-12.3.1 0 .2.6.2 1.2zm-339 380.5c-.3.5-.7 3.1-1.1 5.9-.6 5.3-2.5 20.5-5.2 40.9-.3 2.2-.7 5.1-.9 6.5-.2 1.4-.6 4.7-1 7.5-.7 6.3-1.5 12.3-2 15.5-.2 1.4-.7 5.1-1 8.3-.4 3.2-.8 6.8-1.1 8-.2 1.2-.7 4.6-1 7.6-.3 3-.7 6.2-.9 7-.1.9-.6 4.1-1 7.1-.3 3-.8 6.6-1 8-.3 1.4-.7 4.7-1 7.5-.3 2.7-.8 6.1-1 7.5-.2 1.4-.6 4.3-.9 6.5-1.2 9-1.7 13.1-2.1 15.5-.2 1.4-.7 5-1 8-.3 3-1 8.2-1.5 11.5-.5 3.3-1.2 7.8-1.4 10-.4 3.3-2.2 16.1-4.1 30-.2 1.6-.9 6.8-1.5 11.5s-1.3 10.1-1.6 12c-.3 1.9-.6 4.2-.6 5 0 .8-.4 3.5-.8 6-.5 2.5-1.2 7.2-1.5 10.5-.4 3.3-.8 6.7-1 7.5-.6 3.5-1.9 12.9-3 21.5-.4 2.7-.8 6.1-1 7.5-.2 1.4-.7 4.5-1 7-.3 2.5-.8 5.6-1 7-.2 1.4-1.1 7.9-2 14.5-.9 6.6-1.8 13.1-2 14.5-.5 3.4-1.3 9.7-2 14.5-.3 2.2-.7 5.1-1 6.5-.2 1.4-.7 4.7-1 7.5-.3 2.7-.8 6.3-1 8-.3 1.6-1.2 7.9-2 14-.9 6-1.8 12.1-2 13.5-.2 1.4-.6 4.7-1 7.5-.3 2.7-.9 7.5-1.4 10.5-.6 3-1.3 7.7-1.6 10.5-1.2 9.5-1.6 12-2 14.5-.3 1.4-1.2 7.7-2 14s-1.7 12.4-1.9 13.5c-.2 1.1-.7 4.2-1 7-.4 2.7-.9 6.1-1.1 7.5-1.1 7.5-1.4 10-2 14.5-.4 2.7-.8 5.7-1 6.5-.2.8-.6 3.3-.9 5.5-.5 4-5.3 37.7-6.1 42.5-.5 3.6-2.5 17-3 20.5-.2 1.6-.8 6.1-1.4 10-.6 3.8-1.3 8.8-1.6 11-.3 2.2-.8 5.1-1 6.5-.2 1.4-.7 4.5-1 7-.3 2.5-.8 5.6-1 7-.2 1.4-.7 4.3-1 6.5-.3 2.3-.7 5.1-1 6.4-.2 1.3-.7 4.9-1 8-.4 3.1-.8 6.3-1 7.1-.4 1.3-1.6 9.1-3 19.3-1.2 8.3-1.7 11.8-2.6 17.7-.6 3.6-1.2 7.8-1.4 9.3-.8 5.3-1.6 11.2-2.6 17.7-1.2 8.2-1.6 10.4-2.4 16-.8 5.6-1.5 9.8-2 13-.2 1.4-.7 4.5-1 6.9-.3 2.3-.7 5.5-1 7-.4 2.3-6.2 40.4-6.9 45.6-.2 1.1-.7 4.5-1.1 7.5-.5 3-.8 5.9-.6 6.5.2.7-.1.7-.7 0-.8-.8-7-27.8-9.7-42-1.2-6.7-7.4-43.3-8-47.5-.8-5.5-1.4-9.7-2-13-.2-1.4-.6-4.5-.9-7-.3-2.5-1-8.3-1.5-13-1.3-11-1.8-15.9-2.6-24.5-.4-3.9-.8-8-1-9.3-.2-1.2-.7-7.3-1-13.5-.4-6.1-.9-12-1.1-13-2.6-13.7-2.5-122.6.1-154.7.2-3 .7-9.1 1-13.5 1.1-14.9 4.4-46.9 6-57.5.4-2.9 1.4-9.8 2.1-15.5.2-2.2.9-6.3 1.4-9 .5-2.8 1.1-6.8 1.4-9 .3-2.2.8-5.4 1.1-7 .3-1.7 1.7-9.3 3.1-17 3-16.9 7.5-38.6 11-53.2 1.4-6 2.7-11.6 2.9-12.6.2-1 .7-2.7 1-3.7.3-1 .7-2.7.9-3.7.2-1 1.2-4.7 2.1-8.3l2-8c1.5-7.6 15.5-53.2 23.5-76.5 9.5-27.7 24.9-67.3 33.5-86 1.2-2.8 3.7-8.4 5.5-12.5 4-9.4 31.7-65.3 36.6-74 2-3.6 4.5-8.2 5.6-10.3 1.1-2 2.2-3.7 2.5-3.7.2 0 .2.3 0 .7zm155.8 23.8c2.3 4.4 11.5 22.4 20.5 40 8.9 17.6 20.4 40.1 25.5 50 5.1 9.9 14.8 28.8 21.5 42 6.7 13.2 15.7 30.7 20 39 4.3 8.2 13.3 25.8 20 39 6.7 13.2 14.8 28.9 18 35 3.1 6 11.5 22.2 18.6 36 7 13.7 15.2 29.5 18 35 2.9 5.5 7.3 14 9.8 19 2.5 4.9 8.7 16.9 13.7 26.5l9.1 17.5-.1 198.5c-.2 308.9-1.6 472.2-5.6 660.5-.3 13.2-.7 33.9-1 46-.8 36.4-1.5 68-2 86-.2 9.3-.7 28.5-1.1 42.5-.3 14-.7 30-.9 35.5-.2 5.5-.5 13.7-.5 18.3-.2 6-.5 8-1.4 7.4-.6-.5-5.8-4.4-11.6-8.7-11-8.2-32.1-24.5-33-25.5-.3-.3-3.9-3.2-8-6.5-10.5-8.3-37.2-31.3-49.9-43-15.4-14.1-21.6-20.1-41.1-39.5-27.2-27.3-34.4-35.2-67.8-73.7-16.9-19.5-47.2-59.2-65.3-85.3-22.4-32.3-43.4-65.4-42.5-66.9.2-.3.7-4.2 1.1-8.6.4-4.4.8-9.4 1-11 .2-1.7.7-6.4 1-10.5.4-4.1.8-9.1 1-11 .2-1.9.6-6.4 1-10 1.2-13.7 1.6-17.6 2-20.5.2-1.7.6-6.6 1-11s.8-9.1 1-10.5c.2-1.4.7-6.1 1-10.5.4-4.4.8-8.7 1-9.5.2-.8.6-5.3 1-9.9.4-4.7.8-9.2 1-10 .2-.9.6-5.4 1-10 .4-4.7.8-9.2 1-10 .2-.9.6-5.4 1-10 .4-4.7.8-9.2 1-10 .1-.9.6-5.2.9-9.6.4-4.4.9-9.4 1.1-11 .2-1.7.7-5.7 1-9 .3-3.3.8-7.9 1-10.3 1.2-10.4 1.5-13.1 2-19.7.3-3.9.8-7.7 1-8.5.2-.8.7-5.3 1-10 .4-4.7.8-9.6 1-11 .2-1.4.6-5.4 1-9 .6-6.7 1.2-11.8 2-18 .2-1.9.7-6.4 1-10 .7-7.3 1.2-12.8 2.1-19.8.3-2.6.7-6.3.9-8.3.7-7.7 1.6-16.5 2-18.9.2-1.4.7-5.4 1-9 .3-3.6.8-8.1 1-10 .3-1.9.7-6.4 1-10 .3-3.6.8-7.2 1-8 .2-.8.7-5.3 1-9.9.4-4.7.8-8.7 1-9 .1-.4.6-4 .9-8.2.4-4.2.9-8.7 1.1-10 .2-1.3.6-4.9 1-7.9.3-3 .7-6.9.9-8.5.3-1.7.7-6.4 1.1-10.5.3-4.1.8-8.2 1-9 .2-.8.7-4.9 1-9 .4-4.1.8-8.2 1-9 .2-.8.6-4.9 1-9s.8-8.2 1-9c.2-.8.6-4.9 1-9s.9-8.3 1.1-9.3c.2-1 .6-4.6.9-8 .3-3.4.8-7.3 1-8.7.2-1.4.7-5.4 1-9 .3-3.6.7-7.6 1-9 .6-4.1 1.9-15 4.5-38.5 1.8-16.1 2.1-19 2.5-21.5.2-1.4.7-5.4 1-9 .4-3.6.9-7.3 1-8.2.2-.9.7-4.8 1-8.5.4-3.7.9-7.6 1.1-8.6.2-1 .6-4.8 1-8.5.3-3.6.7-7.4.9-8.4.2-.9.7-4.8 1-8.5.4-3.7.8-7.5 1-8.3.2-.8.7-4.7 1.1-8.5.3-3.9.8-7.8 1-8.9.2-1 .6-4.4.9-7.5.4-3.1.8-6.3 1-7.1.3-.8.7-5.1 1.1-9.5.3-4.3.8-8.8 1-10 .2-1.1.6-4 .9-6.5.6-5.8 1.5-13.8 2-17 .2-1.4.7-5.4 1-9 .4-3.6.9-7.2 1-8 .1-.8.6-4.4 1-8 .3-3.6.8-7.6 1-9 .2-1.4.7-5 1-8 .5-5.1 1.9-16.8 3-25 .2-1.9.6-5.8.9-8.5.6-5.3 1.6-13.4 2.1-17.5.4-2.4 1.5-13.1 2-17.5.3-3.3 1.6-13.8 2.1-17.5.3-1.9.7-5.5 1-8 .2-2.5.6-5.9.8-7.5.3-1.7.8-5.7 1.1-9 .4-3.3.8-7.1 1.1-8.5.2-1.4.6-5.4 1-9 .3-3.6.7-7.2.9-8 .2-.8.6-4.4 1-8 .4-3.6.9-7.9 1.1-9.5.2-1.7.6-5.5.9-8.5.3-3 1-8.9 1.5-13s1.2-9.8 1.5-12.5c.3-2.8 1-8.4 1.5-12.5s1.2-10.2 1.5-13.5c.4-3.3.8-7.1 1.1-8.5.2-1.4.6-5.4.9-9 .4-3.6.8-7.2 1-8 .2-.8.7-4.7 1.1-8.5.3-3.9.8-7.7.9-8.5.2-.8.6-4.7 1-8.5.4-3.9.9-7.7 1-8.5.2-.8.6-4.4 1-8 .3-3.6.8-7.6 1-9 .2-1.4.7-5.7 1.1-9.5.3-3.9.8-7.7.9-8.5.2-.8.6-4.4 1-8 .4-3.6.9-7.9 1.1-9.5.2-1.7.6-5.9 1-9.5.3-3.6.8-6.9 1.1-7.3.3-.4 1.9-.7 3.6-.5 2.8.3 3.5 1.1 7.2 8.3zm1835.1-6.8c.1 1 .4 4.3.8 7.3s.9 7.3 1.2 9.5c.2 2.2.7 5.1.9 6.5.2 1.4.7 5.2 1 8.5.4 3.3.9 7.3 1.1 9 .1 1.6.5 5.1.8 7.8.3 2.6.8 6 1 7.5.3 1.5.8 5.2 1.1 8.2.3 3 .8 6.6 1 8 .2 1.4.6 5 1 8 .3 3 .8 7.1 1 9 .3 1.9.7 5.5 1 8 .6 4.9 1.3 10.5 2 16 .3 1.9.7 5.7 1 8.5.3 2.7.8 6.6 1 8.5.5 3.8 1.2 9.9 2 17 .3 2.5.8 6.4 1.1 8.7.3 2.4.7 5.7.9 7.5.3 3.5 5.2 45.3 5.9 50.3.5 3.3 1.9 16.1 2.1 18.5.1.8.4 3.7.8 6.5.3 2.7.9 7 1.1 9.5.3 2.5 1 8.5 1.6 13.5 1.8 15.4 2.8 24.8 3.5 31.5.3 2.5.7 6.3 1 8.5.2 2.2.7 6.2 1 9 .3 2.7.7 6.6 1 8.5.2 1.9.7 6 1 9 .3 3 .8 7.1 1 9 .2 1.9.7 5.7 1 8.5.3 2.7.7 6.8.9 9 .3 2.2.8 6.5 1.1 9.5.3 3 .8 7.3 1.1 9.5.9 7.3 1.3 10.9 1.9 17.5.4 3.6.8 7.6 1 9 .2 1.4.6 5.4 1 9 .4 3.6.8 7.6 1 9 .2 1.4.6 5.6 1 9.3.3 3.7.8 7.6 1 8.5.1.9.6 5.3 1 9.6s.8 8.6 1 9.6c.2.9.6 5 1 9.1.3 4.1.8 8.5 1 9.9.2 1.4.6 5.6 1 9.5.3 3.8.8 8.1 1 9.5.2 1.4.6 5.6 1 9.5.3 3.8.8 8.1 1 9.5.2 1.4.6 5.6 1 9.5.3 3.8.8 8.1 1 9.5.2 1.4.6 5.4 1 9 .3 3.6.7 7.8.9 9.5.3 1.6.7 6.4 1.1 10.5.3 4.1.8 8.8 1 10.5.2 1.6.7 5.7 1 9 .3 3.3.7 7.6 1 9.5.2 1.9.7 6.6 1 10.5.3 3.8.8 8.1 1 9.5.2 1.4.6 6.1 1 10.4.4 4.3.8 8.6 1 9.5.1.9.6 5.6 1 10.4.3 4.9.8 9.8 1 11 .2 1.2.6 5.3 1 9.2.3 3.8.8 8.6 1 10.5.2 1.9.6 6.4 1 10 .3 3.6.8 8.1 1 10 .2 1.9.7 6.4 1 10 .3 3.6.8 8.5 1 11 .3 2.5.7 7.2 1 10.5.3 3.3.7 7.6 1 9.5.2 1.9.6 6.6 1 10.5.3 3.8.8 8.8 1 11 .6 5.3 1.5 15.6 2.1 23 .2 3.2.6 7.1.9 8.5.2 1.4.7 6.5 1 11.5.4 4.9.9 9.7 1 10.6.2.8.6 5.5.9 10.5.4 4.9.9 10.5 1.1 12.4.3 1.9.7 6 1 9 1.4 16.7 1.7 20.6 2 22 .2.8.6 6.2 1 12s.9 10.7 1 11c.2.3.6 4.5.9 9.5.4 4.9.8 11 1.1 13.5.5 5.5 1.2 13.6 1.9 21.5.3 3.3.8 8.6 1.1 11.7.3 3.2.7 8.4 1 11.5.3 3.2.7 8 1 10.8 1.2 12 1.4 14.4 2 22 .3 4.4.7 9.6 1 11.5.2 1.9.6 6.9 1 11 .3 4.1.8 9.5 1 12 .3 2.5.7 7.7 1 11.6.3 4 .7 8.7 1 10.5.2 1.9.6 7 1 11.4.3 4.4.7 9.6 1 11.5.2 1.9.7 7 1 11.4.4 4.3.8 9.3 1 11 .2 1.7.7 6.9 1 11.6.3 4.7.7 10.5 1 13 .3 4.1-.2 5.5-6.8 16.5-4 6.6-7.6 12.7-8.2 13.7-18.4 31.2-56.8 85.7-85.4 121.3-9.4 11.7-29.1 35.2-32.3 38.7-.7.7-3.1 3.3-5.2 5.8-22.6 25.9-72.8 76.3-98.1 98.5-4.4 3.8-8.9 7.8-10 8.9-5.2 4.8-38.2 32.1-48.5 40.1-6.3 4.9-11.9 9.3-12.5 9.8-19.4 15.4-62.1 44.9-94 64.8-53 33.1-112.6 64.2-165.5 86.4-7.4 3.1-14.4 6-15.5 6.5-5.5 2.5-41.7 16.5-46.5 18-1.4.5-9 3.1-17 6-22.9 8.1-75.4 24.1-90 27.5-.8.2-6.2 1.5-12 3s-11.6 2.9-13 3.1c-1.4.3-5 1.1-8 1.9-8 2-41.7 9.2-47 10-2.4.4-4.7.8-5 1-.3.2-2.3.6-4.5.9-2.2.4-6.5 1.1-9.5 1.6s-7.1 1.2-9 1.5c-1.9.3-5.7 1-8.5 1.5-2.7.5-7.2 1.2-10 1.6-2.7.3-5.8.8-6.9 1-1 .2-4.4.6-7.5.9-3.1.4-6.3.8-7.1 1-.8.2-4 .7-7 1-3 .3-6.8.9-8.5 1.1-1.6.3-5.2.7-8 .9-2.7.3-6.6.7-8.5.9-3.5.5-10.2 1.2-21 2.1-3 .3-8 .7-11 1-5.3.5-14 1.1-28.5 2-3.8.2-14.6.7-24 1-9.3.4-17.2.9-17.5 1-.3.2-1.2 0-2-.5-1.1-.7.2-4.5 7-19.2 4.5-10.1 9.4-20.8 10.8-23.8 1.3-3 4.2-9.3 6.3-13.8 2.2-4.6 3.9-8.5 3.9-8.7 0-.2 2.4-5.4 5.4-11.6 5.8-12.4 8.8-18.8 13.5-29.2 7.8-16.9 9.5-20.7 12.8-27.7 2-4.1 4.8-10.2 6.3-13.5 1.5-3.3 5.1-11 8-17 2.9-6.1 6.8-14.4 8.7-18.5 1.9-4.1 5.1-10.9 7.1-15s3.6-7.8 3.5-8.2c-.2-.3.4-1.2 1.2-1.8.8-.7 1.5-1.7 1.5-2.3 0-1.1.8-2.9 13.5-29.2 4.8-9.9 10-20.7 11.5-24 1.5-3.3 7.8-16.4 14-29 6.1-12.7 15.2-31.5 20.3-42 13.1-26.9 91.1-183 107-214 20.4-39.7 40.6-78.9 50.7-98 2.6-5 7.3-14 10.5-20 7.7-14.7 14.9-28.3 20-38 2.3-4.4 6.6-12.5 9.5-18 2.9-5.5 6.5-12.3 8-15 1.5-2.8 4.9-9.1 7.5-14 10.6-20 20-37.5 33.1-61.7 2.5-4.6 5.2-9.9 6.2-11.8.9-1.9 2-3.7 2.5-3.8.4-.2.7-.7.7-1.1 0-.5 3.6-7.5 8.1-15.7s9.7-17.8 11.6-21.4c2-3.6 7.6-13.9 12.5-23 5-9.1 10.3-18.8 11.8-21.5 3-5.6 2.4-4.5 30-55 11.1-20.4 20.6-37.9 21.1-39 .5-1.1 1.7-3.4 2.7-5 2-3.2 5.9-10.2 12.5-22.5 2.2-4.1 7.1-13 10.9-19.7 3.7-6.8 6.8-12.7 6.8-13.1 0-.4.6-1.4 1.3-2.1.6-.6 1.2-1.5 1.2-1.9 0-.4.8-1.8 1.7-3.2 1.3-2.1 13-23.5 28.8-52.5 1.8-3.3 4.3-7.8 5.5-10 1.2-2.2 3.6-6.6 5.4-9.8 4.6-8.5 7.5-13.8 22.3-40.7 7.4-13.5 14.8-27 16.5-30 1.7-3 6.6-12 11-20 13.8-24.9 41.5-75.2 44.6-81 1.7-3 5-9.1 7.5-13.5s5.8-10.3 7.2-13c4.4-8.2 9.2-16.8 11-20 1-1.7 3.1-5.5 4.8-8.5 2.9-5.4 29.2-53.1 38.9-70.5 2.8-5 6.7-12.2 8.8-16 2.1-3.9 4.1-7.5 4.5-8 .4-.6 2.3-3.9 4.2-7.5 2-3.6 4.7-8.5 6.1-11 7.9-14.1 47.5-85.5 50.5-91 1.9-3.6 8.6-15.5 14.7-26.5 6.2-11 12.6-22.5 14.2-25.5 1.7-3 4-7.3 5.3-9.5 7.1-12.6 30.5-54.6 38-68.2 4.3-7.9 4.6-8.3 8-8.3 2.7 0 3.6.4 3.6 1.7zM986 2109.5c5.1 9.9 11.2 21.6 13.5 26 2.3 4.4 7.9 15.2 12.5 24 15 29 23.2 44.8 29.5 57 3.4 6.6 13.2 25.7 21.8 42.5 8.6 16.8 21.7 42.4 29.1 57 13.6 26.6 158.8 316.5 158.5 316.5-.1 0 6.5 13.5 14.6 30 34.4 70.1 46.2 94.1 74.1 151.4 6 12.4 14.8 30.4 19.5 40 7.1 14.6 8.3 17.7 7 18.2-.9.4-1.9.5-2.2.3-.3-.2-8.2-.6-17.5-.9-9.3-.3-18.9-.8-21.4-1-2.5-.2-8.5-.7-13.5-1-19.1-1.3-33.3-2.5-36.5-3-1.4-.2-6.1-.7-10.5-1-4.4-.4-8.7-.8-9.5-1-.8-.2-4-.7-7-1-6.4-.7-12.4-1.4-16-2-1.4-.2-7.6-1.1-13.9-2-6.2-.8-12.3-1.7-13.5-2-1.1-.2-3.7-.7-5.6-1-1.9-.2-8.9-1.4-15.5-2.6-6.6-1.1-12.9-2.2-14-2.4-5.2-.9-9.1-1.6-10.5-2-.8-.2-2.8-.7-4.5-1-1.6-.2-4.1-.7-5.5-1-1.4-.3-4.7-1-7.5-1.5-7.2-1.4-16.5-3.6-37-8.7-9.9-2.5-18.9-4.7-20.1-4.9-1.1-.2-8.5-2.2-16.5-4.5-7.9-2.2-15.1-4.2-15.9-4.4-7.1-1.5-59.9-19-61.1-20.2-.7-.7-1.2-11.1-2.4-50.2-.2-6.2-.6-19.5-1-29.5-.3-9.9-.8-24.9-1-33.1-.2-8.3-.7-23.6-1-34-.4-10.5-.8-25.1-1-32.5-.2-7.4-.6-23.4-.9-35.5-.6-21.7-1-37-2.1-78-.7-30.3-1.9-85.8-3-143.5-.3-16.2-.8-39.9-1-52.5-1-49.5-2.9-215.4-2.5-224 0-1.9 1.9 1.3 11 19z"/></svg>