<?xml version="1.0" standalone="no"?>
<!DOCTYPE svg PUBLIC "-//W3C//DTD SVG 20010904//EN"
 "http://www.w3.org/TR/2001/REC-SVG-20010904/DTD/svg10.dtd">
<svg version="1.0" xmlns="http://www.w3.org/2000/svg"
 width="959.000000pt" height="959.000000pt" viewBox="0 0 959.000000 959.000000"
 preserveAspectRatio="xMidYMid meet">
<metadata>
Created by potrace 1.11, written by Peter Selinger 2001-2013
</metadata>
<g transform="translate(0.000000,959.000000) scale(0.100000,-0.100000)"
fill="#000000" stroke="none">
<path d="M2911 8944 c-168 -29 -330 -151 -414 -311 -51 -97 -67 -167 -68 -297
-1 -151 20 -223 103 -351 33 -51 139 -154 189 -184 29 -17 159 -71 159 -66 0
2 15 -1 33 -6 17 -5 87 -10 153 -9 113 0 125 2 180 29 33 15 75 33 94 40 32
10 47 20 121 84 51 44 173 227 152 227 -5 0 -2 4 6 9 23 15 37 111 34 236 -2
126 -5 150 -16 161 -4 4 -7 18 -7 30 0 12 -7 29 -15 38 -8 8 -15 22 -15 30 0
9 -5 16 -11 16 -5 0 -8 4 -5 9 9 14 -48 94 -107 152 -69 67 -160 123 -247 150
-77 24 -219 30 -319 13z"/>
<path d="M7539 7408 c-7 -13 -157 -288 -334 -613 -177 -324 -327 -600 -333
-612 -11 -20 -21 -12 -179 146 -292 290 -552 476 -898 642 -328 157 -655 252
-1035 301 -128 16 -595 16 -735 -1 -142 -17 -372 -62 -505 -100 -60 -17 -107
-25 -110 -20 -4 5 -46 3 -106 -7 -258 -40 -422 -41 -639 -4 -66 11 -125 20
-130 20 -6 0 -10 -22 -8 -52 1 -29 5 -130 9 -224 l7 -171 -46 -32 c-25 -17
-47 -31 -49 -31 -2 0 -89 173 -193 385 l-190 384 -85 1 -86 0 -18 -177 c-36
-359 -116 -1063 -141 -1251 -16 -111 -16 -113 -79 -210 -357 -550 -540 -1268
-495 -1937 17 -244 61 -490 126 -705 l35 -115 -16 -115 c-22 -162 -153 -1006
-272 -1743 -24 -153 -44 -286 -44 -296 0 -18 12 -19 252 -17 139 0 287 -1 328
-4 l75 -5 2 115 c3 166 20 458 48 825 31 406 33 419 51 404 8 -6 14 -15 14
-20 0 -14 158 -204 252 -305 139 -147 309 -301 448 -404 19 -14 45 -34 58 -46
l25 -21 -9 -197 c-5 -109 -6 -200 -2 -202 3 -2 60 0 125 6 141 13 470 12 605
0 54 -5 132 -21 175 -34 182 -58 370 -98 573 -122 143 -17 544 -22 680 -9 639
60 1232 300 1729 699 135 108 353 315 414 393 20 27 55 71 78 98 42 51 52 64
113 146 109 145 234 361 318 549 26 58 48 102 48 99 0 -3 13 -156 30 -340 29
-327 99 -1159 124 -1472 7 -86 15 -159 18 -162 2 -2 31 0 64 5 72 12 689 12
759 0 28 -4 53 -5 57 -2 3 4 -9 117 -28 252 -98 713 -142 1062 -244 1940 -11
91 -28 242 -39 335 -11 94 -38 330 -61 525 -22 195 -47 411 -55 480 -8 69 -19
166 -25 215 -13 112 -70 640 -105 960 -40 384 -75 700 -90 835 -8 69 -19 170
-25 225 -19 182 -91 790 -95 803 -3 8 -25 12 -64 12 -52 0 -62 -3 -72 -22z
m-2779 -163 c346 -43 608 -113 910 -243 405 -173 776 -435 1075 -758 90 -97
97 -107 87 -129 -6 -13 -73 -138 -148 -277 -75 -139 -169 -314 -209 -388 -40
-74 -88 -164 -107 -200 -55 -102 -337 -629 -428 -800 -129 -242 -289 -540
-455 -845 -131 -241 -220 -406 -410 -760 -21 -38 -66 -122 -100 -185 -34 -63
-95 -176 -135 -250 -40 -74 -75 -138 -79 -143 -4 -4 -27 30 -51 75 -24 46 -62
117 -85 158 -36 63 -493 909 -622 1150 -146 272 -430 806 -508 955 -32 61 -80
152 -108 204 l-50 94 6 461 c4 253 13 623 21 821 8 198 18 439 21 535 8 252
24 388 45 400 21 11 269 73 375 94 101 19 218 35 315 43 41 3 77 7 79 9 2 2
86 4 185 4 133 0 233 -7 376 -25z m-2211 -602 c-1 -21 1 -81 5 -133 l7 -95
-46 94 c-25 52 -44 101 -43 109 2 8 18 22 35 32 18 9 30 20 26 24 -3 3 -1 6 6
6 7 0 11 -14 10 -37z m-864 -1055 c-81 -627 -178 -1331 -275 -1988 -28 -190
-56 -382 -62 -428 -7 -45 -15 -79 -19 -75 -24 25 -107 411 -124 578 -4 39 -9
79 -11 90 -12 65 -15 380 -5 520 41 548 210 1059 501 1513 24 37 23 9 -5 -210z
m551 -173 c64 -126 172 -340 240 -473 l124 -244 -2 -931 c-2 -1049 -9 -1441
-33 -1842 -3 -44 -7 -156 -10 -250 -7 -192 -12 -238 -26 -233 -19 6 -153 113
-270 216 -107 93 -257 249 -334 346 -16 21 -35 43 -40 50 -28 31 -86 107 -117
152 l-34 51 12 149 c7 82 18 194 24 249 6 55 17 170 25 255 8 85 28 288 45
450 17 162 35 336 39 385 5 50 20 187 34 305 15 118 47 393 72 610 25 217 50
435 55 485 6 49 17 156 25 237 17 180 35 282 46 271 4 -4 60 -111 125 -238z
m4878 93 c10 -84 24 -200 31 -258 60 -458 205 -1895 230 -2275 8 -110 5 -120
-71 -282 -440 -933 -1322 -1615 -2314 -1792 -486 -87 -924 -73 -1390 44 -208
52 -185 26 -198 212 -7 87 -17 271 -23 408 -6 138 -12 273 -14 302 -9 127 -26
978 -23 1168 l3 210 103 -200 c166 -323 892 -1783 990 -1990 l89 -190 47 0 47
0 31 70 c17 39 58 131 93 205 34 74 73 158 85 185 225 499 655 1374 909 1850
27 50 70 131 96 180 44 82 310 577 458 850 32 61 86 162 120 225 33 63 71 132
84 152 13 21 23 39 23 42 0 2 20 39 44 82 23 44 65 120 91 169 50 93 307 563
342 625 11 19 34 63 53 98 18 34 36 62 40 62 4 0 15 -69 24 -152z"/>
</g>
</svg>
