<?xml version="1.0" encoding="UTF-8" standalone="no"?>
<svg
   xmlns="http://www.w3.org/2000/svg"
   version="1.1"
   id="svg61"
   xml:space="preserve"
   width="1000"
   height="300"
   viewBox="0 0 999.99998 300"><metadata
     id="metadata67"></metadata><defs
     id="defs65"><clipPath
       clipPathUnits="userSpaceOnUse"
       id="clipPath77"><path
         d="M 0,371.28 H 841.89 V 0 H 0 Z"
         id="path75" /></clipPath></defs><g
     id="g69"
     transform="matrix(1.3333333,0,0,-1.3333333,-12.569866,310.01732)"><g
   id="g71"
   transform="matrix(0.6193623,0,0,0.6193623,3.5884239,2.8597311)"><g
     id="g73"
     clip-path="url(#clipPath77)"><g
       id="g79"
       transform="translate(120.2798,144.2598)"><path
         d="m 0,0 v 23.695 c 0,23.816 0.173,45.688 0.521,65.618 0.346,19.926 0.865,40.101 1.561,60.516 -2.255,-0.489 -5.117,-0.911 -8.583,-1.275 -3.47,-0.366 -4.721,-3.791 -8.532,-3.791 -3.817,0 -5.826,-6.949 -9.292,-6.583 -3.471,0.364 -4.358,-3.069 -6.609,-2.578 0.25,-7.411 -5.52,-0.561 -5.315,-7.909 0.361,-12.892 0.653,-25.686 0.875,-38.38 0.347,-19.93 0.52,-41.802 0.52,-65.618 V 0 c 0,-23.821 -0.173,-45.695 -0.52,-65.619 -0.219,-12.511 -0.504,-24.972 -0.859,-37.383 -0.209,-7.362 1.05,-1.508 2.086,-5.087 -0.641,2.213 11.523,-8.236 14.995,-8.236 3.466,0 3.733,-4.301 7.508,-4.851 3.836,-0.559 2.84,-1.59 6.31,-1.59 3.465,0 5.161,-1.785 7.416,-2.275 C 1.386,-105.355 0.867,-85.55 0.521,-65.619 0.173,-45.695 0,-23.821 0,0"
         style="fill:#c08d42;fill-opacity:1;fill-rule:nonzero;stroke:none"
         id="path81" /></g><g
       id="g83"
       transform="translate(102.3589,366.29)"><path
         d="m 0,0 c -15.533,0 -28.125,-12.592 -28.125,-28.123 0,-15.532 12.592,-28.124 28.125,-28.124 15.53,0 28.121,12.592 28.121,28.124 C 28.121,-12.592 15.53,0 0,0"
         style="fill:#c08d42;fill-opacity:1;fill-rule:nonzero;stroke:none"
         id="path85" /></g><g
       id="g87"
       transform="translate(339.8774,77.958)"><path
         d="m 0,0 c -2.86,23.689 -5.718,47.661 -8.571,71.916 -2.86,24.25 -5.648,48.925 -8.359,74.02 -2.718,25.089 -5.471,53.907 -8.612,80.823 h -5.648 c -7.146,-12.899 -14.958,-29.586 -23.241,-44.445 -8.291,-14.863 -16.65,-30.003 -25.074,-45.419 -8.431,-15.425 -16.716,-30.637 -24.86,-45.632 -8.143,-15.003 -15.79,-28.954 -22.929,-41.847 -7.145,-12.899 -13.434,-24.327 -18.859,-34.275 -5.43,-9.956 -9.576,-17.599 -12.429,-22.921 -22.005,39.532 -43.073,78.08 -63.218,115.655 -20.144,37.568 -40.265,79.067 -59.982,118.884 h -7.281 c -2.291,-22.436 -4.814,-48.861 -7.957,-73.673 -3.147,-24.814 -6.576,-49.982 -10.286,-75.493 -3.716,-25.515 -7.574,-50.888 -11.571,-76.121 -4.005,-25.235 -7.863,-49.206 -11.573,-71.917 4.568,0.564 9.571,0.841 15.001,0.841 5.424,0 10.427,-0.277 15,-0.841 0,11.209 0.711,25.582 2.144,43.107 1.426,17.521 3.141,36.17 5.144,55.936 1.994,19.765 4.212,39.808 6.642,60.14 2.425,20.325 4.641,39.179 6.644,56.567 h 0.857 c 18.859,-37.01 37.643,-73.251 56.361,-108.716 18.711,-35.471 35.599,-69.631 52.741,-104.959 h 5.225 c 17.145,38.128 34.893,73.416 53.898,108.323 19,34.906 38.359,70.025 58.075,105.352 h 0.858 c 4.567,-36.451 8.424,-72.199 11.571,-107.243 3.141,-35.053 6.282,-71.222 9.43,-108.507 3.429,0.564 6.784,0.841 10.071,0.841 h 10.074 10.071 c 3.281,0 6.643,-0.277 10.072,-0.841 C 6,-47.176 2.854,-23.698 0,0"
         style="fill:#000000;fill-opacity:1;fill-rule:nonzero;stroke:none"
         id="path89" /></g><g
       id="g91"
       transform="translate(172.6846,302.8105)"><path
         d="m 0,0 c -83.095,0 -150.458,-65.642 -150.458,-146.609 0,-80.972 67.363,-146.614 150.458,-146.614 83.096,0 150.461,65.642 150.461,146.614 C 150.461,-65.642 83.096,0 0,0 Z"
         style="fill:none;stroke:#c08d42;stroke-width:3.76600003;stroke-linecap:butt;stroke-linejoin:miter;stroke-miterlimit:10;stroke-dasharray:none;stroke-opacity:1"
         id="path93" /></g><g
       id="g95"
       transform="translate(317.3857,240.1797)"><path
         d="m 0,0 -22.724,15.418 7.609,-168.202 33.838,-1.345 z"
         style="fill:#000000;fill-opacity:1;fill-rule:nonzero;stroke:none"
         id="path97" /></g><g
       id="g99"
       transform="translate(286.4238,262.042)"><path
         d="m 0,0 -9.597,-17.278 18.615,-14.935 5.423,19.296 z"
         style="fill:#010101;fill-opacity:1;fill-rule:nonzero;stroke:none"
         id="path101" /></g><g
       id="g103"
       transform="translate(313.0093,91.8145)"><path
         d="m 0,0 -10.879,-4.396 0.741,-8.433 11.273,1.965 z"
         style="fill:#000000;fill-opacity:1;fill-rule:nonzero;stroke:none"
         id="path105" /></g></g></g><g
   id="text111"
   style="font-variant:normal;font-weight:normal;font-stretch:normal;font-size:119.19920349px;font-family:Optima;-inkscape-font-specification:Optima-Regular;writing-mode:lr-tb;fill:#231f20;fill-opacity:1;fill-rule:nonzero;stroke:none"
   transform="scale(1,-1)"><path
     id="path859"
     style="word-spacing:0.73500001px;opacity:1;fill:#c08d42;fill-opacity:1"
     d="m 263.12036,-87.512871 v -81.532259 l 5.24476,0.3576 5.24477,-0.3576 v 81.532259 l -5.24477,-0.357597 z" /><path
     id="path861"
     style="word-spacing:0.73500001px;opacity:1;fill:#c08d42;fill-opacity:1"
     d="m 294.11215,-87.512871 v -56.977219 l 4.76796,0.3576 4.76797,-0.3576 v 10.84713 q 3.09918,-5.48317 7.98635,-8.46315 5.00637,-3.09918 11.20472,-3.09918 10.13194,0 14.66151,5.60237 4.52957,5.60236 4.52957,17.64148 v 34.448569 l -4.76797,-0.357597 -4.76797,0.357597 v -31.706989 q 0,-9.53593 -2.38398,-14.0655 -3.09918,-5.72157 -10.84713,-5.72157 -8.82074,0 -12.51592,6.43676 -3.09918,5.48316 -3.09918,17.40308 v 27.654219 l -4.76797,-0.357597 z" /><path
     id="path863"
     style="word-spacing:0.73500001px;opacity:1;fill:#c08d42;fill-opacity:1"
     d="m 439.05837,-169.04513 h 2.50318 q 2.50319,23.72065 3.09918,29.08461 1.90719,17.52228 3.09918,27.29662 1.31119,9.65513 3.45678,25.151029 l -5.60236,-0.357597 -5.60237,0.357597 q -1.07279,-11.91992 -2.02638,-22.767049 -0.8344,-10.84713 -2.02639,-21.45586 -1.07279,-10.60872 -2.02639,-17.28388 -7.27115,13.11191 -12.63511,22.88625 -6.19836,11.44312 -10.37033,19.78707 -4.52957,9.178334 -8.22475,17.522278 h -1.31119 l -6.55595,-13.469508 q -4.29118,-8.93994 -7.62875,-15.3767 -3.33758,-6.55596 -8.22475,-15.85349 -4.17197,-7.74795 -8.22474,-15.4959 -2.02639,17.04549 -3.93358,34.44857 -1.90718,17.403084 -1.90718,27.058219 l -4.17198,-0.357597 -4.29117,0.357597 q 2.50319,-15.495899 6.55596,-43.984509 4.05277,-28.60781 4.88717,-37.54775 h 3.09917 q 6.19836,12.15832 10.13194,19.90627 4.76797,9.17834 11.32392,21.09826 7.15195,12.99271 12.27752,21.45586 17.16468,-31.23019 34.32937,-62.46039 z" /><path
     id="path865"
     style="word-spacing:0.73500001px;opacity:1;fill:#c08d42;fill-opacity:1"
     d="m 506.40591,-125.17982 v 27.654216 q 0,1.787988 0,3.456777 0.35759,2.503184 3.21838,2.503184 1.54958,0 3.45677,-0.476797 v 2.622382 q -0.59599,0.238399 -1.78799,0.715195 -1.07279,0.357598 -2.50318,0.595996 -1.31119,0.238399 -3.21838,0.238399 -3.45677,0 -5.72156,-1.668789 -2.14559,-1.668789 -2.62238,-5.602363 l -1.07279,1.072793 q -7.50955,7.50955 -17.64149,7.50955 -6.55595,0 -11.20472,-4.052773 -4.64877,-4.052773 -4.64877,-10.48953 0,-9.05914 6.79435,-12.99271 4.17198,-2.38399 15.2575,-4.17198 7.74795,-1.31119 9.77434,-2.38398 2.86078,-1.54959 2.86078,-5.60236 0,-6.67516 -3.69518,-10.25113 -3.57597,-3.69518 -10.25113,-3.69518 -5.72156,0 -10.01273,3.09918 -3.33758,2.38398 -4.17197,5.12557 h -1.3112 v -6.67516 q 4.64877,-3.21838 9.29754,-4.88717 4.76797,-1.66879 9.89354,-1.66879 19.31027,0 19.31027,20.02547 z m -9.53594,25.389432 v -17.403082 l -4.17197,0.83439 q -10.37033,2.02639 -13.11191,3.21838 -7.15196,3.21838 -7.15196,10.37033 0,5.483165 3.09918,8.343946 3.09918,2.860781 8.58235,2.860781 2.26478,0 5.00636,-1.311192 2.74158,-1.43039 4.52957,-3.218378 0.9536,-0.834395 2.02639,-1.907187 1.19199,-1.191992 1.19199,-1.787988 z" /><path
     id="path867"
     style="word-spacing:0.73500001px;opacity:1;fill:#c08d42;fill-opacity:1"
     d="m 526.19298,-87.512871 v -56.977219 l 4.76797,0.3576 4.76797,-0.3576 v 11.91992 l 0.59599,-1.43039 q 3.21838,-5.12557 6.67516,-7.86715 4.17197,-3.33758 8.34394,-3.33758 2.38399,0 3.69518,0.596 l -1.66879,10.01273 q -0.596,-0.1192 -2.50318,-0.95359 -1.90719,-0.95359 -3.09918,-0.95359 -2.02639,0 -4.17197,0.83439 -2.14559,0.7152 -3.45678,2.14559 -2.74158,3.21838 -3.57598,6.55595 -0.83439,3.33758 -0.83439,8.58235 v 30.872589 l -4.76797,-0.357597 z" /><path
     id="path869"
     style="word-spacing:0.73500001px;opacity:1;fill:#c08d42;fill-opacity:1"
     d="m 575.42222,-177.03147 v 53.40124 q -0.1192,1.66879 -0.1192,2.38398 0,1.192 0.71519,1.54959 1.31119,0.7152 3.93358,-1.19199 1.90718,-1.31119 6.43675,-5.84076 l 7.39035,-7.50955 9.29754,-10.25113 4.76797,0.3576 4.64877,-0.3576 v 0.83439 q -8.22475,6.91356 -14.30391,12.27752 -7.27115,6.31756 -11.91992,10.72793 l 28.01182,32.541383 v 0.595996 l -5.84076,-0.357597 -5.95996,0.357597 q -3.09918,-4.052772 -7.62875,-9.416737 -3.45678,-4.052772 -15.1383,-17.403082 -1.66879,-1.90719 -2.74158,-1.90719 -1.54959,0 -1.54959,4.41037 v 24.316639 l -4.76797,-0.357597 -4.76797,0.357597 v -89.518599 l 4.76797,0.3576 z" /><path
     id="path871"
     style="word-spacing:0.73500001px;opacity:1;fill:#c08d42;fill-opacity:1"
     d="m 668.8744,-99.790388 -0.1192,6.198358 q -4.64877,3.337578 -9.77433,5.244765 -5.12557,1.787988 -10.72793,1.787988 -12.63512,0 -20.38307,-7.867147 -7.74794,-7.867146 -7.74794,-21.455856 0,-12.99271 6.91355,-20.85986 7.39035,-8.46315 20.38306,-8.46315 10.60873,0 17.04549,7.03276 7.15195,7.74795 7.15195,22.17105 l -24.19744,-0.3576 h -16.80708 q 0,10.72793 4.88716,17.403086 5.48317,7.390351 15.7343,7.390351 5.48316,0 10.60873,-2.860781 3.45677,-1.907188 7.03275,-5.363964 z m -38.26294,-20.979062 h 31.70698 q 0,-9.17834 -2.97998,-14.3039 -3.69517,-6.43676 -11.91992,-6.43676 -7.98634,0 -12.63511,6.55596 -4.17197,5.84076 -4.17197,14.1847 z" /><path
     id="path873"
     style="word-spacing:0.73500001px;opacity:1;fill:#c08d42;fill-opacity:1"
     d="m 684.2511,-156.29081 9.53594,-3.69518 v 15.4959 h 12.63512 q -0.2384,1.66879 -0.2384,2.50318 0,0.8344 0.2384,2.02639 h -12.63512 v 29.919 3.81437 q 0,7.271156 1.19199,10.370335 2.02639,5.125566 7.62875,5.125566 1.31119,0 2.86078,-0.357598 1.66879,-0.357597 2.50319,-0.476796 v 2.86078 q -2.86078,1.072793 -5.12557,1.54959 -2.26478,0.595996 -4.88717,0.595996 -7.15195,0 -10.25113,-3.814374 -3.45678,-4.291172 -3.45678,-14.899899 v -34.68697 h -7.39035 q 0.2384,-0.7152 0.2384,-2.26478 0,-1.4304 -0.2384,-2.26479 h 7.39035 z" /></g>

<g
   transform="scale(1,-1)"
   style="font-style:normal;font-weight:normal;font-size:30px;line-height:1.25;font-family:sans-serif;letter-spacing:0px;word-spacing:0px;fill:#000000;fill-opacity:1;stroke:none;stroke-width:0.75"
   id="text4665"><path
     d="m 256.47033,-66.092077 q 0.18,0.12 0.36,0.18 0.18,0.06 0.42,0.12 0.18,0 0.36,0.06 0.18,0.06 0.36,0.06 0.42,0.06 0.78,0.06 0.42,0 0.78,0 0.18,0 0.36,0 0.18,0 0.42,0 0.18,0 0.36,0 0.18,-0.06 0.36,-0.06 0.18,0 0.36,0 0.24,-0.06 0.42,-0.12 0.18,-0.06 0.36,-0.06 0.24,-0.06 0.42,-0.12 l 5.04,33.9 q 0.9,-0.96 2.04,-2.4 1.2,-1.44 2.52,-3.3 1.32,-1.86 2.7,-3.84 1.44,-2.04 2.94,-4.26 0.48,-0.72 0.96,-1.44 0.48,-0.78 0.96,-1.56 0.48,-0.72 0.96,-1.44 0.54,-0.78 1.02,-1.56 1.2,-1.92 2.34,-3.72 1.2,-1.86 2.34,-3.72 1.14,-1.8 2.16,-3.48 1.02,-1.68 1.92,-3.18 0.12,0.06 0.3,0.12 0.18,0.06 0.42,0.12 0.18,0.06 0.36,0.12 0.24,0 0.48,0 0.06,0 0.06,0 0.06,0 0.12,0 0,0 0,0 0.06,0 0.12,0 0.06,0 0.06,0 0.06,0 0.12,0 0,0 0,0 0.06,0 0.12,0 0.3,0 0.6,0 0.36,0 0.66,-0.06 0.3,-0.06 0.6,-0.12 0.36,-0.12 0.66,-0.18 l -28.44,40.98 q -0.06,0 -0.12,0 -0.06,0 -0.06,-0.06 -0.06,0 -0.12,0 -0.06,-0.06 -0.12,-0.06 -0.06,-0.06 -0.24,-0.06 -0.12,-0.06 -0.24,-0.06 -0.06,0 -0.12,0 -0.06,0 -0.12,0 -0.12,0.06 -0.24,0.06 -0.06,0 -0.24,0.06 -0.18,0.06 -0.36,0.12 -0.18,0 -0.36,0 l -7.92,-41.1 v 0 z"
     style="font-style:italic;font-variant:normal;font-weight:normal;font-stretch:normal;font-size:60px;font-family:Optima;-inkscape-font-specification:'Optima,  weight=101 Italic';font-variant-ligatures:normal;font-variant-caps:normal;font-variant-numeric:normal;font-feature-settings:normal;text-align:start;writing-mode:lr-tb;text-anchor:start;stroke-width:0.75"
     id="path1085" /><path
     d="m 286.65501,-24.992077 7.8,-29.28 q 0.12,0.12 0.18,0.18 0.12,0.06 0.18,0.06 0.12,0.06 0.24,0.06 0.12,0 0.24,0 0.12,0.06 0.18,0.12 0.12,0 0.24,0 0.12,0.06 0.18,0.06 0.12,0 0.24,0 0.24,0 0.42,0 0.24,0 0.48,0 0.3,0 0.6,0 0.36,0 0.72,-0.06 0.3,-0.06 0.6,-0.12 0.36,-0.12 0.66,-0.18 l -7.8,29.16 q -0.24,0 -0.54,0 -0.24,-0.06 -0.54,-0.12 -0.24,-0.06 -0.6,-0.06 -0.3,-0.06 -0.6,-0.06 -0.12,0 -0.24,0 -0.12,0 -0.24,0 -0.24,0.06 -0.48,0.06 -0.18,0 -0.48,0.06 -0.36,0.06 -0.72,0.12 -0.36,0 -0.72,0 v 0 z m 10.14,-39.66 q 0.18,-0.78 0.6,-1.38 0.42,-0.6 1.02,-1.02 0.6,-0.42 1.14,-0.6 0.6,-0.24 1.2,-0.24 0.66,0 1.2,0.24 0.6,0.18 1.02,0.6 0.42,0.42 0.48,1.08 0.12,0.6 -0.12,1.44 -0.3,0.84 -0.78,1.5 -0.42,0.6 -1.08,1.02 -0.3,0.18 -0.6,0.36 -0.3,0.18 -0.6,0.24 -0.3,0.12 -0.6,0.18 -0.3,0.06 -0.6,0.06 -0.6,0 -1.14,-0.18 -0.48,-0.24 -0.84,-0.66 -0.42,-0.48 -0.48,-1.08 -0.06,-0.66 0.12,-1.44 l 0.06,-0.12 z"
     style="font-style:italic;font-variant:normal;font-weight:normal;font-stretch:normal;font-size:60px;font-family:Optima;-inkscape-font-specification:'Optima,  weight=101 Italic';font-variant-ligatures:normal;font-variant-caps:normal;font-variant-numeric:normal;font-feature-settings:normal;text-align:start;writing-mode:lr-tb;text-anchor:start;stroke-width:0.75"
     id="path1087" /><path
     d="m 306.18783,-45.332077 q 0.66,-2.28 1.92,-4.02 1.26,-1.74 3.12,-2.82 0.96,-0.54 1.92,-0.96 0.96,-0.42 1.92,-0.66 0.96,-0.3 1.92,-0.42 0.96,-0.18 1.92,-0.18 0.6,0 1.14,0.06 0.6,0.06 1.14,0.12 0.3,0.06 0.54,0.12 0.3,0.06 0.6,0.12 0.84,0.24 1.56,0.54 0.72,0.3 1.38,0.66 l -2.7,4.62 h -0.96 q -0.06,-0.84 -0.36,-1.5 -0.3,-0.72 -0.9,-1.2 -0.6,-0.48 -1.26,-0.72 -0.66,-0.24 -1.5,-0.3 -0.06,0 -0.12,0 0,0 0,0 -0.06,0 -0.12,0 0,0 0,0 -0.9,0 -1.8,0.24 -0.84,0.24 -1.68,0.72 -0.9,0.48 -1.56,1.2 -0.66,0.72 -1.08,1.68 -0.06,0.06 -0.12,0.12 0,0.06 0,0.12 -0.06,0.06 -0.06,0.12 0,0.06 0,0.12 -0.06,0.06 -0.12,0.18 -0.06,0.06 -0.06,0.12 0,0.06 0,0.12 0,0 0,0 -0.06,0.06 -0.06,0.12 0,0 0,0 -0.24,1.08 -0.06,1.92 0.24,0.84 0.96,1.38 0.78,0.54 1.68,1.02 0.9,0.48 1.92,0.84 0.12,0.06 0.18,0.12 0.12,0 0.18,0 0.12,0.06 0.18,0.12 0.12,0 0.24,0.06 0.18,0.06 0.36,0.12 0.24,0.06 0.48,0.12 0.06,0.06 0.18,0.12 0.12,0.06 0.24,0.12 0.12,0.06 0.24,0.12 0.12,0 0.24,0 1.44,0.6 2.4,1.38 0.96,0.78 1.38,1.8 0.48,0.96 0.54,1.98 0.12,1.02 -0.12,2.04 0,0 0,0.06 0,0 0,0 -0.06,0.06 -0.06,0.12 0,0 0,0 0,0.06 0,0.12 0,0 -0.06,0.06 -0.54,1.68 -1.8,3.24 -1.2,1.56 -3.12,2.94 -1.92,1.38 -4.02,2.04 -2.04,0.66 -4.32,0.66 -1.26,0 -2.4,-0.12 -1.14,-0.12 -2.22,-0.36 -1.14,-0.12 -1.98,-0.54 -0.78,-0.48 -1.26,-1.2 l 2.58,-4.38 h 0.96 q 0.24,0.9 0.54,1.56 0.36,0.66 0.78,1.14 0.42,0.48 0.9,0.84 0.48,0.36 1.02,0.54 0.18,0.06 0.42,0.18 0.24,0.06 0.48,0.12 0.18,0.06 0.42,0.06 0.24,0 0.48,0 0.54,0 1.08,-0.06 0.6,-0.06 1.14,-0.24 0.54,-0.18 1.08,-0.48 0.6,-0.3 1.14,-0.66 1.02,-0.78 1.74,-1.62 0.72,-0.84 1.14,-1.74 0,-0.06 0,-0.12 0,-0.06 0.06,-0.12 0,-0.06 0,-0.12 0,-0.06 0.06,-0.12 0.24,-1.38 -0.06,-2.28 -0.3,-0.96 -1.14,-1.44 -0.78,-0.48 -1.74,-0.84 -0.9,-0.42 -1.92,-0.78 -0.06,0 -0.12,0 -0.06,0 -0.12,-0.06 -0.06,0 -0.12,0 0,0 0,-0.06 -0.06,0 -0.12,0 0,0 -0.06,0 -0.12,-0.06 -0.24,-0.06 -0.12,-0.06 -0.24,-0.12 -0.12,0 -0.24,0 -0.12,-0.06 -0.24,-0.12 -0.12,-0.06 -0.24,-0.06 -0.12,-0.06 -0.24,-0.12 -0.12,-0.06 -0.24,-0.06 -0.12,-0.06 -0.24,-0.12 -0.96,-0.36 -1.74,-0.96 -0.72,-0.6 -1.26,-1.38 -0.6,-0.84 -0.66,-1.98 -0.06,-1.2 0.36,-2.82 v -0.12 z"
     style="font-style:italic;font-variant:normal;font-weight:normal;font-stretch:normal;font-size:60px;font-family:Optima;-inkscape-font-specification:'Optima,  weight=101 Italic';font-variant-ligatures:normal;font-variant-caps:normal;font-variant-numeric:normal;font-feature-settings:normal;text-align:start;writing-mode:lr-tb;text-anchor:start;stroke-width:0.75"
     id="path1089" /><path
     d="m 326.51096,-38.192077 q 1.02,-3.84 2.82,-6.72 1.8,-2.94 4.32,-4.86 2.58,-1.92 5.28,-2.88 2.7,-1.02 5.52,-1.02 2.52,0 4.32,0.66 1.8,0.6 2.82,1.8 1.02,1.26 1.62,2.64 0.6,1.32 0.72,2.82 0.06,0.6 0.06,1.26 0,0.6 -0.12,1.26 0,0.18 -0.06,0.42 0,0.18 -0.06,0.36 -0.06,0.42 -0.12,0.78 0,0.3 -0.12,0.66 -0.06,0.3 -0.18,0.6 -0.06,0.24 -0.18,0.48 -0.06,0.24 -0.18,0.48 -0.06,0.24 -0.18,0.42 l -20.28,-0.12 q -0.72,2.76 -0.78,4.92 0,2.16 0.6,3.78 0.66,1.62 2.52,2.46 1.86,0.78 4.86,0.78 1.2,0 2.4,-0.24 1.26,-0.24 2.58,-0.78 1.32,-0.48 2.46,-1.14 1.14,-0.72 2.1,-1.62 l -0.42,3.18 q 0,0.06 -0.06,0.12 0,0 0,0.06 -0.06,0 -0.12,0.06 0,0 0,0 0,0 -0.06,0 0,0 0,0 -0.06,0.06 -0.06,0.06 0,0 0,0 -0.12,0.06 -0.24,0.12 -0.06,0.06 -0.18,0.12 -0.12,0.06 -0.24,0.12 -0.06,0.06 -0.18,0.12 -1.14,0.6 -2.28,1.14 -1.08,0.54 -2.28,0.9 -1.2,0.48 -2.76,0.72 -1.56,0.24 -3.42,0.24 -3.66,-0.18 -6.06,-1.26 -2.34,-1.14 -3.36,-3.24 -1.08,-2.1 -1.32,-4.5 -0.24,-2.4 0.3,-5.04 v -0.12 z m 22.2,-3.36 q 0.06,-0.06 0.06,-0.18 0.06,-0.18 0.12,-0.36 0,-0.12 0,-0.18 0.06,-0.06 0.06,-0.18 0,-0.06 0,-0.12 0.06,-0.12 0.06,-0.18 0.36,-1.62 0.3,-3.06 -0.06,-1.5 -0.54,-2.82 -0.42,-1.38 -1.68,-2.04 -1.2,-0.66 -3.3,-0.66 -1.56,0 -3,0.6 -1.38,0.54 -2.64,1.62 -1.26,1.14 -2.22,2.34 -0.96,1.2 -1.68,2.58 -0.24,0.36 -0.42,0.72 -0.18,0.36 -0.3,0.72 -0.12,0.36 -0.24,0.72 -0.06,0.3 -0.18,0.6 l 15.6,-0.12 v 0 z"
     style="font-style:italic;font-variant:normal;font-weight:normal;font-stretch:normal;font-size:60px;font-family:Optima;-inkscape-font-specification:'Optima,  weight=101 Italic';font-variant-ligatures:normal;font-variant-caps:normal;font-variant-numeric:normal;font-feature-settings:normal;text-align:start;writing-mode:lr-tb;text-anchor:start;stroke-width:0.75"
     id="path1091" /><path
     d="m 356.14533,-24.992077 7.68,-28.8 q 0.06,0.06 0.12,0.12 0.06,0 0.12,0.06 0.12,0.06 0.24,0.12 0.12,0 0.24,0.06 0.12,0 0.18,0.06 0.12,0 0.24,0 0.12,0.06 0.18,0.06 0.12,0 0.24,0 0.06,0 0.06,0 0.06,0 0.12,0 0,0 0,0 0.06,0 0.12,0 0.06,0 0.06,0 0.06,0 0.12,0 0,0 0,0 0.06,0 0.12,0 0.3,0 0.6,0 0.36,0 0.72,-0.06 0.3,-0.06 0.6,-0.12 0.3,-0.12 0.6,-0.18 l -1.5,5.52 q 1.02,-1.2 2.16,-2.28 1.2,-1.08 2.52,-1.98 0.36,-0.24 0.66,-0.42 0.36,-0.18 0.66,-0.36 1.02,-0.54 2.04,-0.78 1.02,-0.24 2.1,-0.24 0.12,0 0.24,0 0.12,0 0.24,0 0.06,0 0.12,0 0.06,0 0.12,0 0.06,0.06 0.12,0.06 0.06,0 0.12,0 l -1.98,5.52 q -0.42,-0.12 -0.84,-0.3 -0.36,-0.18 -0.72,-0.24 -0.24,-0.06 -0.48,-0.12 -0.24,-0.06 -0.48,-0.12 -0.12,0 -0.24,0 -0.12,-0.06 -0.24,-0.06 -1.14,0 -2.16,0.42 -0.96,0.36 -1.8,1.2 -0.9,0.78 -1.62,1.68 -0.66,0.9 -1.2,1.86 -0.18,0.36 -0.36,0.72 -0.18,0.3 -0.3,0.6 -0.06,0.18 -0.12,0.42 -0.06,0.18 -0.12,0.36 -0.06,0.06 -0.06,0.18 0,0.06 -0.06,0.18 l -4.5,16.86 q -0.18,0 -0.42,0 -0.18,0 -0.42,-0.06 -0.24,-0.06 -0.42,-0.06 -0.18,-0.06 -0.36,-0.12 -0.06,0 -0.18,0 -0.06,0 -0.18,0 -0.06,0 -0.12,0 -0.06,0 -0.12,0 -0.3,0 -0.66,0.06 -0.3,0 -0.66,0.06 -0.3,0.06 -0.6,0.12 -0.24,0 -0.54,0 v 0 z"
     style="font-style:italic;font-variant:normal;font-weight:normal;font-stretch:normal;font-size:60px;font-family:Optima;-inkscape-font-specification:'Optima,  weight=101 Italic';font-variant-ligatures:normal;font-variant-caps:normal;font-variant-numeric:normal;font-feature-settings:normal;text-align:start;writing-mode:lr-tb;text-anchor:start;stroke-width:0.75"
     id="path1093" /><path
     d="m 399.67346,-66.092077 q 0.18,0.12 0.36,0.18 0.18,0.06 0.42,0.12 0.18,0 0.36,0.06 0.18,0.06 0.36,0.06 0.42,0.06 0.78,0.06 0.42,0 0.78,0 0.18,0 0.36,0 0.18,0 0.42,0 0.18,0 0.36,0 0.18,-0.06 0.36,-0.06 0.18,0 0.36,0 0.24,-0.06 0.42,-0.12 0.18,-0.06 0.36,-0.06 0.24,-0.06 0.42,-0.12 l 5.04,33.9 q 0.9,-0.96 2.04,-2.4 1.2,-1.44 2.52,-3.3 1.32,-1.86 2.7,-3.84 1.44,-2.04 2.94,-4.26 0.48,-0.72 0.96,-1.44 0.48,-0.78 0.96,-1.56 0.48,-0.72 0.96,-1.44 0.54,-0.78 1.02,-1.56 1.2,-1.92 2.34,-3.72 1.2,-1.86 2.34,-3.72 1.14,-1.8 2.16,-3.48 1.02,-1.68 1.92,-3.18 0.12,0.06 0.3,0.12 0.18,0.06 0.42,0.12 0.18,0.06 0.36,0.12 0.24,0 0.48,0 0.06,0 0.06,0 0.06,0 0.12,0 0,0 0,0 0.06,0 0.12,0 0.06,0 0.06,0 0.06,0 0.12,0 0,0 0,0 0.06,0 0.12,0 0.3,0 0.6,0 0.36,0 0.66,-0.06 0.3,-0.06 0.6,-0.12 0.36,-0.12 0.66,-0.18 l -28.44,40.98 q -0.06,0 -0.12,0 -0.06,0 -0.06,-0.06 -0.06,0 -0.12,0 -0.06,-0.06 -0.12,-0.06 -0.06,-0.06 -0.24,-0.06 -0.12,-0.06 -0.24,-0.06 -0.06,0 -0.12,0 -0.06,0 -0.12,0 -0.12,0.06 -0.24,0.06 -0.06,0 -0.24,0.06 -0.18,0.06 -0.36,0.12 -0.18,0 -0.36,0 l -7.92,-41.1 v 0 z"
     style="font-style:italic;font-variant:normal;font-weight:normal;font-stretch:normal;font-size:60px;font-family:Optima;-inkscape-font-specification:'Optima,  weight=101 Italic';font-variant-ligatures:normal;font-variant-caps:normal;font-variant-numeric:normal;font-feature-settings:normal;text-align:start;writing-mode:lr-tb;text-anchor:start;stroke-width:0.75"
     id="path1095" /><path
     d="m 429.02942,-38.192077 q 1.02,-3.84 2.82,-6.72 1.8,-2.94 4.32,-4.86 2.58,-1.92 5.28,-2.88 2.7,-1.02 5.52,-1.02 2.52,0 4.32,0.66 1.8,0.6 2.82,1.8 1.02,1.26 1.62,2.64 0.6,1.32 0.72,2.82 0.06,0.6 0.06,1.26 0,0.6 -0.12,1.26 0,0.18 -0.06,0.42 0,0.18 -0.06,0.36 -0.06,0.42 -0.12,0.78 0,0.3 -0.12,0.66 -0.06,0.3 -0.18,0.6 -0.06,0.24 -0.18,0.48 -0.06,0.24 -0.18,0.48 -0.06,0.24 -0.18,0.42 l -20.28,-0.12 q -0.72,2.76 -0.78,4.92 0,2.16 0.6,3.78 0.66,1.62 2.52,2.46 1.86,0.78 4.86,0.78 1.2,0 2.4,-0.24 1.26,-0.24 2.58,-0.78 1.32,-0.48 2.46,-1.14 1.14,-0.72 2.1,-1.62 l -0.42,3.18 q 0,0.06 -0.06,0.12 0,0 0,0.06 -0.06,0 -0.12,0.06 0,0 0,0 0,0 -0.06,0 0,0 0,0 -0.06,0.06 -0.06,0.06 0,0 0,0 -0.12,0.06 -0.24,0.12 -0.06,0.06 -0.18,0.12 -0.12,0.06 -0.24,0.12 -0.06,0.06 -0.18,0.12 -1.14,0.6 -2.28,1.14 -1.08,0.54 -2.28,0.9 -1.2,0.48 -2.76,0.72 -1.56,0.24 -3.42,0.24 -3.66,-0.18 -6.06,-1.26 -2.34,-1.14 -3.36,-3.24 -1.08,-2.1 -1.32,-4.5 -0.24,-2.4 0.3,-5.04 v -0.12 z m 22.2,-3.36 q 0.06,-0.06 0.06,-0.18 0.06,-0.18 0.12,-0.36 0,-0.12 0,-0.18 0.06,-0.06 0.06,-0.18 0,-0.06 0,-0.12 0.06,-0.12 0.06,-0.18 0.36,-1.62 0.3,-3.06 -0.06,-1.5 -0.54,-2.82 -0.42,-1.38 -1.68,-2.04 -1.2,-0.66 -3.3,-0.66 -1.56,0 -3,0.6 -1.38,0.54 -2.64,1.62 -1.26,1.14 -2.22,2.34 -0.96,1.2 -1.68,2.58 -0.24,0.36 -0.42,0.72 -0.18,0.36 -0.3,0.72 -0.12,0.36 -0.24,0.72 -0.06,0.3 -0.18,0.6 l 15.6,-0.12 v 0 z"
     style="font-style:italic;font-variant:normal;font-weight:normal;font-stretch:normal;font-size:60px;font-family:Optima;-inkscape-font-specification:'Optima,  weight=101 Italic';font-variant-ligatures:normal;font-variant-caps:normal;font-variant-numeric:normal;font-feature-settings:normal;text-align:start;writing-mode:lr-tb;text-anchor:start;stroke-width:0.75"
     id="path1097" /><path
     d="m 459.1644,-24.992077 7.8,-29.28 q 0.12,0.12 0.18,0.18 0.12,0.06 0.18,0.06 0.12,0.06 0.24,0.06 0.12,0 0.24,0 0.12,0.06 0.18,0.12 0.12,0 0.24,0 0.12,0.06 0.18,0.06 0.12,0 0.24,0 0.24,0 0.42,0 0.24,0 0.48,0 0.3,0 0.6,0 0.36,0 0.72,-0.06 0.3,-0.06 0.6,-0.12 0.36,-0.12 0.66,-0.18 l -7.8,29.16 q -0.24,0 -0.54,0 -0.24,-0.06 -0.54,-0.12 -0.24,-0.06 -0.6,-0.06 -0.3,-0.06 -0.6,-0.06 -0.12,0 -0.24,0 -0.12,0 -0.24,0 -0.24,0.06 -0.48,0.06 -0.18,0 -0.48,0.06 -0.36,0.06 -0.72,0.12 -0.36,0 -0.72,0 v 0 z m 10.14,-39.66 q 0.18,-0.78 0.6,-1.38 0.42,-0.6 1.02,-1.02 0.6,-0.42 1.14,-0.6 0.6,-0.24 1.2,-0.24 0.66,0 1.2,0.24 0.6,0.18 1.02,0.6 0.42,0.42 0.48,1.08 0.12,0.6 -0.12,1.44 -0.3,0.84 -0.78,1.5 -0.42,0.6 -1.08,1.02 -0.3,0.18 -0.6,0.36 -0.3,0.18 -0.6,0.24 -0.3,0.12 -0.6,0.18 -0.3,0.06 -0.6,0.06 -0.6,0 -1.14,-0.18 -0.48,-0.24 -0.84,-0.66 -0.42,-0.48 -0.48,-1.08 -0.06,-0.66 0.12,-1.44 l 0.06,-0.12 z"
     style="font-style:italic;font-variant:normal;font-weight:normal;font-stretch:normal;font-size:60px;font-family:Optima;-inkscape-font-specification:'Optima,  weight=101 Italic';font-variant-ligatures:normal;font-variant-caps:normal;font-variant-numeric:normal;font-feature-settings:normal;text-align:start;writing-mode:lr-tb;text-anchor:start;stroke-width:0.75"
     id="path1099" /><path
     d="m 475.80783,-38.192077 q 1.02,-3.84 2.82,-6.72 1.8,-2.94 4.32,-4.86 2.58,-1.92 5.28,-2.88 2.7,-1.02 5.52,-1.02 2.52,0 4.32,0.66 1.8,0.6 2.82,1.8 1.02,1.26 1.62,2.64 0.6,1.32 0.72,2.82 0.06,0.6 0.06,1.26 0,0.6 -0.12,1.26 0,0.18 -0.06,0.42 0,0.18 -0.06,0.36 -0.06,0.42 -0.12,0.78 0,0.3 -0.12,0.66 -0.06,0.3 -0.18,0.6 -0.06,0.24 -0.18,0.48 -0.06,0.24 -0.18,0.48 -0.06,0.24 -0.18,0.42 l -20.28,-0.12 q -0.72,2.76 -0.78,4.92 0,2.16 0.6,3.78 0.66,1.62 2.52,2.46 1.86,0.78 4.86,0.78 1.2,0 2.4,-0.24 1.26,-0.24 2.58,-0.78 1.32,-0.48 2.46,-1.14 1.14,-0.72 2.1,-1.62 l -0.42,3.18 q 0,0.06 -0.06,0.12 0,0 0,0.06 -0.06,0 -0.12,0.06 0,0 0,0 0,0 -0.06,0 0,0 0,0 -0.06,0.06 -0.06,0.06 0,0 0,0 -0.12,0.06 -0.24,0.12 -0.06,0.06 -0.18,0.12 -0.12,0.06 -0.24,0.12 -0.06,0.06 -0.18,0.12 -1.14,0.6 -2.28,1.14 -1.08,0.54 -2.28,0.9 -1.2,0.48 -2.76,0.72 -1.56,0.24 -3.42,0.24 -3.66,-0.18 -6.06,-1.26 -2.34,-1.14 -3.36,-3.24 -1.08,-2.1 -1.32,-4.5 -0.24,-2.4 0.3,-5.04 v -0.12 z m 22.2,-3.36 q 0.06,-0.06 0.06,-0.18 0.06,-0.18 0.12,-0.36 0,-0.12 0,-0.18 0.06,-0.06 0.06,-0.18 0,-0.06 0,-0.12 0.06,-0.12 0.06,-0.18 0.36,-1.62 0.3,-3.06 -0.06,-1.5 -0.54,-2.82 -0.42,-1.38 -1.68,-2.04 -1.2,-0.66 -3.3,-0.66 -1.56,0 -3,0.6 -1.38,0.54 -2.64,1.62 -1.26,1.14 -2.22,2.34 -0.96,1.2 -1.68,2.58 -0.24,0.36 -0.42,0.72 -0.18,0.36 -0.3,0.72 -0.12,0.36 -0.24,0.72 -0.06,0.3 -0.18,0.6 l 15.6,-0.12 v 0 z"
     style="font-style:italic;font-variant:normal;font-weight:normal;font-stretch:normal;font-size:60px;font-family:Optima;-inkscape-font-specification:'Optima,  weight=101 Italic';font-variant-ligatures:normal;font-variant-caps:normal;font-variant-numeric:normal;font-feature-settings:normal;text-align:start;writing-mode:lr-tb;text-anchor:start;stroke-width:0.75"
     id="path1101" /><path
     d="m 505.44221,-24.992077 7.8,-29.28 q 0.18,0.12 0.42,0.24 0.24,0.06 0.48,0.12 0.12,0 0.24,0.06 0.12,0 0.3,0 0.12,0.06 0.24,0.06 0.12,0 0.24,0 0.06,0 0.12,0 0.06,0 0.12,0 0.06,0 0.12,0 0.06,0 0.12,0 0.12,0 0.24,0 0.12,0 0.24,0 0.24,0 0.48,0 0.24,-0.06 0.48,-0.06 0.36,-0.06 0.66,-0.12 0.36,-0.12 0.66,-0.18 l -1.38,5.04 q 0.24,-0.12 0.48,-0.36 0.3,-0.3 0.6,-0.6 0.3,-0.3 0.6,-0.6 0.36,-0.3 0.78,-0.66 0.78,-0.6 1.68,-1.14 0.9,-0.54 2.04,-1.08 1.14,-0.54 2.46,-0.78 1.32,-0.3 2.82,-0.3 0,0 0,0 0,0 0.06,0 0,0 0,0 0,0 0,0 0,0 0,0 0.06,0 0.12,0 1.74,0.06 3.12,0.78 1.44,0.72 2.46,2.1 1.08,1.38 1.14,3.72 0.12,2.34 -0.78,5.7 l -4.62,17.34 q -0.12,0 -0.24,0 -0.12,0 -0.24,-0.06 -0.18,0 -0.3,0 -0.12,-0.06 -0.24,-0.06 -0.12,-0.06 -0.36,-0.06 -0.18,0 -0.36,-0.06 -0.06,0 -0.18,0 -0.06,0 -0.18,0 -0.3,0 -0.66,0.06 -0.36,0 -0.78,0.06 -0.36,0.06 -0.78,0.12 -0.36,0 -0.84,0 l 4.62,-17.46 q 0.6,-2.04 0.48,-3.6 -0.12,-1.62 -0.84,-2.7 -0.78,-1.08 -1.8,-1.62 -1.02,-0.54 -2.28,-0.54 -0.06,0 -0.12,0 0,0 -0.06,0 -0.06,0 -0.12,0 0,0 -0.06,0 -1.38,0.06 -2.82,0.72 -1.38,0.66 -2.76,1.86 -1.44,1.14 -2.46,2.88 -0.96,1.74 -1.62,4.02 l -4.38,16.44 q -0.36,0 -0.72,0 -0.3,-0.06 -0.6,-0.12 -0.12,0 -0.3,0 -0.12,-0.06 -0.24,-0.06 -0.18,-0.06 -0.36,-0.06 -0.12,0 -0.24,0 -0.3,0 -0.66,0.06 -0.3,0 -0.66,0.06 -0.18,0 -0.36,0.06 -0.18,0 -0.3,0 -0.18,0.06 -0.36,0.06 -0.18,0 -0.36,0 v 0 z"
     style="font-style:italic;font-variant:normal;font-weight:normal;font-stretch:normal;font-size:60px;font-family:Optima;-inkscape-font-specification:'Optima,  weight=101 Italic';font-variant-ligatures:normal;font-variant-caps:normal;font-variant-numeric:normal;font-feature-settings:normal;text-align:start;writing-mode:lr-tb;text-anchor:start;stroke-width:0.75"
     id="path1103" /><path
     d="m 562.68127,-66.092077 q 0.18,0.12 0.36,0.18 0.18,0.06 0.42,0.12 0.18,0 0.36,0.06 0.18,0.06 0.36,0.06 0.42,0.06 0.78,0.06 0.42,0 0.78,0 0.18,0 0.36,0 0.18,0 0.42,0 0.18,0 0.36,0 0.18,-0.06 0.36,-0.06 0.18,0 0.36,0 0.24,-0.06 0.42,-0.12 0.18,-0.06 0.36,-0.06 0.24,-0.06 0.42,-0.12 l 5.04,33.9 q 0.9,-0.96 2.04,-2.4 1.2,-1.44 2.52,-3.3 1.32,-1.86 2.7,-3.84 1.44,-2.04 2.94,-4.26 0.48,-0.72 0.96,-1.44 0.48,-0.78 0.96,-1.56 0.48,-0.72 0.96,-1.44 0.54,-0.78 1.02,-1.56 1.2,-1.92 2.34,-3.72 1.2,-1.86 2.34,-3.72 1.14,-1.8 2.16,-3.48 1.02,-1.68 1.92,-3.18 0.12,0.06 0.3,0.12 0.18,0.06 0.42,0.12 0.18,0.06 0.36,0.12 0.24,0 0.48,0 0.06,0 0.06,0 0.06,0 0.12,0 0,0 0,0 0.06,0 0.12,0 0.06,0 0.06,0 0.06,0 0.12,0 0,0 0,0 0.06,0 0.12,0 0.3,0 0.6,0 0.36,0 0.66,-0.06 0.3,-0.06 0.6,-0.12 0.36,-0.12 0.66,-0.18 l -28.44,40.98 q -0.06,0 -0.12,0 -0.06,0 -0.06,-0.06 -0.06,0 -0.12,0 -0.06,-0.06 -0.12,-0.06 -0.06,-0.06 -0.24,-0.06 -0.12,-0.06 -0.24,-0.06 -0.06,0 -0.12,0 -0.06,0 -0.12,0 -0.12,0.06 -0.24,0.06 -0.06,0 -0.24,0.06 -0.18,0.06 -0.36,0.12 -0.18,0 -0.36,0 l -7.92,-41.1 v 0 z"
     style="font-style:italic;font-variant:normal;font-weight:normal;font-stretch:normal;font-size:60px;font-family:Optima;-inkscape-font-specification:'Optima,  weight=101 Italic';font-variant-ligatures:normal;font-variant-caps:normal;font-variant-numeric:normal;font-feature-settings:normal;text-align:start;writing-mode:lr-tb;text-anchor:start;stroke-width:0.75"
     id="path1105" /><path
     d="m 592.86594,-24.992077 7.8,-29.28 q 0.12,0.12 0.18,0.18 0.12,0.06 0.18,0.06 0.12,0.06 0.24,0.06 0.12,0 0.24,0 0.12,0.06 0.18,0.12 0.12,0 0.24,0 0.12,0.06 0.18,0.06 0.12,0 0.24,0 0.24,0 0.42,0 0.24,0 0.48,0 0.3,0 0.6,0 0.36,0 0.72,-0.06 0.3,-0.06 0.6,-0.12 0.36,-0.12 0.66,-0.18 l -7.8,29.16 q -0.24,0 -0.54,0 -0.24,-0.06 -0.54,-0.12 -0.24,-0.06 -0.6,-0.06 -0.3,-0.06 -0.6,-0.06 -0.12,0 -0.24,0 -0.12,0 -0.24,0 -0.24,0.06 -0.48,0.06 -0.18,0 -0.48,0.06 -0.36,0.06 -0.72,0.12 -0.36,0 -0.72,0 v 0 z m 10.14,-39.66 q 0.18,-0.78 0.6,-1.38 0.42,-0.6 1.02,-1.02 0.6,-0.42 1.14,-0.6 0.6,-0.24 1.2,-0.24 0.66,0 1.2,0.24 0.6,0.18 1.02,0.6 0.42,0.42 0.48,1.08 0.12,0.6 -0.12,1.44 -0.3,0.84 -0.78,1.5 -0.42,0.6 -1.08,1.02 -0.3,0.18 -0.6,0.36 -0.3,0.18 -0.6,0.24 -0.3,0.12 -0.6,0.18 -0.3,0.06 -0.6,0.06 -0.6,0 -1.14,-0.18 -0.48,-0.24 -0.84,-0.66 -0.42,-0.48 -0.48,-1.08 -0.06,-0.66 0.12,-1.44 l 0.06,-0.12 z"
     style="font-style:italic;font-variant:normal;font-weight:normal;font-stretch:normal;font-size:60px;font-family:Optima;-inkscape-font-specification:'Optima,  weight=101 Italic';font-variant-ligatures:normal;font-variant-caps:normal;font-variant-numeric:normal;font-feature-settings:normal;text-align:start;writing-mode:lr-tb;text-anchor:start;stroke-width:0.75"
     id="path1107" /><path
     d="m 609.45877,-37.772077 q 1.02,-3.84 2.7,-6.84 1.68,-3 3.9,-5.16 2.28,-2.16 5.04,-3.24 2.82,-1.14 6,-1.14 0.06,0 0.12,0 0.06,0 0.18,0 0.06,0.06 0.12,0.06 0.12,0 0.18,0 0.12,0 0.24,0 0.18,0 0.36,0 1.2,0.18 2.22,0.54 1.08,0.36 1.98,0.96 0.9,0.6 1.44,1.26 0.6,0.66 0.78,1.32 0.06,0.12 0.06,0.3 0,0.12 0,0.24 -0.06,0.12 -0.06,0.24 0,0.12 0,0.24 l 5.7,-21.36 q 0.12,0.12 0.24,0.18 0.18,0.06 0.36,0.12 0.12,0 0.24,0.06 0.18,0.06 0.3,0.06 0.3,0.06 0.6,0.06 0.36,0 0.66,0 0.3,0 0.6,0 0.36,0 0.66,-0.06 0.36,-0.06 0.72,-0.12 0.36,-0.12 0.78,-0.18 l -12.12,45.24 q -0.24,0 -0.54,0 -0.24,-0.06 -0.54,-0.12 -0.24,-0.06 -0.6,-0.06 -0.3,-0.06 -0.6,-0.06 -0.12,0 -0.24,0 -0.12,0 -0.24,0 -0.24,0.06 -0.48,0.06 -0.18,0 -0.48,0.06 -0.36,0.06 -0.72,0.12 -0.36,0 -0.72,0 l 1.38,-5.22 q -1.32,1.38 -2.58,2.34 -1.26,0.96 -2.46,1.62 -1.26,0.66 -2.4,1.08 -1.14,0.36 -2.22,0.54 -0.12,0 -0.24,0 -0.12,0 -0.24,0.06 -0.12,0 -0.24,0 -0.06,0 -0.18,0 -0.06,0 -0.18,0 -0.06,0 -0.12,0 -0.06,0 -0.12,0 0,0 -0.06,0.06 -0.12,0 -0.24,0 -0.06,0 -0.18,0 -2.4,0 -4.32,-0.84 -1.92,-0.9 -3.3,-2.76 -1.38,-1.92 -1.74,-4.14 -0.3,-2.28 0.42,-4.86 0,-0.06 0,-0.12 0,-0.06 0.06,-0.12 0,-0.06 0,-0.06 0.06,-0.06 0.06,-0.12 0,0 0,0 0,-0.06 0,-0.12 l 0.06,-0.12 z m 5.94,-0.9 q -0.6,2.4 -0.78,4.14 -0.18,1.74 0.18,2.94 0.36,1.2 0.9,2.1 0.54,0.84 1.2,1.32 0.36,0.24 0.72,0.48 0.36,0.18 0.78,0.3 0.48,0.06 0.84,0.12 0.36,0.06 0.66,0.06 0.06,0 0.06,0 0.06,0 0.12,0 0,0 0.06,0 0.06,0 0.12,0 -0.06,0.06 -0.06,0.06 0.06,0 0.12,0 0.06,0 0.06,0 0.06,0 0.12,0 1.68,0 3.3,-0.78 1.68,-0.78 3.36,-2.28 1.68,-1.56 2.88,-3.72 1.2,-2.22 1.98,-5.1 0.12,-0.48 0.24,-1.08 0.18,-0.6 0.3,-1.2 0.12,-0.66 0.18,-1.32 0.12,-0.66 0.18,-1.38 0.06,-1.38 -0.24,-2.64 -0.24,-1.26 -0.72,-2.4 -0.48,-1.14 -1.62,-1.68 -1.14,-0.6 -2.88,-0.6 -0.06,0 -0.12,0 0,0 -0.06,0 -0.06,0 -0.12,0 0,0 0,0 -0.06,0 -0.12,0 -0.06,0 -0.06,0 -0.06,0 -0.12,0 0,0 -0.06,0 -1.86,0.12 -3.42,0.78 -1.56,0.6 -2.7,1.8 -1.14,1.14 -2.04,2.46 -0.84,1.26 -1.5,2.64 -0.36,0.72 -0.66,1.38 -0.24,0.66 -0.42,1.32 -0.12,0.42 -0.24,0.84 -0.12,0.42 -0.24,0.84 -0.06,0.18 -0.12,0.36 -0.06,0.18 -0.12,0.36 l 0.06,-0.12 z"
     style="font-style:italic;font-variant:normal;font-weight:normal;font-stretch:normal;font-size:60px;font-family:Optima;-inkscape-font-specification:'Optima,  weight=101 Italic';font-variant-ligatures:normal;font-variant-caps:normal;font-variant-numeric:normal;font-feature-settings:normal;text-align:start;writing-mode:lr-tb;text-anchor:start;stroke-width:0.75"
     id="path1109" /><path
     d="m 643.0344,-38.192077 q 1.02,-3.84 2.82,-6.72 1.8,-2.94 4.32,-4.86 2.58,-1.92 5.28,-2.88 2.7,-1.02 5.52,-1.02 2.52,0 4.32,0.66 1.8,0.6 2.82,1.8 1.02,1.26 1.62,2.64 0.6,1.32 0.72,2.82 0.06,0.6 0.06,1.26 0,0.6 -0.12,1.26 0,0.18 -0.06,0.42 0,0.18 -0.06,0.36 -0.06,0.42 -0.12,0.78 0,0.3 -0.12,0.66 -0.06,0.3 -0.18,0.6 -0.06,0.24 -0.18,0.48 -0.06,0.24 -0.18,0.48 -0.06,0.24 -0.18,0.42 l -20.28,-0.12 q -0.72,2.76 -0.78,4.92 0,2.16 0.6,3.78 0.66,1.62 2.52,2.46 1.86,0.78 4.86,0.78 1.2,0 2.4,-0.24 1.26,-0.24 2.58,-0.78 1.32,-0.48 2.46,-1.14 1.14,-0.72 2.1,-1.62 l -0.42,3.18 q 0,0.06 -0.06,0.12 0,0 0,0.06 -0.06,0 -0.12,0.06 0,0 0,0 0,0 -0.06,0 0,0 0,0 -0.06,0.06 -0.06,0.06 0,0 0,0 -0.12,0.06 -0.24,0.12 -0.06,0.06 -0.18,0.12 -0.12,0.06 -0.24,0.12 -0.06,0.06 -0.18,0.12 -1.14,0.6 -2.28,1.14 -1.08,0.54 -2.28,0.9 -1.2,0.48 -2.76,0.72 -1.56,0.24 -3.42,0.24 -3.66,-0.18 -6.06,-1.26 -2.34,-1.14 -3.36,-3.24 -1.08,-2.1 -1.32,-4.5 -0.24,-2.4 0.3,-5.04 v -0.12 z m 22.2,-3.36 q 0.06,-0.06 0.06,-0.18 0.06,-0.18 0.12,-0.36 0,-0.12 0,-0.18 0.06,-0.06 0.06,-0.18 0,-0.06 0,-0.12 0.06,-0.12 0.06,-0.18 0.36,-1.62 0.3,-3.06 -0.06,-1.5 -0.54,-2.82 -0.42,-1.38 -1.68,-2.04 -1.2,-0.66 -3.3,-0.66 -1.56,0 -3,0.6 -1.38,0.54 -2.64,1.62 -1.26,1.14 -2.22,2.34 -0.96,1.2 -1.68,2.58 -0.24,0.36 -0.42,0.72 -0.18,0.36 -0.3,0.72 -0.12,0.36 -0.24,0.72 -0.06,0.3 -0.18,0.6 l 15.6,-0.12 v 0 z"
     style="font-style:italic;font-variant:normal;font-weight:normal;font-stretch:normal;font-size:60px;font-family:Optima;-inkscape-font-specification:'Optima,  weight=101 Italic';font-variant-ligatures:normal;font-variant-caps:normal;font-variant-numeric:normal;font-feature-settings:normal;text-align:start;writing-mode:lr-tb;text-anchor:start;stroke-width:0.75"
     id="path1111" /><path
     d="m 672.66877,-24.992077 7.68,-28.8 q 0.06,0.06 0.12,0.12 0.06,0 0.12,0.06 0.12,0.06 0.24,0.12 0.12,0 0.24,0.06 0.12,0 0.18,0.06 0.12,0 0.24,0 0.12,0.06 0.18,0.06 0.12,0 0.24,0 0.06,0 0.06,0 0.06,0 0.12,0 0,0 0,0 0.06,0 0.12,0 0.06,0 0.06,0 0.06,0 0.12,0 0,0 0,0 0.06,0 0.12,0 0.3,0 0.6,0 0.36,0 0.72,-0.06 0.3,-0.06 0.6,-0.12 0.3,-0.12 0.6,-0.18 l -1.5,5.52 q 1.02,-1.2 2.16,-2.28 1.2,-1.08 2.52,-1.98 0.36,-0.24 0.66,-0.42 0.36,-0.18 0.66,-0.36 1.02,-0.54 2.04,-0.78 1.02,-0.24 2.1,-0.24 0.12,0 0.24,0 0.12,0 0.24,0 0.06,0 0.12,0 0.06,0 0.12,0 0.06,0.06 0.12,0.06 0.06,0 0.12,0 l -1.98,5.52 q -0.42,-0.12 -0.84,-0.3 -0.36,-0.18 -0.72,-0.24 -0.24,-0.06 -0.48,-0.12 -0.24,-0.06 -0.48,-0.12 -0.12,0 -0.24,0 -0.12,-0.06 -0.24,-0.06 -1.14,0 -2.16,0.42 -0.96,0.36 -1.8,1.2 -0.9,0.78 -1.62,1.68 -0.66,0.9 -1.2,1.86 -0.18,0.36 -0.36,0.72 -0.18,0.3 -0.3,0.6 -0.06,0.18 -0.12,0.42 -0.06,0.18 -0.12,0.36 -0.06,0.06 -0.06,0.18 0,0.06 -0.06,0.18 l -4.5,16.86 q -0.18,0 -0.42,0 -0.18,0 -0.42,-0.06 -0.24,-0.06 -0.42,-0.06 -0.18,-0.06 -0.36,-0.12 -0.06,0 -0.18,0 -0.06,0 -0.18,0 -0.06,0 -0.12,0 -0.06,0 -0.12,0 -0.3,0 -0.66,0.06 -0.3,0 -0.66,0.06 -0.3,0.06 -0.6,0.12 -0.24,0 -0.54,0 v 0 z"
     style="font-style:italic;font-variant:normal;font-weight:normal;font-stretch:normal;font-size:60px;font-family:Optima;-inkscape-font-specification:'Optima,  weight=101 Italic';font-variant-ligatures:normal;font-variant-caps:normal;font-variant-numeric:normal;font-feature-settings:normal;text-align:start;writing-mode:lr-tb;text-anchor:start;stroke-width:0.75"
     id="path1113" /><path
     d="m 693.07346,-38.192077 q 1.02,-3.84 2.82,-6.72 1.8,-2.94 4.32,-4.86 2.58,-1.92 5.28,-2.88 2.7,-1.02 5.52,-1.02 2.52,0 4.32,0.66 1.8,0.6 2.82,1.8 1.02,1.26 1.62,2.64 0.6,1.32 0.72,2.82 0.06,0.6 0.06,1.26 0,0.6 -0.12,1.26 0,0.18 -0.06,0.42 0,0.18 -0.06,0.36 -0.06,0.42 -0.12,0.78 0,0.3 -0.12,0.66 -0.06,0.3 -0.18,0.6 -0.06,0.24 -0.18,0.48 -0.06,0.24 -0.18,0.48 -0.06,0.24 -0.18,0.42 l -20.28,-0.12 q -0.72,2.76 -0.78,4.92 0,2.16 0.6,3.78 0.66,1.62 2.52,2.46 1.86,0.78 4.86,0.78 1.2,0 2.4,-0.24 1.26,-0.24 2.58,-0.78 1.32,-0.48 2.46,-1.14 1.14,-0.72 2.1,-1.62 l -0.42,3.18 q 0,0.06 -0.06,0.12 0,0 0,0.06 -0.06,0 -0.12,0.06 0,0 0,0 0,0 -0.06,0 0,0 0,0 -0.06,0.06 -0.06,0.06 0,0 0,0 -0.12,0.06 -0.24,0.12 -0.06,0.06 -0.18,0.12 -0.12,0.06 -0.24,0.12 -0.06,0.06 -0.18,0.12 -1.14,0.6 -2.28,1.14 -1.08,0.54 -2.28,0.9 -1.2,0.48 -2.76,0.72 -1.56,0.24 -3.42,0.24 -3.66,-0.18 -6.06,-1.26 -2.34,-1.14 -3.36,-3.24 -1.08,-2.1 -1.32,-4.5 -0.24,-2.4 0.3,-5.04 v -0.12 z m 22.2,-3.36 q 0.06,-0.06 0.06,-0.18 0.06,-0.18 0.12,-0.36 0,-0.12 0,-0.18 0.06,-0.06 0.06,-0.18 0,-0.06 0,-0.12 0.06,-0.12 0.06,-0.18 0.36,-1.62 0.3,-3.06 -0.06,-1.5 -0.54,-2.82 -0.42,-1.38 -1.68,-2.04 -1.2,-0.66 -3.3,-0.66 -1.56,0 -3,0.6 -1.38,0.54 -2.64,1.62 -1.26,1.14 -2.22,2.34 -0.96,1.2 -1.68,2.58 -0.24,0.36 -0.42,0.72 -0.18,0.36 -0.3,0.72 -0.12,0.36 -0.24,0.72 -0.06,0.3 -0.18,0.6 l 15.6,-0.12 v 0 z"
     style="font-style:italic;font-variant:normal;font-weight:normal;font-stretch:normal;font-size:60px;font-family:Optima;-inkscape-font-specification:'Optima,  weight=101 Italic';font-variant-ligatures:normal;font-variant-caps:normal;font-variant-numeric:normal;font-feature-settings:normal;text-align:start;writing-mode:lr-tb;text-anchor:start;stroke-width:0.75"
     id="path1115" /></g>
</g></svg>