<?xml version="1.0" encoding="UTF-8" standalone="no"?>
<svg

   xmlns="http://www.w3.org/2000/svg"
   viewBox="0 0 999.99998 300"
   height="300"
   width="1000"
   xml:space="preserve"
   id="svg61"
   version="1.1"><metadata
     id="metadata67"></metadata><defs
     id="defs65"><clipPath
       id="clipPath77"
       clipPathUnits="userSpaceOnUse"><path
         id="path75"
         d="M 0,371.28 H 841.89 V 0 H 0 Z" /></clipPath></defs><g
     transform="matrix(1.3333333,0,0,-1.3333333,-12.569866,310.01732)"
     id="g69"><g
   transform="matrix(0.6193623,0,0,0.6193623,3.5884239,2.8597311)"
   id="g71"><g
     clip-path="url(#clipPath77)"
     id="g73"><g
       transform="translate(120.2798,144.2598)"
       id="g79"><path
         id="path81"
         style="fill:#c08d42;fill-opacity:1;fill-rule:nonzero;stroke:none"
         d="m 0,0 v 23.695 c 0,23.816 0.173,45.688 0.521,65.618 0.346,19.926 0.865,40.101 1.561,60.516 -2.255,-0.489 -5.117,-0.911 -8.583,-1.275 -3.47,-0.366 -4.721,-3.791 -8.532,-3.791 -3.817,0 -5.826,-6.949 -9.292,-6.583 -3.471,0.364 -4.358,-3.069 -6.609,-2.578 0.25,-7.411 -5.52,-0.561 -5.315,-7.909 0.361,-12.892 0.653,-25.686 0.875,-38.38 0.347,-19.93 0.52,-41.802 0.52,-65.618 V 0 c 0,-23.821 -0.173,-45.695 -0.52,-65.619 -0.219,-12.511 -0.504,-24.972 -0.859,-37.383 -0.209,-7.362 1.05,-1.508 2.086,-5.087 -0.641,2.213 11.523,-8.236 14.995,-8.236 3.466,0 3.733,-4.301 7.508,-4.851 3.836,-0.559 2.84,-1.59 6.31,-1.59 3.465,0 5.161,-1.785 7.416,-2.275 C 1.386,-105.355 0.867,-85.55 0.521,-65.619 0.173,-45.695 0,-23.821 0,0" /></g><g
       transform="translate(102.3589,366.29)"
       id="g83"><path
         id="path85"
         style="fill:#c08d42;fill-opacity:1;fill-rule:nonzero;stroke:none"
         d="m 0,0 c -15.533,0 -28.125,-12.592 -28.125,-28.123 0,-15.532 12.592,-28.124 28.125,-28.124 15.53,0 28.121,12.592 28.121,28.124 C 28.121,-12.592 15.53,0 0,0" /></g><g
       transform="translate(339.8774,77.958)"
       id="g87"><path
         id="path89"
         style="fill:#000000;fill-opacity:1;fill-rule:nonzero;stroke:none"
         d="m 0,0 c -2.86,23.689 -5.718,47.661 -8.571,71.916 -2.86,24.25 -5.648,48.925 -8.359,74.02 -2.718,25.089 -5.471,53.907 -8.612,80.823 h -5.648 c -7.146,-12.899 -14.958,-29.586 -23.241,-44.445 -8.291,-14.863 -16.65,-30.003 -25.074,-45.419 -8.431,-15.425 -16.716,-30.637 -24.86,-45.632 -8.143,-15.003 -15.79,-28.954 -22.929,-41.847 -7.145,-12.899 -13.434,-24.327 -18.859,-34.275 -5.43,-9.956 -9.576,-17.599 -12.429,-22.921 -22.005,39.532 -43.073,78.08 -63.218,115.655 -20.144,37.568 -40.265,79.067 -59.982,118.884 h -7.281 c -2.291,-22.436 -4.814,-48.861 -7.957,-73.673 -3.147,-24.814 -6.576,-49.982 -10.286,-75.493 -3.716,-25.515 -7.574,-50.888 -11.571,-76.121 -4.005,-25.235 -7.863,-49.206 -11.573,-71.917 4.568,0.564 9.571,0.841 15.001,0.841 5.424,0 10.427,-0.277 15,-0.841 0,11.209 0.711,25.582 2.144,43.107 1.426,17.521 3.141,36.17 5.144,55.936 1.994,19.765 4.212,39.808 6.642,60.14 2.425,20.325 4.641,39.179 6.644,56.567 h 0.857 c 18.859,-37.01 37.643,-73.251 56.361,-108.716 18.711,-35.471 35.599,-69.631 52.741,-104.959 h 5.225 c 17.145,38.128 34.893,73.416 53.898,108.323 19,34.906 38.359,70.025 58.075,105.352 h 0.858 c 4.567,-36.451 8.424,-72.199 11.571,-107.243 3.141,-35.053 6.282,-71.222 9.43,-108.507 3.429,0.564 6.784,0.841 10.071,0.841 h 10.074 10.071 c 3.281,0 6.643,-0.277 10.072,-0.841 C 6,-47.176 2.854,-23.698 0,0" /></g><g
       transform="translate(172.6846,302.8105)"
       id="g91"><path
         id="path93"
         style="fill:none;stroke:#c08d42;stroke-width:3.76600003;stroke-linecap:butt;stroke-linejoin:miter;stroke-miterlimit:10;stroke-dasharray:none;stroke-opacity:1"
         d="m 0,0 c -83.095,0 -150.458,-65.642 -150.458,-146.609 0,-80.972 67.363,-146.614 150.458,-146.614 83.096,0 150.461,65.642 150.461,146.614 C 150.461,-65.642 83.096,0 0,0 Z" /></g><g
       transform="translate(317.3857,240.1797)"
       id="g95"><path
         id="path97"
         style="fill:#000000;fill-opacity:1;fill-rule:nonzero;stroke:none"
         d="m 0,0 -22.724,15.418 7.609,-168.202 33.838,-1.345 z" /></g><g
       transform="translate(286.4238,262.042)"
       id="g99"><path
         id="path101"
         style="fill:#010101;fill-opacity:1;fill-rule:nonzero;stroke:none"
         d="m 0,0 -9.597,-17.278 18.615,-14.935 5.423,19.296 z" /></g><g
       transform="translate(313.0093,91.8145)"
       id="g103"><path
         id="path105"
         style="fill:#000000;fill-opacity:1;fill-rule:nonzero;stroke:none"
         d="m 0,0 -10.879,-4.396 0.741,-8.433 11.273,1.965 z" /></g></g></g><text
   y="-87.870468"
   x="251.79643"
   id="text111"
   style="font-variant:normal;font-weight:normal;font-stretch:normal;font-size:119.19920349px;font-family:Optima;-inkscape-font-specification:Optima-Regular;writing-mode:lr-tb;fill:#231f20;fill-opacity:1;fill-rule:nonzero;stroke:none"
   transform="scale(1,-1)"><tspan
     style="word-spacing:0.73500001px;opacity:1;fill:#c08d42;fill-opacity:1"
     id="tspan107"
     y="-87.870468"
     x="251.79643 284.93381 351.20856 457.17664 516.77625 556.46954 616.06915 675.66876">InMarket</tspan><tspan
     style="font-size:64px;line-height:0.25"
     id="tspan109"
     y="0"
     x="251.79643" /></text>

<text
   transform="scale(1,-1)"
   id="text4665"
   y="-24.992077"
   x="244.53033"
   style="font-style:normal;font-weight:normal;font-size:30px;line-height:1.25;font-family:sans-serif;letter-spacing:0px;word-spacing:0px;fill:#000000;fill-opacity:1;stroke:none;stroke-width:0.75"
   xml:space="preserve"><tspan
     style="font-style:italic;font-variant:normal;font-weight:normal;font-stretch:normal;font-size:60px;font-family:Optima;-inkscape-font-specification:'Optima weight=101 Italic';stroke-width:0.75"
     y="-24.992077"
     x="244.53033"
     id="tspan4663">Viser Veien Videre</tspan></text>

</g></svg>