<?xml version="1.0" encoding="UTF-8" standalone="no"?>
<svg
   xmlns="http://www.w3.org/2000/svg"
   version="1.1"
   id="svg61"
   xml:space="preserve"
   width="1000"
   height="300"
   viewBox="0 0 999.99998 300"
>
<metadata
     id="metadata67"></metadata><defs
     id="defs65"><clipPath
       clipPathUnits="userSpaceOnUse"
       id="clipPath77"><path
         d="M 0,371.28 H 841.89 V 0 H 0 Z"
         id="path75" /></clipPath></defs><g
     id="g69"
     transform="matrix(1.3333333,0,0,-1.3333333,-12.569866,310.01732)"><g
   id="g71"
   transform="matrix(0.6193623,0,0,0.6193623,3.5884239,2.8597311)"><g
     id="g73"
     clip-path="url(#clipPath77)"><g
       id="g79"
       transform="translate(120.2798,144.2598)"><path
         d="m 0,0 v 23.695 c 0,23.816 0.173,45.688 0.521,65.618 0.346,19.926 0.865,40.101 1.561,60.516 -2.255,-0.489 -5.117,-0.911 -8.583,-1.275 -3.47,-0.366 -4.721,-3.791 -8.532,-3.791 -3.817,0 -5.826,-6.949 -9.292,-6.583 -3.471,0.364 -4.358,-3.069 -6.609,-2.578 0.25,-7.411 -5.52,-0.561 -5.315,-7.909 0.361,-12.892 0.653,-25.686 0.875,-38.38 0.347,-19.93 0.52,-41.802 0.52,-65.618 V 0 c 0,-23.821 -0.173,-45.695 -0.52,-65.619 -0.219,-12.511 -0.504,-24.972 -0.859,-37.383 -0.209,-7.362 1.05,-1.508 2.086,-5.087 -0.641,2.213 11.523,-8.236 14.995,-8.236 3.466,0 3.733,-4.301 7.508,-4.851 3.836,-0.559 2.84,-1.59 6.31,-1.59 3.465,0 5.161,-1.785 7.416,-2.275 C 1.386,-105.355 0.867,-85.55 0.521,-65.619 0.173,-45.695 0,-23.821 0,0"
         style="fill:#c08d42;fill-opacity:1;fill-rule:nonzero;stroke:none"
         id="path81" /></g><g
       id="g83"
       transform="translate(102.3589,366.29)"><path
         d="m 0,0 c -15.533,0 -28.125,-12.592 -28.125,-28.123 0,-15.532 12.592,-28.124 28.125,-28.124 15.53,0 28.121,12.592 28.121,28.124 C 28.121,-12.592 15.53,0 0,0"
         style="fill:#c08d42;fill-opacity:1;fill-rule:nonzero;stroke:none"
         id="path85" /></g><g
       id="g87"
       transform="translate(339.8774,77.958)"><path
         d="m 0,0 c -2.86,23.689 -5.718,47.661 -8.571,71.916 -2.86,24.25 -5.648,48.925 -8.359,74.02 -2.718,25.089 -5.471,53.907 -8.612,80.823 h -5.648 c -7.146,-12.899 -14.958,-29.586 -23.241,-44.445 -8.291,-14.863 -16.65,-30.003 -25.074,-45.419 -8.431,-15.425 -16.716,-30.637 -24.86,-45.632 -8.143,-15.003 -15.79,-28.954 -22.929,-41.847 -7.145,-12.899 -13.434,-24.327 -18.859,-34.275 -5.43,-9.956 -9.576,-17.599 -12.429,-22.921 -22.005,39.532 -43.073,78.08 -63.218,115.655 -20.144,37.568 -40.265,79.067 -59.982,118.884 h -7.281 c -2.291,-22.436 -4.814,-48.861 -7.957,-73.673 -3.147,-24.814 -6.576,-49.982 -10.286,-75.493 -3.716,-25.515 -7.574,-50.888 -11.571,-76.121 -4.005,-25.235 -7.863,-49.206 -11.573,-71.917 4.568,0.564 9.571,0.841 15.001,0.841 5.424,0 10.427,-0.277 15,-0.841 0,11.209 0.711,25.582 2.144,43.107 1.426,17.521 3.141,36.17 5.144,55.936 1.994,19.765 4.212,39.808 6.642,60.14 2.425,20.325 4.641,39.179 6.644,56.567 h 0.857 c 18.859,-37.01 37.643,-73.251 56.361,-108.716 18.711,-35.471 35.599,-69.631 52.741,-104.959 h 5.225 c 17.145,38.128 34.893,73.416 53.898,108.323 19,34.906 38.359,70.025 58.075,105.352 h 0.858 c 4.567,-36.451 8.424,-72.199 11.571,-107.243 3.141,-35.053 6.282,-71.222 9.43,-108.507 3.429,0.564 6.784,0.841 10.071,0.841 h 10.074 10.071 c 3.281,0 6.643,-0.277 10.072,-0.841 C 6,-47.176 2.854,-23.698 0,0"
         style="fill:#000000;fill-opacity:1;fill-rule:nonzero;stroke:none"
         id="path89" /></g><g
       id="g91"
       transform="translate(172.6846,302.8105)"><path
         d="m 0,0 c -83.095,0 -150.458,-65.642 -150.458,-146.609 0,-80.972 67.363,-146.614 150.458,-146.614 83.096,0 150.461,65.642 150.461,146.614 C 150.461,-65.642 83.096,0 0,0 Z"
         style="fill:none;stroke:#c08d42;stroke-width:3.76600003;stroke-linecap:butt;stroke-linejoin:miter;stroke-miterlimit:10;stroke-dasharray:none;stroke-opacity:1"
         id="path93" /></g><g
       id="g95"
       transform="translate(317.3857,240.1797)"><path
         d="m 0,0 -22.724,15.418 7.609,-168.202 33.838,-1.345 z"
         style="fill:#000000;fill-opacity:1;fill-rule:nonzero;stroke:none"
         id="path97" /></g><g
       id="g99"
       transform="translate(286.4238,262.042)"><path
         d="m 0,0 -9.597,-17.278 18.615,-14.935 5.423,19.296 z"
         style="fill:#010101;fill-opacity:1;fill-rule:nonzero;stroke:none"
         id="path101" /></g><g
       id="g103"
       transform="translate(313.0093,91.8145)"><path
         d="m 0,0 -10.879,-4.396 0.741,-8.433 11.273,1.965 z"
         style="fill:#000000;fill-opacity:1;fill-rule:nonzero;stroke:none"
         id="path105" /></g></g></g><text
   transform="scale(1,-1)"
   style="font-variant:normal;font-weight:normal;font-stretch:normal;font-size:119.19920349px;font-family:Optima;-inkscape-font-specification:Optima-Regular;writing-mode:lr-tb;fill:#231f20;fill-opacity:1;fill-rule:nonzero;stroke:none"
   id="text111"
   x="251.79643"
   y="-87.870468"><tspan
     x="251.79643 284.93381 351.20856 457.17664 516.77625 556.46954 616.06915 675.66876"
     y="-87.870468"
     id="tspan107"
     style="word-spacing:0.73500001px;opacity:1;fill:#c08d42;fill-opacity:1">InMarket</tspan><tspan
     x="251.79643"
     y="0"
     id="tspan109"
     style="font-size:64px;line-height:0.25" /></text>



<g
   transform="matrix(0.92496134,0,0,-1,40.694871,-3.7593986)"
   style="font-style:normal;font-weight:normal;font-size:30px;line-height:1.25;font-family:sans-serif;letter-spacing:0px;word-spacing:0px;fill:#000000;fill-opacity:1;stroke:none;stroke-width:0.75"
   id="text4665"><path
     d="m 241.72179,-28.766668 15.554,-38.49615 h 1.72205 l 7.49925,29.3304 23.5532,-29.3304 h 1.7776 l -5.8883,38.49615 q -0.3333,0 -0.6666,0 -0.3333,-0.05555 -0.61105,-0.1111 -0.27775,0 -0.5555,0 -0.2222,-0.05555 -0.49995,-0.1111 -0.0555,0 -0.1111,0 -0.0555,0 -0.1111,0 -0.0556,0 -0.1111,0 -0.0555,0 -0.1111,0 -0.3333,0 -0.72215,0.05555 -0.3333,0 -0.72215,0.05555 -0.3333,0.05555 -0.72215,0.1111 -0.3333,0 -0.7777,0 l 5.1106,-28.886 -21.94225,27.9972 h -0.8888 l -6.61045,-27.5528 -10.2212,28.4416 q -0.16665,0 -0.38885,0 -0.16665,-0.05555 -0.38885,-0.1111 -0.2222,-0.05555 -0.4444,-0.05555 -0.2222,-0.05555 -0.49995,-0.05555 -0.0556,0 -0.1111,0 -0.0556,0 -0.0556,0 -0.0556,0 -0.1111,0 -0.0556,0 -0.1111,0 -0.0555,0 -0.1111,0 0,0 -0.0555,0 -0.0556,0.05555 -0.1111,0.05555 0,0 -0.0555,0 -0.0556,0 -0.16665,0 -0.0556,0 -0.1111,0 -0.16665,0.05555 -0.3333,0.05555 -0.1111,0 -0.2222,0.05555 -0.16665,0.05555 -0.3333,0.05555 -0.16665,0 -0.3333,0 v 0 z"
     style="font-style:italic;font-variant:normal;font-weight:normal;font-stretch:normal;font-size:55.54999924px;font-family:Optima;-inkscape-font-specification:'Optima weight=101 Italic';stroke-width:0.75"
     id="path927"
     /><path
     d="m 293.58466,-40.987668 q 0.8888,-3.2219 2.5553,-5.8883 1.6665,-2.6664 4.2218,-4.72175 2.49975,-2.1109 5.38835,-3.1108 2.94415,-1.05545 6.2216,-1.05545 2.4442,0 4.16625,0.61105 1.7776,0.61105 2.83305,1.7776 1.05545,1.16655 1.72205,2.4442 0.6666,1.27765 0.94435,2.72195 0.1111,0.94435 0.16665,1.8887 0.0555,0.8888 0,1.7776 -0.0555,0.8888 -0.16665,1.61095 -0.1111,0.6666 -0.27775,1.16655 -0.1111,0.49995 -0.27775,1.05545 -0.16665,0.49995 -0.4444,1.05545 -0.2222,0.5555 -0.49995,1.111 -0.27775,0.49995 -0.5555,1.05545 -1.05545,1.72205 -2.5553,3.333 -1.4443,1.61095 -3.38855,3.05525 -1.94425,1.38875 -4.3329,2.1109 -2.38865,0.6666 -5.16615,0.6666 -0.1111,0 -0.2222,0 -0.1111,0 -0.2222,0 -0.0555,0 -0.1111,0 -0.0555,0 -0.0555,0 -0.0556,0 -0.1111,0 -0.0555,0 -0.1111,0 -3.1108,0 -5.27725,-0.8888 -2.16645,-0.8888 -3.38855,-2.72195 -1.2221,-1.83315 -1.49985,-4.05515 -0.27775,-2.27755 0.4444,-4.8884 v -0.1111 z m 5.16615,0.38885 q -0.1111,0.4444 -0.2222,0.9999 -0.1111,0.5555 -0.2222,1.2221 -0.0556,0.6666 -0.1111,1.38875 0,0.6666 0.1111,1.4443 0.1111,0.9999 0.49995,1.94425 0.38885,0.94435 1.05545,1.7776 0.61105,0.83325 1.72205,1.27765 1.111,0.4444 2.6664,0.5555 1.7776,0 3.4441,-0.72215 1.72205,-0.72215 3.333,-2.222 1.5554,-1.4443 2.83305,-3.6663 1.27765,-2.222 2.222,-5.16615 0.72215,-2.61085 0.7777,-4.72175 0.1111,-2.16645 -0.4444,-3.83295 -0.5555,-1.61095 -1.94425,-2.4442 -1.3332,-0.83325 -3.4441,-0.83325 -2.05535,0 -3.94405,0.8888 -1.83315,0.83325 -3.38855,2.61085 -1.61095,1.72205 -2.7775,3.6663 -1.111,1.8887 -1.72205,3.9996 -0.0555,0.1111 -0.1111,0.2222 0,0.1111 0,0.2222 -0.0555,0.05555 -0.1111,0.16665 0,0.05555 0,0.16665 0,0.05555 -0.0555,0.16665 0,0.05555 0,0.1111 -0.0555,0.1111 -0.1111,0.16665 0,0.05555 0,0.16665 -0.0555,0.16665 -0.1111,0.3333 0,0.1111 0,0.2222 z"
     style="font-style:italic;font-variant:normal;font-weight:normal;font-stretch:normal;font-size:55.54999924px;font-family:Optima;-inkscape-font-specification:'Optima weight=101 Italic';stroke-width:0.75"
     id="path929"
     /><path
     d="m 325.28114,-35.321568 4.83285,-17.94265 h -3.49965 q 0.0555,0.05555 0.0555,0 0.0555,-0.05555 0.1111,-0.05555 0,-0.05555 0,-0.1111 0.0556,-0.05555 0.1111,-0.1111 0.1111,-0.1111 0.16665,-0.2222 0.0555,-0.16665 0.1111,-0.27775 0,-0.05555 0,-0.1111 0,-0.1111 0.0555,-0.16665 0,-0.1111 0,-0.16665 0,-0.1111 0,-0.16665 0,-0.16665 0,-0.3333 0,-0.16665 -0.0555,-0.3333 l 3.49965,-0.1111 1.4443,-5.27725 4.83285,-1.72205 -1.8887,6.9993 h 6.1105 q -0.1111,0.2222 -0.2222,0.38885 -0.1111,0.16665 -0.2222,0.27775 -0.0555,0.05555 -0.1111,0.16665 0,0.05555 0,0.16665 0,0.05555 -0.0555,0.1111 0,0 0,0.05555 -0.0555,0.1111 -0.1111,0.27775 0,0.1111 0,0.2222 0,0.05555 0,0.16665 0,0.05555 0.0556,0.1111 0,0.1111 0,0.16665 0.0555,0.05555 0.0555,0.16665 l -6.05495,-0.1111 -3.8885,14.443 q -0.0556,0.4444 -0.2222,0.83325 -0.1111,0.3333 -0.2222,0.7777 0,0.1111 -0.0555,0.2222 0,0.1111 -0.0555,0.16665 -0.0556,0.3333 -0.1111,0.61105 -0.0555,0.27775 -0.0555,0.5555 -0.2222,1.05545 -0.27775,2.05535 0,0.94435 0.2222,1.7776 0.1111,0.8888 0.72215,1.3332 0.6666,0.4444 1.72205,0.4444 0.27775,0 0.61105,-0.05555 0.38885,-0.05555 0.7777,-0.1111 0.38885,-0.1111 0.83325,-0.2222 0.4444,-0.16665 0.9999,-0.38885 l -0.4444,1.61095 q -0.83325,0.38885 -1.61095,0.5555 -0.7777,0.16665 -1.49985,0.3333 -0.72215,0.16665 -1.3332,0.2222 -0.5555,0.1111 -1.111,0.1111 -1.5554,0 -2.61085,-0.49995 -0.9999,-0.4444 -1.49985,-1.38875 -0.5555,-0.94435 -0.5555,-2.27755 0,-1.3332 0.4444,-3.05525 v -0.1111 z"
     style="font-style:italic;font-variant:normal;font-weight:normal;font-stretch:normal;font-size:55.54999924px;font-family:Optima;-inkscape-font-specification:'Optima weight=101 Italic';stroke-width:0.75"
     id="path931"
 /><path
     d="m 340.19024,-28.766668 7.2215,-27.1084 q 0.1111,0.1111 0.16665,0.16665 0.1111,0.05555 0.16665,0.05555 0.1111,0.05555 0.2222,0.05555 0.1111,0 0.2222,0 0.1111,0.05555 0.16665,0.1111 0.1111,0 0.2222,0 0.1111,0.05555 0.16665,0.05555 0.1111,0 0.2222,0 0.2222,0 0.38885,0 0.2222,0 0.4444,0 0.27775,0 0.5555,0 0.3333,0 0.6666,-0.05555 0.27775,-0.05555 0.5555,-0.1111 0.3333,-0.1111 0.61105,-0.16665 l -7.2215,26.9973 q -0.2222,0 -0.49995,0 -0.2222,-0.05555 -0.49995,-0.1111 -0.2222,-0.05555 -0.5555,-0.05555 -0.27775,-0.05555 -0.5555,-0.05555 -0.1111,0 -0.2222,0 -0.1111,0 -0.2222,0 -0.2222,0.05555 -0.4444,0.05555 -0.16665,0 -0.4444,0.05555 -0.3333,0.05555 -0.6666,0.1111 -0.3333,0 -0.6666,0 z m 9.38795,-36.71855 q 0.16665,-0.72215 0.5555,-1.27765 0.38885,-0.5555 0.94435,-0.94435 0.5555,-0.38885 1.05545,-0.5555 0.5555,-0.2222 1.111,-0.2222 0.61105,0 1.111,0.2222 0.5555,0.16665 0.94435,0.5555 0.38885,0.38885 0.4444,0.9999 0.1111,0.5555 -0.1111,1.3332 -0.27775,0.7777 -0.72215,1.38875 -0.38885,0.5555 -0.9999,0.94435 -0.27775,0.16665 -0.5555,0.3333 -0.27775,0.16665 -0.5555,0.2222 -0.27775,0.1111 -0.5555,0.16665 -0.27775,0.05555 -0.5555,0.05555 -0.5555,0 -1.05545,-0.16665 -0.4444,-0.2222 -0.7777,-0.61105 -0.38885,-0.4444 -0.4444,-0.9999 -0.0555,-0.61105 0.1111,-1.3332 l 0.0555,-0.1111 z"
     style="font-style:italic;font-variant:normal;font-weight:normal;font-stretch:normal;font-size:55.54999924px;font-family:Optima;-inkscape-font-specification:'Optima weight=101 Italic';stroke-width:0.75"
     id="path933"
/><path
     d="m 358.21014,-55.430668 h 5.6661 q 0,1.05545 0.0555,2.16645 0.0556,1.111 0.16665,2.3331 0.0556,0.61105 0.1111,1.2221 0.0555,0.61105 0.1111,1.2221 0.0555,0.6666 0.1111,1.27765 0.1111,0.61105 0.16665,1.2221 0,0.27775 0,0.5555 0.0555,0.27775 0.1111,0.5555 0.0555,0.27775 0.0555,0.5555 0.0555,0.27775 0.0555,0.5555 0.0556,0.5555 0.1111,1.111 0.1111,0.5555 0.2222,1.05545 0.1111,1.05545 0.27775,2.05535 0.16665,0.9999 0.38885,1.94425 0.16665,0.94435 0.3333,1.7776 0.2222,0.83325 0.4444,1.49985 0.49995,-0.61105 1.111,-1.38875 0.61105,-0.83325 1.27765,-1.83315 0.6666,-0.94435 1.38875,-1.9998 0.7777,-1.05545 1.5554,-2.16645 0.1111,-0.16665 0.16665,-0.3333 0.1111,-0.16665 0.2222,-0.3333 0.1111,-0.1111 0.2222,-0.27775 0.1111,-0.16665 0.2222,-0.3333 0.27775,-0.3333 0.4444,-0.6666 0.2222,-0.3333 0.4444,-0.6666 1.111,-1.72205 2.16645,-3.333 1.05545,-1.61095 1.9998,-3.16635 0.94435,-1.5554 1.61095,-2.6664 0.6666,-1.111 1.05545,-1.83315 l 3.94405,-0.1111 q -1.111,1.5554 -2.16645,2.9997 -1.05545,1.4443 -1.9998,2.83305 -0.9999,1.38875 -1.94425,2.7775 -0.94435,1.38875 -1.8887,2.72195 -0.4444,0.61105 -0.8888,1.2221 -0.38885,0.61105 -0.83325,1.2221 -0.2222,0.27775 -0.4444,0.61105 -0.16665,0.27775 -0.38885,0.5555 -0.2222,0.3333 -0.4444,0.6666 -0.16665,0.27775 -0.38885,0.5555 -0.83325,1.27765 -1.72205,2.61085 -0.83325,1.27765 -1.7776,2.61085 -0.4444,0.6666 -0.8888,1.3332 -0.4444,0.6666 -0.8888,1.3332 -0.4444,0.6666 -0.8888,1.3332 -0.4444,0.6666 -0.8888,1.27765 -0.16665,0 -0.3333,0 -0.16665,0 -0.3333,-0.05555 -0.0555,0 -0.16665,0 -0.0555,-0.05555 -0.1111,-0.1111 -0.1111,0 -0.16665,0 -0.0556,-0.05555 -0.16665,-0.05555 -0.0556,0 -0.1111,0 -0.0555,0 -0.1111,0 -0.0555,0 -0.1111,0 0,0 -0.0555,0 -0.2222,0 -0.49995,0.05555 -0.27775,0 -0.5555,0.05555 -0.2222,0.05555 -0.4444,0.1111 -0.16665,0 -0.3333,0 l -4.27735,-26.664 v 0 z"
     style="font-style:italic;font-variant:normal;font-weight:normal;font-stretch:normal;font-size:55.54999924px;font-family:Optima;-inkscape-font-specification:'Optima weight=101 Italic';stroke-width:0.75"
     id="path935"
/><path
     d="m 382.86912,-34.877168 q 0.3333,-1.2221 0.9999,-2.3331 0.6666,-1.111 1.72205,-2.05535 1.05545,-0.94435 2.61085,-1.6665 1.5554,-0.7777 3.6663,-1.27765 l 7.3326,-1.4443 q 0.6666,-0.05555 1.16655,-0.27775 0.5555,-0.27775 0.94435,-0.6666 0.38885,-0.4444 0.6666,-0.94435 0.27775,-0.49995 0.4444,-1.05545 0,-0.05555 0,-0.1111 0.0555,-0.05555 0.0555,-0.1111 0,-0.16665 0,-0.27775 0.0555,-0.16665 0.1111,-0.3333 0,-0.2222 0,-0.4444 0,-0.2222 0,-0.4444 -0.0555,-0.8888 -0.38885,-1.72205 -0.27775,-0.83325 -0.8888,-1.5554 -0.5555,-0.7777 -1.4443,-1.16655 -0.8888,-0.38885 -2.05535,-0.38885 -0.0555,0 -0.1111,0 0,0 -0.1111,0 -0.0556,0 -0.1111,0 -0.0555,0 -0.1111,0 -0.49995,0 -0.94435,0.05555 -0.4444,0.05555 -0.8888,0.2222 -0.1111,0 -0.27775,0.05555 -0.1111,0.05555 -0.27775,0.1111 -0.5555,0.2222 -1.111,0.49995 -0.5555,0.27775 -1.16655,0.6666 -0.38885,0.2222 -0.7777,0.49995 -0.3333,0.27775 -0.61105,0.5555 -0.38885,0.27775 -0.7777,0.61105 -0.3333,0.3333 -0.7777,0.6666 l -0.7777,-0.1111 0.7777,-3.05525 q 0.16665,0 0.3333,-0.05555 0.16665,-0.1111 0.38885,-0.16665 0.16665,-0.1111 0.3333,-0.2222 0.2222,-0.1111 0.4444,-0.2222 0.8888,-0.4444 1.83315,-0.7777 0.9999,-0.38885 2.05535,-0.7777 1.111,-0.3333 2.222,-0.49995 1.16655,-0.2222 2.38865,-0.2222 2.4442,0 4.1107,0.5555 1.72205,0.49995 2.61085,1.5554 0.8888,1.05545 0.94435,2.83305 0.1111,1.7776 -0.49995,4.2218 l -3.7774,13.8875 q -0.1111,0.5555 -0.1111,0.8888 0,0.27775 0.16665,0.4444 0.16665,0.16665 0.4444,0.27775 0.27775,0.05555 0.61105,0.05555 0.16665,0 0.3333,0 0.16665,0 0.38885,-0.05555 0.2222,0 0.4444,-0.05555 0.2222,-0.05555 0.4444,-0.1111 l -0.3333,1.16655 q -0.16665,0.2222 -0.38885,0.3333 -0.16665,0.1111 -0.3333,0.2222 -0.16665,0.1111 -0.38885,0.16665 -0.16665,0.05555 -0.3333,0.1111 -0.16665,0.05555 -0.38885,0.05555 -0.16665,0 -0.3333,0.05555 -0.16665,0.05555 -0.38885,0.05555 -0.16665,0.05555 -0.3333,0.05555 -0.0556,0 -0.1111,0 0,0 -0.0555,0.05555 -0.0555,0 -0.1111,0 0,0 -0.0555,0 -0.0555,0 -0.1111,0 0,0 0,0 -0.0555,0 -0.1111,0 0,0 -0.0556,0 -0.83325,0 -1.5554,-0.2222 -0.6666,-0.16665 -1.27765,-0.5555 -0.5555,-0.4444 -0.83325,-1.05545 -0.2222,-0.61105 -0.1111,-1.3332 -0.2222,0.16665 -0.38885,0.27775 -0.16665,0.1111 -0.27775,0.2222 -0.2222,0.1111 -0.38885,0.2222 -0.16665,0.1111 -0.3333,0.2222 -1.2221,0.7777 -2.3331,1.3332 -1.05545,0.5555 -2.05535,0.83325 -1.05545,0.3333 -2.05535,0.49995 -0.94435,0.16665 -1.7776,0.16665 -1.6665,0 -2.8886,-0.49995 -1.2221,-0.4444 -2.05535,-1.38875 -0.83325,-0.9999 -1.05545,-2.222 -0.16665,-1.27765 0.2222,-2.72195 z m 16.1095,0.4444 1.9998,-7.4437 q -3.16635,0.38885 -5.555,0.8888 -2.3331,0.49995 -3.83295,1.27765 -1.5554,0.72215 -2.5553,1.7776 -0.94435,1.05545 -1.3332,2.49975 0,0.05555 -0.0556,0.16665 0,0.05555 0,0.1111 -0.0555,0.1111 -0.1111,0.27775 0,0.1111 0,0.2222 0,0.05555 -0.0556,0.16665 0,0.1111 0,0.2222 0,0.05555 -0.0555,0.16665 0,0.1111 0,0.2222 0,0.05555 0,0.16665 0,0.05555 0,0.16665 0,0.05555 0,0.1111 0,0 0,0 0,0.05555 0,0.1111 0.0555,0 0.0555,0.05555 0.1111,0.49995 0.4444,0.94435 0.3333,0.4444 0.8888,0.8888 0.5555,0.38885 1.2221,0.61105 0.72215,0.2222 1.61095,0.2222 0.4444,0 0.83325,-0.05555 0.4444,-0.05555 0.94435,-0.16665 0.3333,-0.05555 0.6666,-0.16665 0.38885,-0.16665 0.7777,-0.3333 0.1111,-0.05555 0.2222,-0.1111 0.16665,-0.1111 0.27775,-0.16665 0.4444,-0.2222 0.8888,-0.49995 0.4444,-0.27775 0.8888,-0.61105 0.4444,-0.3333 0.8888,-0.72215 0.4444,-0.38885 0.94435,-0.8888 v -0.1111 z"
     style="font-style:italic;font-variant:normal;font-weight:normal;font-stretch:normal;font-size:55.54999924px;font-family:Optima;-inkscape-font-specification:'Optima weight=101 Italic';stroke-width:0.75"
     id="path937"
/><path
     d="m 411.86103,-35.321568 4.83285,-17.94265 h -3.49965 q 0.0555,0.05555 0.0555,0 0.0556,-0.05555 0.1111,-0.05555 0,-0.05555 0,-0.1111 0.0555,-0.05555 0.1111,-0.1111 0.1111,-0.1111 0.16665,-0.2222 0.0556,-0.16665 0.1111,-0.27775 0,-0.05555 0,-0.1111 0,-0.1111 0.0555,-0.16665 0,-0.1111 0,-0.16665 0,-0.1111 0,-0.16665 0,-0.16665 0,-0.3333 0,-0.16665 -0.0555,-0.3333 l 3.49965,-0.1111 1.4443,-5.27725 4.83285,-1.72205 -1.8887,6.9993 h 6.1105 q -0.1111,0.2222 -0.2222,0.38885 -0.1111,0.16665 -0.2222,0.27775 -0.0555,0.05555 -0.1111,0.16665 0,0.05555 0,0.16665 0,0.05555 -0.0556,0.1111 0,0 0,0.05555 -0.0555,0.1111 -0.1111,0.27775 0,0.1111 0,0.2222 0,0.05555 0,0.16665 0,0.05555 0.0555,0.1111 0,0.1111 0,0.16665 0.0555,0.05555 0.0555,0.16665 l -6.05495,-0.1111 -3.8885,14.443 q -0.0555,0.4444 -0.2222,0.83325 -0.1111,0.3333 -0.2222,0.7777 0,0.1111 -0.0556,0.2222 0,0.1111 -0.0555,0.16665 -0.0555,0.3333 -0.1111,0.61105 -0.0555,0.27775 -0.0555,0.5555 -0.2222,1.05545 -0.27775,2.05535 0,0.94435 0.2222,1.7776 0.1111,0.8888 0.72215,1.3332 0.6666,0.4444 1.72205,0.4444 0.27775,0 0.61105,-0.05555 0.38885,-0.05555 0.7777,-0.1111 0.38885,-0.1111 0.83325,-0.2222 0.4444,-0.16665 0.9999,-0.38885 l -0.4444,1.61095 q -0.83325,0.38885 -1.61095,0.5555 -0.7777,0.16665 -1.49985,0.3333 -0.72215,0.16665 -1.3332,0.2222 -0.5555,0.1111 -1.111,0.1111 -1.5554,0 -2.61085,-0.49995 -0.9999,-0.4444 -1.49985,-1.38875 -0.5555,-0.94435 -0.5555,-2.27755 0,-1.3332 0.4444,-3.05525 v -0.1111 z"
     style="font-style:italic;font-variant:normal;font-weight:normal;font-stretch:normal;font-size:55.54999924px;font-family:Optima;-inkscape-font-specification:'Optima weight=101 Italic';stroke-width:0.75"
     id="path939"
 /><path
     d="m 426.88122,-40.987668 q 0.94435,-3.5552 2.61085,-6.2216 1.6665,-2.72195 3.9996,-4.49955 2.38865,-1.7776 4.8884,-2.6664 2.49975,-0.94435 5.1106,-0.94435 2.3331,0 3.9996,0.61105 1.6665,0.5555 2.61085,1.6665 0.94435,1.16655 1.49985,2.4442 0.5555,1.2221 0.6666,2.61085 0.0556,0.5555 0.0556,1.16655 0,0.5555 -0.1111,1.16655 0,0.16665 -0.0555,0.38885 0,0.16665 -0.0556,0.3333 -0.0555,0.38885 -0.1111,0.72215 0,0.27775 -0.1111,0.61105 -0.0555,0.27775 -0.16665,0.5555 -0.0555,0.2222 -0.16665,0.4444 -0.0555,0.2222 -0.16665,0.4444 -0.0555,0.2222 -0.16665,0.38885 l -18.7759,-0.1111 q -0.6666,2.5553 -0.72215,4.5551 0,1.9998 0.5555,3.49965 0.61105,1.49985 2.3331,2.27755 1.72205,0.72215 4.49955,0.72215 1.111,0 2.222,-0.2222 1.16655,-0.2222 2.38865,-0.72215 1.2221,-0.4444 2.27755,-1.05545 1.05545,-0.6666 1.94425,-1.49985 l -0.38885,2.94415 q 0,0.05555 -0.0555,0.1111 0,0 0,0.05555 -0.0555,0 -0.1111,0.05555 0,0 0,0 0,0 -0.0555,0 0,0 0,0 -0.0555,0.05555 -0.0555,0.05555 0,0 0,0 -0.1111,0.05555 -0.2222,0.1111 -0.0555,0.05555 -0.16665,0.1111 -0.1111,0.05555 -0.2222,0.1111 -0.0555,0.05555 -0.16665,0.1111 -1.05545,0.5555 -2.1109,1.05545 -0.9999,0.49995 -2.1109,0.83325 -1.111,0.4444 -2.5553,0.6666 -1.4443,0.2222 -3.16635,0.2222 -3.38855,-0.16665 -5.61055,-1.16655 -2.16645,-1.05545 -3.1108,-2.9997 -0.9999,-1.94425 -1.2221,-4.16625 -0.2222,-2.222 0.27775,-4.6662 v -0.1111 z m 20.5535,-3.1108 q 0.0555,-0.05555 0.0555,-0.16665 0.0555,-0.16665 0.1111,-0.3333 0,-0.1111 0,-0.16665 0.0556,-0.05555 0.0556,-0.16665 0,-0.05555 0,-0.1111 0.0555,-0.1111 0.0555,-0.16665 0.3333,-1.49985 0.27775,-2.83305 -0.0556,-1.38875 -0.49995,-2.61085 -0.38885,-1.27765 -1.5554,-1.8887 -1.111,-0.61105 -3.05525,-0.61105 -1.4443,0 -2.7775,0.5555 -1.27765,0.49995 -2.4442,1.49985 -1.16655,1.05545 -2.05535,2.16645 -0.8888,1.111 -1.5554,2.38865 -0.2222,0.3333 -0.38885,0.6666 -0.16665,0.3333 -0.27775,0.6666 -0.1111,0.3333 -0.2222,0.6666 -0.0555,0.27775 -0.16665,0.5555 l 14.443,-0.1111 v 0 z"
     style="font-style:italic;font-variant:normal;font-weight:normal;font-stretch:normal;font-size:55.54999924px;font-family:Optima;-inkscape-font-specification:'Optima weight=101 Italic';stroke-width:0.75"
     id="path941"
 /><path
     d="m 478.33702,-28.766668 9.61015,-35.8853 q -0.5555,0.1111 -1.2221,0.16665 -0.6666,0 -1.49985,0.1111 -0.4444,0.05555 -0.8888,0.1111 -0.4444,0 -0.8888,0.05555 -0.4444,0.05555 -0.8888,0.1111 -0.4444,0 -0.8888,0.05555 -0.3333,0.05555 -0.6666,0.1111 -0.3333,0 -0.61105,0.05555 -0.27775,0.05555 -0.61105,0.1111 -0.27775,0 -0.5555,0 -0.4444,0.05555 -0.8888,0.1111 -0.38885,0.05555 -0.7777,0.1111 -0.16665,0.05555 -0.3333,0.1111 -0.1111,0 -0.2222,0 -0.5555,0.05555 -0.94435,0.1111 -0.38885,0.05555 -0.72215,0.1111 0.1111,-0.1111 0.16665,-0.2222 0.0556,-0.16665 0.1111,-0.27775 0.0555,-0.1111 0.1111,-0.2222 0.1111,-0.1111 0.16665,-0.27775 0,-0.1111 0,-0.2222 0.0556,-0.1111 0.1111,-0.2222 0.0555,-0.1111 0.0555,-0.2222 0.0556,-0.16665 0.1111,-0.27775 0.0555,-0.16665 0.0555,-0.3333 0.0556,-0.16665 0.0556,-0.3333 0,-0.1111 0,-0.16665 0.0555,-0.1111 0.0555,-0.16665 0.0555,-0.27775 0.0555,-0.49995 0,-0.27775 0,-0.49995 l 29.27485,-0.1111 q -0.0555,0.2222 -0.16665,0.38885 -0.0555,0.1111 -0.1111,0.2222 -0.0555,0.1111 -0.1111,0.2222 -0.0555,0.1111 -0.1111,0.2222 -0.0555,0.16665 -0.16665,0.27775 -0.0555,0.1111 -0.0555,0.2222 -0.0555,0.1111 -0.1111,0.27775 0,0.1111 0,0.2222 -0.0555,0.2222 -0.16665,0.49995 -0.0555,0.2222 -0.0555,0.49995 0,0.16665 0,0.3333 0,0.16665 0,0.3333 0,0.05555 0,0.16665 0,0.05555 0,0.16665 -1.8887,-0.3333 -3.6663,-0.5555 -1.72205,-0.27775 -3.333,-0.4444 -1.61095,-0.16665 -2.8886,-0.2222 -1.2221,-0.1111 -1.9998,-0.1111 l -9.5546,35.7742 q -0.1111,0 -0.27775,0 -0.1111,0 -0.2222,-0.05555 -0.16665,0 -0.3333,0 -0.1111,-0.05555 -0.2222,-0.05555 -0.2222,-0.05555 -0.5555,-0.05555 -0.27775,-0.05555 -0.5555,-0.05555 -0.1111,0 -0.2222,0 -0.1111,0 -0.2222,0 -0.2222,0.05555 -0.4444,0.05555 -0.16665,0 -0.4444,0.05555 -0.3333,0.05555 -0.6666,0.1111 -0.3333,0 -0.6666,0 v 0 z"
     style="font-style:italic;font-variant:normal;font-weight:normal;font-stretch:normal;font-size:55.54999924px;font-family:Optima;-inkscape-font-specification:'Optima weight=101 Italic';stroke-width:0.75"
     id="path943"
/><path
     d="m 494.71904,-40.987668 q 0.8888,-3.2219 2.5553,-5.8883 1.6665,-2.6664 4.2218,-4.72175 2.49975,-2.1109 5.38835,-3.1108 2.94415,-1.05545 6.2216,-1.05545 2.4442,0 4.16625,0.61105 1.7776,0.61105 2.83305,1.7776 1.05545,1.16655 1.72205,2.4442 0.6666,1.27765 0.94435,2.72195 0.1111,0.94435 0.16665,1.8887 0.0556,0.8888 0,1.7776 -0.0556,0.8888 -0.16665,1.61095 -0.1111,0.6666 -0.27775,1.16655 -0.1111,0.49995 -0.27775,1.05545 -0.16665,0.49995 -0.4444,1.05545 -0.2222,0.5555 -0.49995,1.111 -0.27775,0.49995 -0.5555,1.05545 -1.05545,1.72205 -2.5553,3.333 -1.4443,1.61095 -3.38855,3.05525 -1.94425,1.38875 -4.3329,2.1109 -2.38865,0.6666 -5.16615,0.6666 -0.1111,0 -0.2222,0 -0.1111,0 -0.2222,0 -0.0555,0 -0.1111,0 -0.0555,0 -0.0555,0 -0.0555,0 -0.1111,0 -0.0556,0 -0.1111,0 -3.1108,0 -5.27725,-0.8888 -2.16645,-0.8888 -3.38855,-2.72195 -1.2221,-1.83315 -1.49985,-4.05515 -0.27775,-2.27755 0.4444,-4.8884 v -0.1111 z m 5.16615,0.38885 q -0.1111,0.4444 -0.2222,0.9999 -0.1111,0.5555 -0.2222,1.2221 -0.0555,0.6666 -0.1111,1.38875 0,0.6666 0.1111,1.4443 0.1111,0.9999 0.49995,1.94425 0.38885,0.94435 1.05545,1.7776 0.61105,0.83325 1.72205,1.27765 1.111,0.4444 2.6664,0.5555 1.7776,0 3.4441,-0.72215 1.72205,-0.72215 3.333,-2.222 1.5554,-1.4443 2.83305,-3.6663 1.27765,-2.222 2.222,-5.16615 0.72215,-2.61085 0.7777,-4.72175 0.1111,-2.16645 -0.4444,-3.83295 -0.5555,-1.61095 -1.94425,-2.4442 -1.3332,-0.83325 -3.4441,-0.83325 -2.05535,0 -3.94405,0.8888 -1.83315,0.83325 -3.38855,2.61085 -1.61095,1.72205 -2.7775,3.6663 -1.111,1.8887 -1.72205,3.9996 -0.0555,0.1111 -0.1111,0.2222 0,0.1111 0,0.2222 -0.0555,0.05555 -0.1111,0.16665 0,0.05555 0,0.16665 0,0.05555 -0.0555,0.16665 0,0.05555 0,0.1111 -0.0556,0.1111 -0.1111,0.16665 0,0.05555 0,0.16665 -0.0555,0.16665 -0.1111,0.3333 0,0.1111 0,0.2222 l 0.0556,-0.1111 z"
     style="font-style:italic;font-variant:normal;font-weight:normal;font-stretch:normal;font-size:55.54999924px;font-family:Optima;-inkscape-font-specification:'Optima weight=101 Italic';stroke-width:0.75"
     id="path945"
/><path
     d="m 541.34199,-28.766668 10.16565,-38.05175 h 20.1091 q -0.16665,0.27775 -0.27775,0.49995 -0.0555,0.16665 -0.16665,0.3333 -0.0555,0.05555 -0.1111,0.16665 0,0.05555 -0.0556,0.1111 -0.0555,0.1111 -0.1111,0.16665 0,0.05555 0,0.16665 0,0.05555 0,0.1111 0,0 0,0.05555 0,0.05555 -0.0556,0.1111 0,0 0,0 0,0.05555 -0.0555,0.1111 0,0 0,0 -0.0556,0.2222 -0.1111,0.4444 0,0.16665 -0.0555,0.38885 0,0.1111 0,0.2222 0,0.1111 0.0555,0.2222 0,0.16665 0,0.27775 0,0.1111 0,0.2222 -0.7777,-0.16665 -1.61095,-0.27775 -0.7777,-0.1111 -1.72205,-0.16665 -0.4444,0 -0.8888,0 -0.4444,-0.05555 -0.8888,-0.05555 -0.49995,-0.05555 -0.94435,-0.05555 -0.4444,0 -0.8888,0 -0.27775,0 -0.5555,0 -0.27775,0 -0.5555,0 -0.27775,0 -0.61105,0 -0.27775,0 -0.5555,0 -0.2222,0.05555 -0.4444,0.05555 -0.2222,0 -0.4444,0 -0.2222,0 -0.4444,0 -0.2222,0 -0.38885,0 -0.2222,0 -0.49995,0 -0.2222,0 -0.49995,0 -0.2222,0.05555 -0.49995,0.05555 -0.2222,0 -0.4444,0 -0.49995,0 -0.9999,0 -0.4444,0 -0.8888,0 l -3.61075,13.4431 h 8.3325 l 5.3328,-0.4444 q -0.0556,0.1111 -0.1111,0.2222 0,0.05555 -0.0556,0.1111 -0.1111,0.1111 -0.2222,0.27775 -0.0555,0.1111 -0.1111,0.2222 -0.0556,0.1111 -0.1111,0.2222 0,0.1111 0,0.16665 -0.0556,0.1111 -0.1111,0.2222 0,0.1111 -0.0555,0.2222 0,0.05555 -0.0556,0.16665 0,0.05555 0,0.16665 0,0 -0.0556,0.05555 0,0.05555 0,0.05555 0,0.16665 -0.0555,0.27775 0,0.1111 0,0.2222 0,0.16665 0,0.3333 0,0.16665 0,0.3333 0,0.05555 0,0.16665 0,0.05555 0,0.16665 l -6.4438,-0.5555 h -6.9993 l -4.2218,15.7762 q 0.38885,0.1111 0.7777,0.16665 0.4444,0.05555 0.94435,0.05555 0.49995,0.05555 1.05545,0.05555 0.5555,0 1.111,0 0.4444,0 0.8888,0 0.4444,0 0.94435,0 0.27775,0 0.49995,0 0.2222,0 0.49995,-0.05555 0.2222,0 0.4444,0 0.27775,0 0.49995,0 1.111,-0.05555 2.222,-0.1111 1.111,-0.05555 2.16645,-0.1111 0.9999,-0.1111 1.83315,-0.16665 0.8888,-0.1111 1.5554,-0.16665 -0.0556,0.1111 -0.16665,0.27775 -0.0556,0.1111 -0.1111,0.2222 -0.0555,0.1111 -0.16665,0.27775 -0.0555,0.1111 -0.1111,0.2222 -0.0556,0.2222 -0.16665,0.4444 -0.0556,0.2222 -0.1111,0.4444 -0.0556,0.2222 -0.1111,0.4444 -0.0555,0.2222 -0.0555,0.4444 -0.0556,0.2222 0,0.38885 0.0555,0.16665 0.1111,0.2222 h -20.5535 v 0 z"
     style="font-style:italic;font-variant:normal;font-weight:normal;font-stretch:normal;font-size:55.54999924px;font-family:Optima;-inkscape-font-specification:'Optima weight=101 Italic';stroke-width:0.75"
     id="path947"
/><path
     d="m 569.38954,-40.598818 q 0.94435,-3.5552 2.49975,-6.3327 1.5554,-2.7775 3.61075,-4.7773 2.1109,-1.9998 4.6662,-2.9997 2.61085,-1.05545 5.555,-1.05545 0.0556,0 0.1111,0 0.0555,0 0.16665,0 0.0555,0.05555 0.1111,0.05555 0.1111,0 0.16665,0 0.1111,0 0.2222,0 0.16665,0 0.3333,0 1.111,0.16665 2.05535,0.49995 0.9999,0.3333 1.83315,0.8888 0.83325,0.5555 1.3332,1.16655 0.5555,0.61105 0.72215,1.2221 0.0556,0.1111 0.0556,0.27775 0,0.1111 0,0.2222 -0.0556,0.1111 -0.0556,0.2222 0,0.1111 0,0.2222 l 5.27725,-19.7758 q 0.1111,0.1111 0.2222,0.16665 0.16665,0.05555 0.3333,0.1111 0.1111,0 0.2222,0.05555 0.16665,0.05555 0.27775,0.05555 0.27775,0.05555 0.5555,0.05555 0.3333,0 0.61105,0 0.27775,0 0.5555,0 0.3333,0 0.61105,-0.05555 0.3333,-0.05555 0.6666,-0.1111 0.3333,-0.1111 0.72215,-0.16665 l -11.2211,41.8847 q -0.2222,0 -0.49995,0 -0.2222,-0.05555 -0.49995,-0.1111 -0.2222,-0.05555 -0.5555,-0.05555 -0.27775,-0.05555 -0.5555,-0.05555 -0.1111,0 -0.2222,0 -0.1111,0 -0.2222,0 -0.2222,0.05555 -0.4444,0.05555 -0.16665,0 -0.4444,0.05555 -0.3333,0.05555 -0.6666,0.1111 -0.3333,0 -0.6666,0 l 1.27765,-4.83285 q -1.2221,1.27765 -2.38865,2.16645 -1.16655,0.8888 -2.27755,1.49985 -1.16655,0.61105 -2.222,0.9999 -1.05545,0.3333 -2.05535,0.49995 -0.1111,0 -0.2222,0 -0.1111,0 -0.2222,0.05555 -0.1111,0 -0.2222,0 -0.0555,0 -0.16665,0 -0.0555,0 -0.16665,0 -0.0555,0 -0.1111,0 -0.0556,0 -0.1111,0 0,0 -0.0556,0.05555 -0.1111,0 -0.2222,0 -0.0555,0 -0.16665,0 -2.222,0 -3.9996,-0.7777 -1.7776,-0.83325 -3.05525,-2.5553 -1.27765,-1.7776 -1.61095,-3.83295 -0.27775,-2.1109 0.38885,-4.49955 0,-0.05555 0,-0.1111 0,-0.05555 0.0556,-0.1111 0,-0.05555 0,-0.05555 0.0555,-0.05555 0.0555,-0.1111 0,0 0,0 0,-0.05555 0,-0.1111 z m 5.49945,-0.83325 q -0.5555,2.222 -0.72215,3.83295 -0.16665,1.61095 0.16665,2.72195 0.3333,1.111 0.83325,1.94425 0.49995,0.7777 1.111,1.2221 0.3333,0.2222 0.6666,0.4444 0.3333,0.16665 0.72215,0.27775 0.4444,0.05555 0.7777,0.1111 0.3333,0.05555 0.61105,0.05555 0.0555,0 0.0555,0 0.0556,0 0.1111,0 0,0 0.0555,0 0.0556,0 0.1111,0 -0.0556,0.05555 -0.0556,0.05555 0.0556,0 0.1111,0 0.0556,0 0.0556,0 0.0556,0 0.1111,0 1.5554,0 3.05525,-0.72215 1.5554,-0.72215 3.1108,-2.1109 1.5554,-1.4443 2.6664,-3.4441 1.111,-2.05535 1.83315,-4.72175 0.1111,-0.4444 0.2222,-0.9999 0.16665,-0.5555 0.27775,-1.111 0.1111,-0.61105 0.16665,-1.2221 0.1111,-0.61105 0.16665,-1.27765 0.0555,-1.27765 -0.2222,-2.4442 -0.2222,-1.16655 -0.6666,-2.222 -0.4444,-1.05545 -1.49985,-1.5554 -1.05545,-0.5555 -2.6664,-0.5555 -0.0555,0 -0.1111,0 0,0 -0.0556,0 -0.0555,0 -0.1111,0 0,0 0,0 -0.0556,0 -0.1111,0 -0.0556,0 -0.0556,0 -0.0556,0 -0.1111,0 0,0 -0.0556,0 -1.72205,0.1111 -3.16635,0.72215 -1.4443,0.5555 -2.49975,1.6665 -1.05545,1.05545 -1.8887,2.27755 -0.7777,1.16655 -1.38875,2.4442 -0.3333,0.6666 -0.61105,1.27765 -0.2222,0.61105 -0.38885,1.2221 -0.1111,0.38885 -0.2222,0.7777 -0.1111,0.38885 -0.2222,0.7777 -0.0556,0.16665 -0.1111,0.3333 -0.0555,0.16665 -0.1111,0.3333 l 0.0556,-0.1111 z"
     style="font-style:italic;font-variant:normal;font-weight:normal;font-stretch:normal;font-size:55.54999924px;font-family:Optima;-inkscape-font-specification:'Optima weight=101 Italic';stroke-width:0.75"
     id="path949"
/><path
     d="m 601.58597,-38.376818 4.5551,-17.05385 q 0.2222,0.16665 0.4444,0.27775 0.27775,0.05555 0.61105,0.1111 0.27775,0.05555 0.5555,0.05555 0.3333,0 0.6666,0 0.1111,0 0.2222,0 0.1111,0 0.2222,0 0.2222,0 0.4444,0 0.2222,-0.05555 0.4444,-0.05555 0.3333,-0.05555 0.61105,-0.1111 0.3333,-0.1111 0.61105,-0.16665 l -4.2218,15.60955 q -0.4444,1.7776 -0.49995,3.333 0,1.5554 0.38885,2.8886 0.38885,1.3332 1.38875,2.05535 0.9999,0.6666 2.61085,0.6666 0.0556,0 0.0556,0 0.0555,0 0.1111,0 0.0556,0 0.1111,0 0.0556,0 0.16665,-0.05555 0,0 0.0556,0 0.0555,0 0.1111,0 0.0556,0 0.0556,0 0.0555,0 0.1111,0 1.61095,-0.1111 2.8886,-0.6666 1.27765,-0.61105 2.222,-1.61095 0.94435,-0.9999 1.61095,-2.1109 0.6666,-1.111 1.111,-2.3331 0,-0.05555 0,-0.1111 0.0556,-0.05555 0.1111,-0.16665 0.0555,-0.05555 0.0555,-0.1111 0.0556,-0.1111 0.0556,-0.16665 0,-0.1111 0,-0.16665 0.0556,-0.05555 0.1111,-0.16665 0,-0.05555 0,-0.1111 0.0556,-0.1111 0.0556,-0.16665 l 4.444,-16.72055 q 0.1111,0.1111 0.16665,0.16665 0.1111,0.05555 0.16665,0.05555 0.1111,0.05555 0.2222,0.05555 0.1111,0 0.2222,0 0.1111,0.05555 0.16665,0.1111 0.1111,0 0.2222,0 0.1111,0.05555 0.16665,0.05555 0.1111,0 0.2222,0 0.2222,0 0.38885,0 0.2222,0 0.4444,0 0.27775,0 0.5555,0 0.3333,0 0.6666,-0.05555 0.27775,-0.05555 0.5555,-0.1111 0.3333,-0.1111 0.61105,-0.16665 l -7.1104,26.5529 q -0.2222,0 -0.49995,0 -0.2222,-0.05555 -0.49995,-0.1111 -0.2222,-0.05555 -0.5555,-0.05555 -0.27775,-0.05555 -0.5555,-0.05555 -0.1111,0 -0.2222,0 -0.1111,0 -0.2222,0 -0.2222,0.05555 -0.4444,0.05555 -0.16665,0 -0.4444,0.05555 -0.3333,0.05555 -0.6666,0.1111 -0.3333,0 -0.6666,0 l 1.05545,-3.94405 q -1.05545,1.38875 -2.27755,2.27755 -1.16655,0.8888 -2.5553,1.3332 -1.3332,0.3333 -2.7775,0.5555 -1.38875,0.2222 -2.83305,0.2222 -2.1109,0 -3.49965,-0.4444 -1.38875,-0.4444 -2.05535,-1.38875 -0.6666,-0.94435 -0.94435,-1.94425 -0.2222,-1.05545 -0.16665,-2.222 0,-0.27775 0,-0.49995 0,-0.27775 0,-0.5555 0,-0.2222 0.0556,-0.49995 0.0556,-0.27775 0.1111,-0.49995 0.1111,-0.49995 0.2222,-0.9999 0.16665,-0.49995 0.27775,-0.8888 v -0.1111 z"
     style="font-style:italic;font-variant:normal;font-weight:normal;font-stretch:normal;font-size:55.54999924px;font-family:Optima;-inkscape-font-specification:'Optima weight=101 Italic';stroke-width:0.75"
     id="path951"
 /><path
     d="m 632.1159,-41.432068 q 0.7777,-3.05525 2.38865,-5.555 1.61095,-2.5553 3.94405,-4.444 2.3331,-1.94425 5.38835,-2.8886 3.1108,-0.9999 6.8882,-0.9999 0.9999,0 1.83315,0.1111 0.83325,0.05555 1.49985,0.2222 0.61105,0.16665 1.2221,0.3333 0.6666,0.16665 1.2221,0.4444 0.27775,0.1111 0.49995,0.27775 0.2222,0.1111 0.4444,0.2222 0.2222,0.16665 0.4444,0.3333 0.27775,0.1111 0.5555,0.2222 l -1.8887,3.83295 h -0.8888 q -0.38885,-0.8888 -0.9999,-1.61095 -0.5555,-0.72215 -1.27765,-1.2221 -0.7777,-0.49995 -1.83315,-0.72215 -1.05545,-0.27775 -2.3331,-0.27775 -2.1109,0 -3.9996,0.8888 -1.83315,0.8888 -3.4441,2.6664 -1.5554,1.72205 -2.6664,3.72185 -1.05545,1.94425 -1.61095,4.05515 -0.5555,2.16645 -0.5555,4.16625 0.0555,1.94425 0.7777,3.72185 0.6666,1.7776 2.27755,2.6664 1.61095,0.8888 4.05515,0.8888 1.27765,0 2.3331,-0.2222 1.111,-0.2222 2.1109,-0.61105 0.94435,-0.4444 1.94425,-1.05545 0.9999,-0.61105 2.05535,-1.3332 0,-0.05555 0,-0.05555 0.0556,-0.05555 0.1111,-0.05555 0,0 0,0 0.0556,-0.05555 0.0556,-0.05555 0.0556,0 0.0556,0 0.0555,-0.05555 0.1111,-0.1111 l 0.38885,0.27775 -1.16655,2.6664 q -1.111,0.7777 -2.27755,1.3332 -1.16655,0.5555 -2.38865,0.83325 -1.2221,0.27775 -2.49975,0.4444 -1.2221,0.2222 -2.38865,0.2222 -0.0555,0 -0.1111,0 0,0 -0.0556,0 -0.0555,0 -0.1111,0 0,0 -0.0556,0 -2.5553,-0.05555 -4.6662,-0.83325 -2.1109,-0.83325 -3.83295,-2.4442 -1.72205,-1.61095 -2.16645,-3.94405 -0.38885,-2.38865 0.4444,-5.4439 0,0 0,0 0,-0.05555 0,-0.1111 0,0 0,0 0,-0.05555 0.0556,-0.1111 0,0 0,0 0,-0.05555 0,-0.05555 0,0 0,0 0,-0.05555 0.0555,-0.1111 0,-0.05555 0,-0.05555 0,-0.05555 0,-0.1111 l 0.0556,-0.1111 z"
     style="font-style:italic;font-variant:normal;font-weight:normal;font-stretch:normal;font-size:55.54999924px;font-family:Optima;-inkscape-font-specification:'Optima weight=101 Italic';stroke-width:0.75"
     id="path953"
/><path
     d="m 658.7747,-34.877168 q 0.3333,-1.2221 0.9999,-2.3331 0.6666,-1.111 1.72205,-2.05535 1.05545,-0.94435 2.61085,-1.6665 1.5554,-0.7777 3.6663,-1.27765 l 7.3326,-1.4443 q 0.6666,-0.05555 1.16655,-0.27775 0.5555,-0.27775 0.94435,-0.6666 0.38885,-0.4444 0.6666,-0.94435 0.27775,-0.49995 0.4444,-1.05545 0,-0.05555 0,-0.1111 0.0556,-0.05555 0.0556,-0.1111 0,-0.16665 0,-0.27775 0.0555,-0.16665 0.1111,-0.3333 0,-0.2222 0,-0.4444 0,-0.2222 0,-0.4444 -0.0556,-0.8888 -0.38885,-1.72205 -0.27775,-0.83325 -0.8888,-1.5554 -0.5555,-0.7777 -1.4443,-1.16655 -0.8888,-0.38885 -2.05535,-0.38885 -0.0556,0 -0.1111,0 0,0 -0.1111,0 -0.0556,0 -0.1111,0 -0.0556,0 -0.1111,0 -0.49995,0 -0.94435,0.05555 -0.4444,0.05555 -0.8888,0.2222 -0.1111,0 -0.27775,0.05555 -0.1111,0.05555 -0.27775,0.1111 -0.5555,0.2222 -1.111,0.49995 -0.5555,0.27775 -1.16655,0.6666 -0.38885,0.2222 -0.7777,0.49995 -0.3333,0.27775 -0.61105,0.5555 -0.38885,0.27775 -0.7777,0.61105 -0.3333,0.3333 -0.7777,0.6666 l -0.7777,-0.1111 0.7777,-3.05525 q 0.16665,0 0.3333,-0.05555 0.16665,-0.1111 0.38885,-0.16665 0.16665,-0.1111 0.3333,-0.2222 0.2222,-0.1111 0.4444,-0.2222 0.8888,-0.4444 1.83315,-0.7777 0.9999,-0.38885 2.05535,-0.7777 1.111,-0.3333 2.222,-0.49995 1.16655,-0.2222 2.38865,-0.2222 2.4442,0 4.1107,0.5555 1.72205,0.49995 2.61085,1.5554 0.8888,1.05545 0.94435,2.83305 0.1111,1.7776 -0.49995,4.2218 l -3.7774,13.8875 q -0.1111,0.5555 -0.1111,0.8888 0,0.27775 0.16665,0.4444 0.16665,0.16665 0.4444,0.27775 0.27775,0.05555 0.61105,0.05555 0.16665,0 0.3333,0 0.16665,0 0.38885,-0.05555 0.2222,0 0.4444,-0.05555 0.2222,-0.05555 0.4444,-0.1111 l -0.3333,1.16655 q -0.16665,0.2222 -0.38885,0.3333 -0.16665,0.1111 -0.3333,0.2222 -0.16665,0.1111 -0.38885,0.16665 -0.16665,0.05555 -0.3333,0.1111 -0.16665,0.05555 -0.38885,0.05555 -0.16665,0 -0.3333,0.05555 -0.16665,0.05555 -0.38885,0.05555 -0.16665,0.05555 -0.3333,0.05555 -0.0556,0 -0.1111,0 0,0 -0.0555,0.05555 -0.0556,0 -0.1111,0 0,0 -0.0555,0 -0.0556,0 -0.1111,0 0,0 0,0 -0.0555,0 -0.1111,0 0,0 -0.0556,0 -0.83325,0 -1.5554,-0.2222 -0.6666,-0.16665 -1.27765,-0.5555 -0.5555,-0.4444 -0.83325,-1.05545 -0.2222,-0.61105 -0.1111,-1.3332 -0.2222,0.16665 -0.38885,0.27775 -0.16665,0.1111 -0.27775,0.2222 -0.2222,0.1111 -0.38885,0.2222 -0.16665,0.1111 -0.3333,0.2222 -1.2221,0.7777 -2.3331,1.3332 -1.05545,0.5555 -2.05535,0.83325 -1.05545,0.3333 -2.05535,0.49995 -0.94435,0.16665 -1.7776,0.16665 -1.6665,0 -2.8886,-0.49995 -1.2221,-0.4444 -2.05535,-1.38875 -0.83325,-0.9999 -1.05545,-2.222 -0.16665,-1.27765 0.2222,-2.72195 v -0.1111 z m 16.1095,0.4444 1.9998,-7.4437 q -3.16635,0.38885 -5.555,0.8888 -2.3331,0.49995 -3.83295,1.27765 -1.5554,0.72215 -2.5553,1.7776 -0.94435,1.05545 -1.3332,2.49975 0,0.05555 -0.0555,0.16665 0,0.05555 0,0.1111 -0.0556,0.1111 -0.1111,0.27775 0,0.1111 0,0.2222 0,0.05555 -0.0556,0.16665 0,0.1111 0,0.2222 0,0.05555 -0.0556,0.16665 0,0.1111 0,0.2222 0,0.05555 0,0.16665 0,0.05555 0,0.16665 0,0.05555 0,0.1111 0,0 0,0 0,0.05555 0,0.1111 0.0556,0 0.0556,0.05555 0.1111,0.49995 0.4444,0.94435 0.3333,0.4444 0.8888,0.8888 0.5555,0.38885 1.2221,0.61105 0.72215,0.2222 1.61095,0.2222 0.4444,0 0.83325,-0.05555 0.4444,-0.05555 0.94435,-0.16665 0.3333,-0.05555 0.6666,-0.16665 0.38885,-0.16665 0.7777,-0.3333 0.1111,-0.05555 0.2222,-0.1111 0.16665,-0.1111 0.27775,-0.16665 0.4444,-0.2222 0.8888,-0.49995 0.4444,-0.27775 0.8888,-0.61105 0.4444,-0.3333 0.8888,-0.72215 0.4444,-0.38885 0.94435,-0.8888 z"
     style="font-style:italic;font-variant:normal;font-weight:normal;font-stretch:normal;font-size:55.54999924px;font-family:Optima;-inkscape-font-specification:'Optima weight=101 Italic';stroke-width:0.75"
     id="path955"
 /><path
     d="m 687.76658,-35.321568 4.83285,-17.94265 h -3.49965 q 0.0556,0.05555 0.0556,0 0.0555,-0.05555 0.1111,-0.05555 0,-0.05555 0,-0.1111 0.0556,-0.05555 0.1111,-0.1111 0.1111,-0.1111 0.16665,-0.2222 0.0556,-0.16665 0.1111,-0.27775 0,-0.05555 0,-0.1111 0,-0.1111 0.0556,-0.16665 0,-0.1111 0,-0.16665 0,-0.1111 0,-0.16665 0,-0.16665 0,-0.3333 0,-0.16665 -0.0556,-0.3333 l 3.49965,-0.1111 1.4443,-5.27725 4.83285,-1.72205 -1.8887,6.9993 h 6.1105 q -0.1111,0.2222 -0.2222,0.38885 -0.1111,0.16665 -0.2222,0.27775 -0.0556,0.05555 -0.1111,0.16665 0,0.05555 0,0.16665 0,0.05555 -0.0556,0.1111 0,0 0,0.05555 -0.0555,0.1111 -0.1111,0.27775 0,0.1111 0,0.2222 0,0.05555 0,0.16665 0,0.05555 0.0556,0.1111 0,0.1111 0,0.16665 0.0555,0.05555 0.0555,0.16665 l -6.05495,-0.1111 -3.8885,14.443 q -0.0556,0.4444 -0.2222,0.83325 -0.1111,0.3333 -0.2222,0.7777 0,0.1111 -0.0556,0.2222 0,0.1111 -0.0556,0.16665 -0.0555,0.3333 -0.1111,0.61105 -0.0555,0.27775 -0.0555,0.5555 -0.2222,1.05545 -0.27775,2.05535 0,0.94435 0.2222,1.7776 0.1111,0.8888 0.72215,1.3332 0.6666,0.4444 1.72205,0.4444 0.27775,0 0.61105,-0.05555 0.38885,-0.05555 0.7777,-0.1111 0.38885,-0.1111 0.83325,-0.2222 0.4444,-0.16665 0.9999,-0.38885 l -0.4444,1.61095 q -0.83325,0.38885 -1.61095,0.5555 -0.7777,0.16665 -1.49985,0.3333 -0.72215,0.16665 -1.3332,0.2222 -0.5555,0.1111 -1.111,0.1111 -1.5554,0 -2.61085,-0.49995 -0.9999,-0.4444 -1.49985,-1.38875 -0.5555,-0.94435 -0.5555,-2.27755 0,-1.3332 0.4444,-3.05525 v -0.1111 z"
     style="font-style:italic;font-variant:normal;font-weight:normal;font-stretch:normal;font-size:55.54999924px;font-family:Optima;-inkscape-font-specification:'Optima weight=101 Italic';stroke-width:0.75"
     id="path957"
 /><path
     d="m 702.78677,-40.987668 q 0.94435,-3.5552 2.61085,-6.2216 1.6665,-2.72195 3.9996,-4.49955 2.38865,-1.7776 4.8884,-2.6664 2.49975,-0.94435 5.1106,-0.94435 2.3331,0 3.9996,0.61105 1.6665,0.5555 2.61085,1.6665 0.94435,1.16655 1.49985,2.4442 0.5555,1.2221 0.6666,2.61085 0.0555,0.5555 0.0555,1.16655 0,0.5555 -0.1111,1.16655 0,0.16665 -0.0556,0.38885 0,0.16665 -0.0555,0.3333 -0.0556,0.38885 -0.1111,0.72215 0,0.27775 -0.1111,0.61105 -0.0556,0.27775 -0.16665,0.5555 -0.0556,0.2222 -0.16665,0.4444 -0.0556,0.2222 -0.16665,0.4444 -0.0555,0.2222 -0.16665,0.38885 l -18.7759,-0.1111 q -0.6666,2.5553 -0.72215,4.5551 0,1.9998 0.5555,3.49965 0.61105,1.49985 2.3331,2.27755 1.72205,0.72215 4.49955,0.72215 1.111,0 2.222,-0.2222 1.16655,-0.2222 2.38865,-0.72215 1.2221,-0.4444 2.27755,-1.05545 1.05545,-0.6666 1.94425,-1.49985 l -0.38885,2.94415 q 0,0.05555 -0.0556,0.1111 0,0 0,0.05555 -0.0555,0 -0.1111,0.05555 0,0 0,0 0,0 -0.0556,0 0,0 0,0 -0.0555,0.05555 -0.0555,0.05555 0,0 0,0 -0.1111,0.05555 -0.2222,0.1111 -0.0556,0.05555 -0.16665,0.1111 -0.1111,0.05555 -0.2222,0.1111 -0.0556,0.05555 -0.16665,0.1111 -1.05545,0.5555 -2.1109,1.05545 -0.9999,0.49995 -2.1109,0.83325 -1.111,0.4444 -2.5553,0.6666 -1.4443,0.2222 -3.16635,0.2222 -3.38855,-0.16665 -5.61055,-1.16655 -2.16645,-1.05545 -3.1108,-2.9997 -0.9999,-1.94425 -1.2221,-4.16625 -0.2222,-2.222 0.27775,-4.6662 v -0.1111 z m 20.5535,-3.1108 q 0.0555,-0.05555 0.0555,-0.16665 0.0556,-0.16665 0.1111,-0.3333 0,-0.1111 0,-0.16665 0.0555,-0.05555 0.0555,-0.16665 0,-0.05555 0,-0.1111 0.0556,-0.1111 0.0556,-0.16665 0.3333,-1.49985 0.27775,-2.83305 -0.0555,-1.38875 -0.49995,-2.61085 -0.38885,-1.27765 -1.5554,-1.8887 -1.111,-0.61105 -3.05525,-0.61105 -1.4443,0 -2.7775,0.5555 -1.27765,0.49995 -2.4442,1.49985 -1.16655,1.05545 -2.05535,2.16645 -0.8888,1.111 -1.5554,2.38865 -0.2222,0.3333 -0.38885,0.6666 -0.16665,0.3333 -0.27775,0.6666 -0.1111,0.3333 -0.2222,0.6666 -0.0556,0.27775 -0.16665,0.5555 l 14.443,-0.1111 v 0 z"
     style="font-style:italic;font-variant:normal;font-weight:normal;font-stretch:normal;font-size:55.54999924px;font-family:Optima;-inkscape-font-specification:'Optima weight=101 Italic';stroke-width:0.75"
     id="path959"
/></g>


</g></svg>